%TF.GenerationSoftware,KiCad,Pcbnew,(5.1.8)-1*%
%TF.CreationDate,2020-12-20T02:03:12+03:00*%
%TF.ProjectId,BLDC_SensorlessWithLM339,424c4443-5f53-4656-9e73-6f726c657373,0.3*%
%TF.SameCoordinates,Original*%
%TF.FileFunction,Copper,L2,Bot*%
%TF.FilePolarity,Positive*%
%FSLAX46Y46*%
G04 Gerber Fmt 4.6, Leading zero omitted, Abs format (unit mm)*
G04 Created by KiCad (PCBNEW (5.1.8)-1) date 2020-12-20 02:03:12*
%MOMM*%
%LPD*%
G01*
G04 APERTURE LIST*
%TA.AperFunction,ComponentPad*%
%ADD10C,1.170000*%
%TD*%
%TA.AperFunction,ComponentPad*%
%ADD11R,1.170000X1.170000*%
%TD*%
%TA.AperFunction,ComponentPad*%
%ADD12O,2.400000X1.600000*%
%TD*%
%TA.AperFunction,ComponentPad*%
%ADD13R,2.400000X1.600000*%
%TD*%
%TA.AperFunction,ComponentPad*%
%ADD14O,2.000000X1.905000*%
%TD*%
%TA.AperFunction,ComponentPad*%
%ADD15R,2.000000X1.905000*%
%TD*%
%TA.AperFunction,ComponentPad*%
%ADD16C,3.000000*%
%TD*%
%TA.AperFunction,ComponentPad*%
%ADD17R,3.000000X3.000000*%
%TD*%
%TA.AperFunction,ComponentPad*%
%ADD18O,1.700000X1.700000*%
%TD*%
%TA.AperFunction,ComponentPad*%
%ADD19R,1.700000X1.700000*%
%TD*%
%TA.AperFunction,ComponentPad*%
%ADD20O,1.600000X1.600000*%
%TD*%
%TA.AperFunction,ComponentPad*%
%ADD21R,1.600000X1.600000*%
%TD*%
%TA.AperFunction,ComponentPad*%
%ADD22C,2.000000*%
%TD*%
%TA.AperFunction,ComponentPad*%
%ADD23R,2.000000X2.000000*%
%TD*%
%TA.AperFunction,ComponentPad*%
%ADD24C,1.600000*%
%TD*%
%TA.AperFunction,ViaPad*%
%ADD25C,0.800000*%
%TD*%
%TA.AperFunction,Conductor*%
%ADD26C,0.500000*%
%TD*%
%TA.AperFunction,Conductor*%
%ADD27C,0.254000*%
%TD*%
%TA.AperFunction,Conductor*%
%ADD28C,0.100000*%
%TD*%
G04 APERTURE END LIST*
D10*
%TO.P,U4,14*%
%TO.N,Net-(J2-Pad2)*%
X50071000Y-17272000D03*
%TO.P,U4,13*%
%TO.N,GND*%
X50071000Y-19812000D03*
%TO.P,U4,12*%
X50071000Y-22352000D03*
%TO.P,U4,11*%
X50071000Y-24892000D03*
%TO.P,U4,10*%
X50071000Y-27432000D03*
%TO.P,U4,9*%
%TO.N,Net-(R16-Pad1)*%
X50071000Y-29972000D03*
%TO.P,U4,8*%
%TO.N,Net-(R16-Pad2)*%
X50071000Y-32512000D03*
%TO.P,U4,7*%
%TO.N,Net-(R17-Pad1)*%
X42131000Y-32512000D03*
%TO.P,U4,6*%
%TO.N,Net-(R16-Pad2)*%
X42131000Y-29972000D03*
%TO.P,U4,5*%
%TO.N,Net-(R18-Pad1)*%
X42131000Y-27432000D03*
%TO.P,U4,4*%
%TO.N,Net-(R16-Pad2)*%
X42131000Y-24892000D03*
%TO.P,U4,3*%
%TO.N,+3V3*%
X42131000Y-22352000D03*
%TO.P,U4,2*%
%TO.N,Net-(J2-Pad4)*%
X42131000Y-19812000D03*
D11*
%TO.P,U4,1*%
%TO.N,Net-(J2-Pad3)*%
X42131000Y-17272000D03*
%TD*%
D12*
%TO.P,U3,8*%
%TO.N,Net-(C5-Pad1)*%
X50419000Y-92075000D03*
%TO.P,U3,4*%
%TO.N,GND*%
X42799000Y-99695000D03*
%TO.P,U3,7*%
%TO.N,Net-(D4-Pad1)*%
X50419000Y-94615000D03*
%TO.P,U3,3*%
%TO.N,Net-(J1-Pad7)*%
X42799000Y-97155000D03*
%TO.P,U3,6*%
%TO.N,Net-(C5-Pad2)*%
X50419000Y-97155000D03*
%TO.P,U3,2*%
%TO.N,Net-(J1-Pad6)*%
X42799000Y-94615000D03*
%TO.P,U3,5*%
%TO.N,Net-(D7-Pad1)*%
X50419000Y-99695000D03*
D13*
%TO.P,U3,1*%
%TO.N,+12V*%
X42799000Y-92075000D03*
%TD*%
D12*
%TO.P,U2,8*%
%TO.N,Net-(C6-Pad1)*%
X50927000Y-71247000D03*
%TO.P,U2,4*%
%TO.N,GND*%
X43307000Y-78867000D03*
%TO.P,U2,7*%
%TO.N,Net-(D5-Pad1)*%
X50927000Y-73787000D03*
%TO.P,U2,3*%
%TO.N,Net-(J1-Pad5)*%
X43307000Y-76327000D03*
%TO.P,U2,6*%
%TO.N,Net-(C6-Pad2)*%
X50927000Y-76327000D03*
%TO.P,U2,2*%
%TO.N,Net-(J1-Pad4)*%
X43307000Y-73787000D03*
%TO.P,U2,5*%
%TO.N,Net-(D6-Pad1)*%
X50927000Y-78867000D03*
D13*
%TO.P,U2,1*%
%TO.N,+12V*%
X43307000Y-71247000D03*
%TD*%
D12*
%TO.P,U1,8*%
%TO.N,Net-(C7-Pad1)*%
X51562000Y-51816000D03*
%TO.P,U1,4*%
%TO.N,GND*%
X43942000Y-59436000D03*
%TO.P,U1,7*%
%TO.N,Net-(D9-Pad1)*%
X51562000Y-54356000D03*
%TO.P,U1,3*%
%TO.N,Net-(J1-Pad3)*%
X43942000Y-56896000D03*
%TO.P,U1,6*%
%TO.N,Net-(C7-Pad2)*%
X51562000Y-56896000D03*
%TO.P,U1,2*%
%TO.N,Net-(J1-Pad2)*%
X43942000Y-54356000D03*
%TO.P,U1,5*%
%TO.N,Net-(D8-Pad1)*%
X51562000Y-59436000D03*
D13*
%TO.P,U1,1*%
%TO.N,+12V*%
X43942000Y-51816000D03*
%TD*%
D14*
%TO.P,Q6,3*%
%TO.N,GND*%
X92202000Y-97155000D03*
%TO.P,Q6,2*%
%TO.N,Net-(D7-Pad2)*%
X92202000Y-94615000D03*
D15*
%TO.P,Q6,1*%
%TO.N,Net-(J4-Pad1)*%
X92202000Y-92075000D03*
%TD*%
D14*
%TO.P,Q5,3*%
%TO.N,Net-(J4-Pad1)*%
X77851000Y-97282000D03*
%TO.P,Q5,2*%
%TO.N,Net-(D4-Pad2)*%
X77851000Y-94742000D03*
D15*
%TO.P,Q5,1*%
%TO.N,+12V*%
X77851000Y-92202000D03*
%TD*%
D14*
%TO.P,Q4,3*%
%TO.N,GND*%
X78613000Y-50292000D03*
%TO.P,Q4,2*%
%TO.N,Net-(D8-Pad2)*%
X78613000Y-47752000D03*
D15*
%TO.P,Q4,1*%
%TO.N,Net-(J4-Pad3)*%
X78613000Y-45212000D03*
%TD*%
D14*
%TO.P,Q3,3*%
%TO.N,Net-(J4-Pad3)*%
X92837000Y-51054000D03*
%TO.P,Q3,2*%
%TO.N,Net-(D9-Pad2)*%
X92837000Y-48514000D03*
D15*
%TO.P,Q3,1*%
%TO.N,+12V*%
X92837000Y-45974000D03*
%TD*%
D14*
%TO.P,Q2,3*%
%TO.N,GND*%
X78105000Y-81280000D03*
%TO.P,Q2,2*%
%TO.N,Net-(D6-Pad2)*%
X78105000Y-78740000D03*
D15*
%TO.P,Q2,1*%
%TO.N,Net-(J4-Pad2)*%
X78105000Y-76200000D03*
%TD*%
D14*
%TO.P,Q1,3*%
%TO.N,Net-(J4-Pad2)*%
X78359000Y-66548000D03*
%TO.P,Q1,2*%
%TO.N,Net-(D5-Pad2)*%
X78359000Y-64008000D03*
D15*
%TO.P,Q1,1*%
%TO.N,+12V*%
X78359000Y-61468000D03*
%TD*%
D16*
%TO.P,J4,3*%
%TO.N,Net-(J4-Pad3)*%
X102870000Y-65024000D03*
%TO.P,J4,2*%
%TO.N,Net-(J4-Pad2)*%
X102870000Y-70104000D03*
D17*
%TO.P,J4,1*%
%TO.N,Net-(J4-Pad1)*%
X102870000Y-75184000D03*
%TD*%
D16*
%TO.P,J3,2*%
%TO.N,GND*%
X17272000Y-49657000D03*
D17*
%TO.P,J3,1*%
%TO.N,+12V*%
X17272000Y-44577000D03*
%TD*%
D18*
%TO.P,J2,4*%
%TO.N,Net-(J2-Pad4)*%
X15468600Y-22225000D03*
%TO.P,J2,3*%
%TO.N,Net-(J2-Pad3)*%
X15468600Y-24765000D03*
%TO.P,J2,2*%
%TO.N,Net-(J2-Pad2)*%
X15468600Y-27305000D03*
D19*
%TO.P,J2,1*%
%TO.N,+3V3*%
X15468600Y-29845000D03*
%TD*%
D18*
%TO.P,J1,7*%
%TO.N,Net-(J1-Pad7)*%
X15748000Y-81026000D03*
%TO.P,J1,6*%
%TO.N,Net-(J1-Pad6)*%
X15748000Y-78486000D03*
%TO.P,J1,5*%
%TO.N,Net-(J1-Pad5)*%
X15748000Y-75946000D03*
%TO.P,J1,4*%
%TO.N,Net-(J1-Pad4)*%
X15748000Y-73406000D03*
%TO.P,J1,3*%
%TO.N,Net-(J1-Pad3)*%
X15748000Y-70866000D03*
%TO.P,J1,2*%
%TO.N,Net-(J1-Pad2)*%
X15748000Y-68326000D03*
D19*
%TO.P,J1,1*%
%TO.N,Net-(J1-Pad1)*%
X15748000Y-65786000D03*
%TD*%
D20*
%TO.P,D9,2*%
%TO.N,Net-(D9-Pad2)*%
X70358000Y-43688000D03*
D21*
%TO.P,D9,1*%
%TO.N,Net-(D9-Pad1)*%
X62738000Y-43688000D03*
%TD*%
D20*
%TO.P,D8,2*%
%TO.N,Net-(D8-Pad2)*%
X68834000Y-57531000D03*
D21*
%TO.P,D8,1*%
%TO.N,Net-(D8-Pad1)*%
X61214000Y-57531000D03*
%TD*%
D20*
%TO.P,D7,2*%
%TO.N,Net-(D7-Pad2)*%
X68834000Y-107442000D03*
D21*
%TO.P,D7,1*%
%TO.N,Net-(D7-Pad1)*%
X61214000Y-107442000D03*
%TD*%
D20*
%TO.P,D6,2*%
%TO.N,Net-(D6-Pad2)*%
X66548000Y-82550000D03*
D21*
%TO.P,D6,1*%
%TO.N,Net-(D6-Pad1)*%
X58928000Y-82550000D03*
%TD*%
D20*
%TO.P,D5,2*%
%TO.N,Net-(D5-Pad2)*%
X69596000Y-68453000D03*
D21*
%TO.P,D5,1*%
%TO.N,Net-(D5-Pad1)*%
X61976000Y-68453000D03*
%TD*%
D20*
%TO.P,D4,2*%
%TO.N,Net-(D4-Pad2)*%
X69342000Y-94996000D03*
D21*
%TO.P,D4,1*%
%TO.N,Net-(D4-Pad1)*%
X61722000Y-94996000D03*
%TD*%
D20*
%TO.P,D3,2*%
%TO.N,+12V*%
X42926000Y-86487000D03*
D21*
%TO.P,D3,1*%
%TO.N,Net-(C5-Pad1)*%
X50546000Y-86487000D03*
%TD*%
D20*
%TO.P,D2,2*%
%TO.N,+12V*%
X43815000Y-47879000D03*
D21*
%TO.P,D2,1*%
%TO.N,Net-(C7-Pad1)*%
X51435000Y-47879000D03*
%TD*%
D20*
%TO.P,D1,2*%
%TO.N,+12V*%
X43434000Y-66675000D03*
D21*
%TO.P,D1,1*%
%TO.N,Net-(C6-Pad1)*%
X51054000Y-66675000D03*
%TD*%
D22*
%TO.P,C8,2*%
%TO.N,GND*%
X28829000Y-49831000D03*
D23*
%TO.P,C8,1*%
%TO.N,+12V*%
X28829000Y-44831000D03*
%TD*%
D24*
%TO.P,C7,2*%
%TO.N,Net-(C7-Pad2)*%
X58547000Y-47585000D03*
D21*
%TO.P,C7,1*%
%TO.N,Net-(C7-Pad1)*%
X58547000Y-45085000D03*
%TD*%
D24*
%TO.P,C6,2*%
%TO.N,Net-(C6-Pad2)*%
X57150000Y-69556000D03*
D21*
%TO.P,C6,1*%
%TO.N,Net-(C6-Pad1)*%
X57150000Y-67056000D03*
%TD*%
D24*
%TO.P,C5,2*%
%TO.N,Net-(C5-Pad2)*%
X56007000Y-90892000D03*
D21*
%TO.P,C5,1*%
%TO.N,Net-(C5-Pad1)*%
X56007000Y-88392000D03*
%TD*%
D24*
%TO.P,C4,2*%
%TO.N,GND*%
X35814000Y-88479000D03*
D21*
%TO.P,C4,1*%
%TO.N,+12V*%
X35814000Y-85979000D03*
%TD*%
D24*
%TO.P,C3,2*%
%TO.N,GND*%
X36195000Y-69048000D03*
D21*
%TO.P,C3,1*%
%TO.N,+12V*%
X36195000Y-66548000D03*
%TD*%
D24*
%TO.P,C2,2*%
%TO.N,GND*%
X38227000Y-51776000D03*
D21*
%TO.P,C2,1*%
%TO.N,+12V*%
X38227000Y-49276000D03*
%TD*%
D24*
%TO.P,C1,2*%
%TO.N,GND*%
X18135600Y-37602800D03*
D21*
%TO.P,C1,1*%
%TO.N,+3V3*%
X18135600Y-35102800D03*
%TD*%
D25*
%TO.N,GND*%
X81788000Y-33528000D03*
X56896000Y-18288000D03*
X60579000Y-29210000D03*
X46228000Y-24892000D03*
X34798000Y-30226000D03*
X21209000Y-27813000D03*
X23622000Y-40259000D03*
X39878000Y-42799000D03*
X81915000Y-16256000D03*
X102362000Y-18415000D03*
X105410000Y-34163000D03*
X91821000Y-37846000D03*
X85598000Y-58293000D03*
X91313000Y-64262000D03*
X92329000Y-76200000D03*
X86868000Y-79248000D03*
X85344000Y-88265000D03*
X97282000Y-86868000D03*
X103759000Y-89535000D03*
X101727000Y-96139000D03*
X90170000Y-104394000D03*
X81661000Y-103886000D03*
X59182000Y-98298000D03*
X52832000Y-84709000D03*
X46863000Y-93345000D03*
X46736000Y-98425000D03*
X57277000Y-104521000D03*
X33401000Y-101473000D03*
X30988000Y-93980000D03*
X38100000Y-91821000D03*
X37973000Y-82296000D03*
X38227000Y-72009000D03*
X38227000Y-62357000D03*
X30607000Y-59436000D03*
X22860000Y-56007000D03*
X26797000Y-69723000D03*
X27051000Y-80772000D03*
X35052000Y-18923000D03*
X74422000Y-43561000D03*
X67437000Y-48006000D03*
X56896000Y-40894000D03*
X55118000Y-50673000D03*
X73025000Y-72898000D03*
X66167000Y-73025000D03*
X57404000Y-75438000D03*
X76581000Y-86106000D03*
X83185000Y-99822000D03*
X71120000Y-90170000D03*
%TO.N,Net-(J2-Pad4)*%
X28067000Y-15367000D03*
%TO.N,Net-(J2-Pad3)*%
X27940000Y-19050000D03*
%TO.N,Net-(J2-Pad2)*%
X28067000Y-23368000D03*
%TO.N,Net-(J4-Pad2)*%
X100203000Y-26289000D03*
%TO.N,Net-(J4-Pad1)*%
X98044000Y-29083000D03*
%TO.N,Net-(R17-Pad1)*%
X82677000Y-24130000D03*
X90678000Y-22733000D03*
%TO.N,Net-(R18-Pad1)*%
X89408000Y-26924000D03*
X79756000Y-27178000D03*
%TD*%
D26*
%TO.N,+3V3*%
X18135600Y-35102800D02*
X23622000Y-35102800D01*
X36372800Y-22352000D02*
X42131000Y-22352000D01*
X23622000Y-35102800D02*
X36372800Y-22352000D01*
%TO.N,Net-(C5-Pad2)*%
X50419000Y-97155000D02*
X52959000Y-97155000D01*
X56007000Y-94107000D02*
X56007000Y-90892000D01*
X52959000Y-97155000D02*
X56007000Y-94107000D01*
%TO.N,Net-(C6-Pad2)*%
X50927000Y-76327000D02*
X52832000Y-76327000D01*
X57150000Y-72009000D02*
X57150000Y-69556000D01*
X52832000Y-76327000D02*
X57150000Y-72009000D01*
%TO.N,Net-(C6-Pad1)*%
X56769000Y-66675000D02*
X57150000Y-67056000D01*
X51054000Y-66675000D02*
X56769000Y-66675000D01*
%TO.N,Net-(C7-Pad2)*%
X51562000Y-56896000D02*
X52959000Y-56896000D01*
X58547000Y-51308000D02*
X58547000Y-47585000D01*
X52959000Y-56896000D02*
X58547000Y-51308000D01*
%TO.N,Net-(J1-Pad7)*%
X31877000Y-97155000D02*
X15748000Y-81026000D01*
X42799000Y-97155000D02*
X31877000Y-97155000D01*
%TO.N,Net-(J1-Pad6)*%
X42799000Y-94615000D02*
X34163000Y-94615000D01*
X18034000Y-78486000D02*
X15748000Y-78486000D01*
X34163000Y-94615000D02*
X18034000Y-78486000D01*
%TO.N,Net-(J1-Pad5)*%
X16129000Y-76327000D02*
X15748000Y-75946000D01*
X43307000Y-76327000D02*
X16129000Y-76327000D01*
%TO.N,Net-(J1-Pad4)*%
X43307000Y-73787000D02*
X31623000Y-73787000D01*
X31242000Y-73406000D02*
X15748000Y-73406000D01*
X31623000Y-73787000D02*
X31242000Y-73406000D01*
%TO.N,Net-(J1-Pad3)*%
X29718000Y-56896000D02*
X15748000Y-70866000D01*
X43942000Y-56896000D02*
X29718000Y-56896000D01*
%TO.N,Net-(J1-Pad2)*%
X29718000Y-54356000D02*
X15748000Y-68326000D01*
X43942000Y-54356000D02*
X29718000Y-54356000D01*
%TO.N,Net-(J2-Pad4)*%
X22326600Y-15367000D02*
X15468600Y-22225000D01*
X28067000Y-15367000D02*
X22326600Y-15367000D01*
%TO.N,Net-(J2-Pad3)*%
X21183600Y-19050000D02*
X27940000Y-19050000D01*
X15468600Y-24765000D02*
X21183600Y-19050000D01*
%TO.N,Net-(J2-Pad2)*%
X19405600Y-23368000D02*
X28067000Y-23368000D01*
X15468600Y-27305000D02*
X19405600Y-23368000D01*
%TO.N,Net-(J4-Pad2)*%
X100203000Y-67437000D02*
X102870000Y-70104000D01*
X100203000Y-26289000D02*
X100203000Y-67437000D01*
%TO.N,Net-(J4-Pad1)*%
X99695000Y-75184000D02*
X102870000Y-75184000D01*
X98044000Y-73533000D02*
X99695000Y-75184000D01*
X98044000Y-29083000D02*
X98044000Y-73533000D01*
%TO.N,Net-(R16-Pad2)*%
X41095999Y-25927001D02*
X41095999Y-25960001D01*
X42131000Y-24892000D02*
X41095999Y-25927001D01*
X41095999Y-25960001D02*
X40259000Y-26797000D01*
X40259000Y-28100000D02*
X42131000Y-29972000D01*
X40259000Y-26797000D02*
X40259000Y-28100000D01*
X50071000Y-32512000D02*
X47752000Y-32512000D01*
X45212000Y-29972000D02*
X42131000Y-29972000D01*
X47752000Y-32512000D02*
X45212000Y-29972000D01*
%TO.N,Net-(R17-Pad1)*%
X84074000Y-22733000D02*
X82677000Y-24130000D01*
X90678000Y-22733000D02*
X84074000Y-22733000D01*
X43166001Y-33547001D02*
X61702999Y-33547001D01*
X42131000Y-32512000D02*
X43166001Y-33547001D01*
X61702999Y-33547001D02*
X70612000Y-24638000D01*
X82169000Y-24638000D02*
X82677000Y-24130000D01*
X70612000Y-24638000D02*
X82169000Y-24638000D01*
%TO.N,Net-(R18-Pad1)*%
X80010000Y-26924000D02*
X79756000Y-27178000D01*
X89408000Y-26924000D02*
X80010000Y-26924000D01*
%TD*%
D27*
%TO.N,GND*%
X109728000Y-21645381D02*
X109728000Y-101547394D01*
X101547394Y-109728000D01*
X21645381Y-109728000D01*
X18779810Y-106642000D01*
X59775928Y-106642000D01*
X59775928Y-108242000D01*
X59788188Y-108366482D01*
X59824498Y-108486180D01*
X59883463Y-108596494D01*
X59962815Y-108693185D01*
X60059506Y-108772537D01*
X60169820Y-108831502D01*
X60289518Y-108867812D01*
X60414000Y-108880072D01*
X62014000Y-108880072D01*
X62138482Y-108867812D01*
X62258180Y-108831502D01*
X62368494Y-108772537D01*
X62465185Y-108693185D01*
X62544537Y-108596494D01*
X62603502Y-108486180D01*
X62639812Y-108366482D01*
X62652072Y-108242000D01*
X62652072Y-107300665D01*
X67399000Y-107300665D01*
X67399000Y-107583335D01*
X67454147Y-107860574D01*
X67562320Y-108121727D01*
X67719363Y-108356759D01*
X67919241Y-108556637D01*
X68154273Y-108713680D01*
X68415426Y-108821853D01*
X68692665Y-108877000D01*
X68975335Y-108877000D01*
X69252574Y-108821853D01*
X69513727Y-108713680D01*
X69748759Y-108556637D01*
X69948637Y-108356759D01*
X70105680Y-108121727D01*
X70213853Y-107860574D01*
X70269000Y-107583335D01*
X70269000Y-107300665D01*
X70213853Y-107023426D01*
X70105680Y-106762273D01*
X69948637Y-106527241D01*
X69748759Y-106327363D01*
X69513727Y-106170320D01*
X69252574Y-106062147D01*
X68975335Y-106007000D01*
X68692665Y-106007000D01*
X68415426Y-106062147D01*
X68154273Y-106170320D01*
X67919241Y-106327363D01*
X67719363Y-106527241D01*
X67562320Y-106762273D01*
X67454147Y-107023426D01*
X67399000Y-107300665D01*
X62652072Y-107300665D01*
X62652072Y-106642000D01*
X62639812Y-106517518D01*
X62603502Y-106397820D01*
X62544537Y-106287506D01*
X62465185Y-106190815D01*
X62368494Y-106111463D01*
X62258180Y-106052498D01*
X62138482Y-106016188D01*
X62014000Y-106003928D01*
X60414000Y-106003928D01*
X60289518Y-106016188D01*
X60169820Y-106052498D01*
X60059506Y-106111463D01*
X59962815Y-106190815D01*
X59883463Y-106287506D01*
X59824498Y-106397820D01*
X59788188Y-106517518D01*
X59775928Y-106642000D01*
X18779810Y-106642000D01*
X13462000Y-100915128D01*
X13462000Y-100044039D01*
X41007096Y-100044039D01*
X41024633Y-100126818D01*
X41135285Y-100386646D01*
X41294500Y-100619895D01*
X41496161Y-100817601D01*
X41732517Y-100972166D01*
X41994486Y-101077650D01*
X42272000Y-101130000D01*
X42672000Y-101130000D01*
X42672000Y-99822000D01*
X42926000Y-99822000D01*
X42926000Y-101130000D01*
X43326000Y-101130000D01*
X43603514Y-101077650D01*
X43865483Y-100972166D01*
X44101839Y-100817601D01*
X44303500Y-100619895D01*
X44462715Y-100386646D01*
X44573367Y-100126818D01*
X44590904Y-100044039D01*
X44468915Y-99822000D01*
X42926000Y-99822000D01*
X42672000Y-99822000D01*
X41129085Y-99822000D01*
X41007096Y-100044039D01*
X13462000Y-100044039D01*
X13462000Y-64936000D01*
X14259928Y-64936000D01*
X14259928Y-66636000D01*
X14272188Y-66760482D01*
X14308498Y-66880180D01*
X14367463Y-66990494D01*
X14446815Y-67087185D01*
X14543506Y-67166537D01*
X14653820Y-67225502D01*
X14726380Y-67247513D01*
X14594525Y-67379368D01*
X14432010Y-67622589D01*
X14320068Y-67892842D01*
X14263000Y-68179740D01*
X14263000Y-68472260D01*
X14320068Y-68759158D01*
X14432010Y-69029411D01*
X14594525Y-69272632D01*
X14801368Y-69479475D01*
X14975760Y-69596000D01*
X14801368Y-69712525D01*
X14594525Y-69919368D01*
X14432010Y-70162589D01*
X14320068Y-70432842D01*
X14263000Y-70719740D01*
X14263000Y-71012260D01*
X14320068Y-71299158D01*
X14432010Y-71569411D01*
X14594525Y-71812632D01*
X14801368Y-72019475D01*
X14975760Y-72136000D01*
X14801368Y-72252525D01*
X14594525Y-72459368D01*
X14432010Y-72702589D01*
X14320068Y-72972842D01*
X14263000Y-73259740D01*
X14263000Y-73552260D01*
X14320068Y-73839158D01*
X14432010Y-74109411D01*
X14594525Y-74352632D01*
X14801368Y-74559475D01*
X14975760Y-74676000D01*
X14801368Y-74792525D01*
X14594525Y-74999368D01*
X14432010Y-75242589D01*
X14320068Y-75512842D01*
X14263000Y-75799740D01*
X14263000Y-76092260D01*
X14320068Y-76379158D01*
X14432010Y-76649411D01*
X14594525Y-76892632D01*
X14801368Y-77099475D01*
X14975760Y-77216000D01*
X14801368Y-77332525D01*
X14594525Y-77539368D01*
X14432010Y-77782589D01*
X14320068Y-78052842D01*
X14263000Y-78339740D01*
X14263000Y-78632260D01*
X14320068Y-78919158D01*
X14432010Y-79189411D01*
X14594525Y-79432632D01*
X14801368Y-79639475D01*
X14975760Y-79756000D01*
X14801368Y-79872525D01*
X14594525Y-80079368D01*
X14432010Y-80322589D01*
X14320068Y-80592842D01*
X14263000Y-80879740D01*
X14263000Y-81172260D01*
X14320068Y-81459158D01*
X14432010Y-81729411D01*
X14594525Y-81972632D01*
X14801368Y-82179475D01*
X15044589Y-82341990D01*
X15314842Y-82453932D01*
X15601740Y-82511000D01*
X15894260Y-82511000D01*
X15966961Y-82496539D01*
X31220470Y-97750049D01*
X31248183Y-97783817D01*
X31281951Y-97811530D01*
X31281953Y-97811532D01*
X31382941Y-97894411D01*
X31536686Y-97976589D01*
X31686131Y-98021923D01*
X31703510Y-98027195D01*
X31833523Y-98040000D01*
X31833531Y-98040000D01*
X31877000Y-98044281D01*
X31920469Y-98040000D01*
X41268922Y-98040000D01*
X41379392Y-98174608D01*
X41597899Y-98353932D01*
X41725741Y-98422265D01*
X41496161Y-98572399D01*
X41294500Y-98770105D01*
X41135285Y-99003354D01*
X41024633Y-99263182D01*
X41007096Y-99345961D01*
X41129085Y-99568000D01*
X42672000Y-99568000D01*
X42672000Y-99548000D01*
X42926000Y-99548000D01*
X42926000Y-99568000D01*
X44468915Y-99568000D01*
X44590904Y-99345961D01*
X44573367Y-99263182D01*
X44462715Y-99003354D01*
X44303500Y-98770105D01*
X44101839Y-98572399D01*
X43872259Y-98422265D01*
X44000101Y-98353932D01*
X44218608Y-98174608D01*
X44397932Y-97956101D01*
X44531182Y-97706808D01*
X44613236Y-97436309D01*
X44640943Y-97155000D01*
X44613236Y-96873691D01*
X44531182Y-96603192D01*
X44397932Y-96353899D01*
X44218608Y-96135392D01*
X44000101Y-95956068D01*
X43867142Y-95885000D01*
X44000101Y-95813932D01*
X44218608Y-95634608D01*
X44397932Y-95416101D01*
X44531182Y-95166808D01*
X44613236Y-94896309D01*
X44640943Y-94615000D01*
X44613236Y-94333691D01*
X44531182Y-94063192D01*
X44397932Y-93813899D01*
X44218608Y-93595392D01*
X44105518Y-93502581D01*
X44123482Y-93500812D01*
X44243180Y-93464502D01*
X44353494Y-93405537D01*
X44450185Y-93326185D01*
X44529537Y-93229494D01*
X44588502Y-93119180D01*
X44624812Y-92999482D01*
X44637072Y-92875000D01*
X44637072Y-92075000D01*
X48577057Y-92075000D01*
X48604764Y-92356309D01*
X48686818Y-92626808D01*
X48820068Y-92876101D01*
X48999392Y-93094608D01*
X49217899Y-93273932D01*
X49350858Y-93345000D01*
X49217899Y-93416068D01*
X48999392Y-93595392D01*
X48820068Y-93813899D01*
X48686818Y-94063192D01*
X48604764Y-94333691D01*
X48577057Y-94615000D01*
X48604764Y-94896309D01*
X48686818Y-95166808D01*
X48820068Y-95416101D01*
X48999392Y-95634608D01*
X49217899Y-95813932D01*
X49350858Y-95885000D01*
X49217899Y-95956068D01*
X48999392Y-96135392D01*
X48820068Y-96353899D01*
X48686818Y-96603192D01*
X48604764Y-96873691D01*
X48577057Y-97155000D01*
X48604764Y-97436309D01*
X48686818Y-97706808D01*
X48820068Y-97956101D01*
X48999392Y-98174608D01*
X49217899Y-98353932D01*
X49350858Y-98425000D01*
X49217899Y-98496068D01*
X48999392Y-98675392D01*
X48820068Y-98893899D01*
X48686818Y-99143192D01*
X48604764Y-99413691D01*
X48577057Y-99695000D01*
X48604764Y-99976309D01*
X48686818Y-100246808D01*
X48820068Y-100496101D01*
X48999392Y-100714608D01*
X49217899Y-100893932D01*
X49467192Y-101027182D01*
X49737691Y-101109236D01*
X49948508Y-101130000D01*
X50889492Y-101130000D01*
X51100309Y-101109236D01*
X51370808Y-101027182D01*
X51620101Y-100893932D01*
X51838608Y-100714608D01*
X52017932Y-100496101D01*
X52151182Y-100246808D01*
X52233236Y-99976309D01*
X52260943Y-99695000D01*
X52233236Y-99413691D01*
X52151182Y-99143192D01*
X52017932Y-98893899D01*
X51838608Y-98675392D01*
X51620101Y-98496068D01*
X51487142Y-98425000D01*
X51620101Y-98353932D01*
X51838608Y-98174608D01*
X51949078Y-98040000D01*
X52915531Y-98040000D01*
X52959000Y-98044281D01*
X53002469Y-98040000D01*
X53002477Y-98040000D01*
X53132490Y-98027195D01*
X53299313Y-97976589D01*
X53453059Y-97894411D01*
X53587817Y-97783817D01*
X53615534Y-97750044D01*
X56602050Y-94763529D01*
X56635817Y-94735817D01*
X56746411Y-94601059D01*
X56828589Y-94447313D01*
X56879195Y-94280490D01*
X56887516Y-94196000D01*
X60283928Y-94196000D01*
X60283928Y-95796000D01*
X60296188Y-95920482D01*
X60332498Y-96040180D01*
X60391463Y-96150494D01*
X60470815Y-96247185D01*
X60567506Y-96326537D01*
X60677820Y-96385502D01*
X60797518Y-96421812D01*
X60922000Y-96434072D01*
X62522000Y-96434072D01*
X62646482Y-96421812D01*
X62766180Y-96385502D01*
X62876494Y-96326537D01*
X62973185Y-96247185D01*
X63052537Y-96150494D01*
X63111502Y-96040180D01*
X63147812Y-95920482D01*
X63160072Y-95796000D01*
X63160072Y-94854665D01*
X67907000Y-94854665D01*
X67907000Y-95137335D01*
X67962147Y-95414574D01*
X68070320Y-95675727D01*
X68227363Y-95910759D01*
X68427241Y-96110637D01*
X68662273Y-96267680D01*
X68923426Y-96375853D01*
X69200665Y-96431000D01*
X69483335Y-96431000D01*
X69760574Y-96375853D01*
X70021727Y-96267680D01*
X70256759Y-96110637D01*
X70456637Y-95910759D01*
X70613680Y-95675727D01*
X70721853Y-95414574D01*
X70777000Y-95137335D01*
X70777000Y-94854665D01*
X70754590Y-94742000D01*
X76208319Y-94742000D01*
X76238970Y-95053204D01*
X76329745Y-95352449D01*
X76477155Y-95628235D01*
X76675537Y-95869963D01*
X76848609Y-96012000D01*
X76675537Y-96154037D01*
X76477155Y-96395765D01*
X76329745Y-96671551D01*
X76238970Y-96970796D01*
X76208319Y-97282000D01*
X76238970Y-97593204D01*
X76329745Y-97892449D01*
X76477155Y-98168235D01*
X76675537Y-98409963D01*
X76917265Y-98608345D01*
X77193051Y-98755755D01*
X77492296Y-98846530D01*
X77725514Y-98869500D01*
X77976486Y-98869500D01*
X78209704Y-98846530D01*
X78508949Y-98755755D01*
X78784735Y-98608345D01*
X79026463Y-98409963D01*
X79224845Y-98168235D01*
X79372255Y-97892449D01*
X79463030Y-97593204D01*
X79469454Y-97527980D01*
X90611437Y-97527980D01*
X90682429Y-97746094D01*
X90826031Y-98021923D01*
X91020685Y-98264437D01*
X91258911Y-98464316D01*
X91531554Y-98613879D01*
X91828137Y-98707378D01*
X92075000Y-98580570D01*
X92075000Y-97282000D01*
X92329000Y-97282000D01*
X92329000Y-98580570D01*
X92575863Y-98707378D01*
X92872446Y-98613879D01*
X93145089Y-98464316D01*
X93383315Y-98264437D01*
X93577969Y-98021923D01*
X93721571Y-97746094D01*
X93792563Y-97527980D01*
X93672594Y-97282000D01*
X92329000Y-97282000D01*
X92075000Y-97282000D01*
X90731406Y-97282000D01*
X90611437Y-97527980D01*
X79469454Y-97527980D01*
X79493681Y-97282000D01*
X79463030Y-96970796D01*
X79372255Y-96671551D01*
X79224845Y-96395765D01*
X79026463Y-96154037D01*
X78853391Y-96012000D01*
X79026463Y-95869963D01*
X79224845Y-95628235D01*
X79372255Y-95352449D01*
X79463030Y-95053204D01*
X79493681Y-94742000D01*
X79481173Y-94615000D01*
X90559319Y-94615000D01*
X90589970Y-94926204D01*
X90680745Y-95225449D01*
X90828155Y-95501235D01*
X91026537Y-95742963D01*
X91205899Y-95890163D01*
X91020685Y-96045563D01*
X90826031Y-96288077D01*
X90682429Y-96563906D01*
X90611437Y-96782020D01*
X90731406Y-97028000D01*
X92075000Y-97028000D01*
X92075000Y-97008000D01*
X92329000Y-97008000D01*
X92329000Y-97028000D01*
X93672594Y-97028000D01*
X93792563Y-96782020D01*
X93721571Y-96563906D01*
X93577969Y-96288077D01*
X93383315Y-96045563D01*
X93198101Y-95890163D01*
X93377463Y-95742963D01*
X93575845Y-95501235D01*
X93723255Y-95225449D01*
X93814030Y-94926204D01*
X93844681Y-94615000D01*
X93814030Y-94303796D01*
X93723255Y-94004551D01*
X93575845Y-93728765D01*
X93472554Y-93602905D01*
X93556494Y-93558037D01*
X93653185Y-93478685D01*
X93732537Y-93381994D01*
X93791502Y-93271680D01*
X93827812Y-93151982D01*
X93840072Y-93027500D01*
X93840072Y-91122500D01*
X93827812Y-90998018D01*
X93791502Y-90878320D01*
X93732537Y-90768006D01*
X93653185Y-90671315D01*
X93556494Y-90591963D01*
X93446180Y-90532998D01*
X93326482Y-90496688D01*
X93202000Y-90484428D01*
X91202000Y-90484428D01*
X91077518Y-90496688D01*
X90957820Y-90532998D01*
X90847506Y-90591963D01*
X90750815Y-90671315D01*
X90671463Y-90768006D01*
X90612498Y-90878320D01*
X90576188Y-90998018D01*
X90563928Y-91122500D01*
X90563928Y-93027500D01*
X90576188Y-93151982D01*
X90612498Y-93271680D01*
X90671463Y-93381994D01*
X90750815Y-93478685D01*
X90847506Y-93558037D01*
X90931446Y-93602905D01*
X90828155Y-93728765D01*
X90680745Y-94004551D01*
X90589970Y-94303796D01*
X90559319Y-94615000D01*
X79481173Y-94615000D01*
X79463030Y-94430796D01*
X79372255Y-94131551D01*
X79224845Y-93855765D01*
X79121554Y-93729905D01*
X79205494Y-93685037D01*
X79302185Y-93605685D01*
X79381537Y-93508994D01*
X79440502Y-93398680D01*
X79476812Y-93278982D01*
X79489072Y-93154500D01*
X79489072Y-91249500D01*
X79476812Y-91125018D01*
X79440502Y-91005320D01*
X79381537Y-90895006D01*
X79302185Y-90798315D01*
X79205494Y-90718963D01*
X79095180Y-90659998D01*
X78975482Y-90623688D01*
X78851000Y-90611428D01*
X76851000Y-90611428D01*
X76726518Y-90623688D01*
X76606820Y-90659998D01*
X76496506Y-90718963D01*
X76399815Y-90798315D01*
X76320463Y-90895006D01*
X76261498Y-91005320D01*
X76225188Y-91125018D01*
X76212928Y-91249500D01*
X76212928Y-93154500D01*
X76225188Y-93278982D01*
X76261498Y-93398680D01*
X76320463Y-93508994D01*
X76399815Y-93605685D01*
X76496506Y-93685037D01*
X76580446Y-93729905D01*
X76477155Y-93855765D01*
X76329745Y-94131551D01*
X76238970Y-94430796D01*
X76208319Y-94742000D01*
X70754590Y-94742000D01*
X70721853Y-94577426D01*
X70613680Y-94316273D01*
X70456637Y-94081241D01*
X70256759Y-93881363D01*
X70021727Y-93724320D01*
X69760574Y-93616147D01*
X69483335Y-93561000D01*
X69200665Y-93561000D01*
X68923426Y-93616147D01*
X68662273Y-93724320D01*
X68427241Y-93881363D01*
X68227363Y-94081241D01*
X68070320Y-94316273D01*
X67962147Y-94577426D01*
X67907000Y-94854665D01*
X63160072Y-94854665D01*
X63160072Y-94196000D01*
X63147812Y-94071518D01*
X63111502Y-93951820D01*
X63052537Y-93841506D01*
X62973185Y-93744815D01*
X62876494Y-93665463D01*
X62766180Y-93606498D01*
X62646482Y-93570188D01*
X62522000Y-93557928D01*
X60922000Y-93557928D01*
X60797518Y-93570188D01*
X60677820Y-93606498D01*
X60567506Y-93665463D01*
X60470815Y-93744815D01*
X60391463Y-93841506D01*
X60332498Y-93951820D01*
X60296188Y-94071518D01*
X60283928Y-94196000D01*
X56887516Y-94196000D01*
X56892000Y-94150477D01*
X56892000Y-94150469D01*
X56896281Y-94107000D01*
X56892000Y-94063531D01*
X56892000Y-92026521D01*
X56921759Y-92006637D01*
X57121637Y-91806759D01*
X57278680Y-91571727D01*
X57386853Y-91310574D01*
X57442000Y-91033335D01*
X57442000Y-90750665D01*
X57386853Y-90473426D01*
X57278680Y-90212273D01*
X57121637Y-89977241D01*
X56955057Y-89810661D01*
X57051180Y-89781502D01*
X57161494Y-89722537D01*
X57258185Y-89643185D01*
X57337537Y-89546494D01*
X57396502Y-89436180D01*
X57432812Y-89316482D01*
X57445072Y-89192000D01*
X57445072Y-87592000D01*
X57432812Y-87467518D01*
X57396502Y-87347820D01*
X57337537Y-87237506D01*
X57258185Y-87140815D01*
X57161494Y-87061463D01*
X57051180Y-87002498D01*
X56931482Y-86966188D01*
X56807000Y-86953928D01*
X55207000Y-86953928D01*
X55082518Y-86966188D01*
X54962820Y-87002498D01*
X54852506Y-87061463D01*
X54755815Y-87140815D01*
X54676463Y-87237506D01*
X54617498Y-87347820D01*
X54581188Y-87467518D01*
X54568928Y-87592000D01*
X54568928Y-89192000D01*
X54581188Y-89316482D01*
X54617498Y-89436180D01*
X54676463Y-89546494D01*
X54755815Y-89643185D01*
X54852506Y-89722537D01*
X54962820Y-89781502D01*
X55058943Y-89810661D01*
X54892363Y-89977241D01*
X54735320Y-90212273D01*
X54627147Y-90473426D01*
X54572000Y-90750665D01*
X54572000Y-91033335D01*
X54627147Y-91310574D01*
X54735320Y-91571727D01*
X54892363Y-91806759D01*
X55092241Y-92006637D01*
X55122001Y-92026522D01*
X55122000Y-93740421D01*
X52592422Y-96270000D01*
X51949078Y-96270000D01*
X51838608Y-96135392D01*
X51620101Y-95956068D01*
X51487142Y-95885000D01*
X51620101Y-95813932D01*
X51838608Y-95634608D01*
X52017932Y-95416101D01*
X52151182Y-95166808D01*
X52233236Y-94896309D01*
X52260943Y-94615000D01*
X52233236Y-94333691D01*
X52151182Y-94063192D01*
X52017932Y-93813899D01*
X51838608Y-93595392D01*
X51620101Y-93416068D01*
X51487142Y-93345000D01*
X51620101Y-93273932D01*
X51838608Y-93094608D01*
X52017932Y-92876101D01*
X52151182Y-92626808D01*
X52233236Y-92356309D01*
X52260943Y-92075000D01*
X52233236Y-91793691D01*
X52151182Y-91523192D01*
X52017932Y-91273899D01*
X51838608Y-91055392D01*
X51620101Y-90876068D01*
X51370808Y-90742818D01*
X51100309Y-90660764D01*
X50889492Y-90640000D01*
X49948508Y-90640000D01*
X49737691Y-90660764D01*
X49467192Y-90742818D01*
X49217899Y-90876068D01*
X48999392Y-91055392D01*
X48820068Y-91273899D01*
X48686818Y-91523192D01*
X48604764Y-91793691D01*
X48577057Y-92075000D01*
X44637072Y-92075000D01*
X44637072Y-91275000D01*
X44624812Y-91150518D01*
X44588502Y-91030820D01*
X44529537Y-90920506D01*
X44450185Y-90823815D01*
X44353494Y-90744463D01*
X44243180Y-90685498D01*
X44123482Y-90649188D01*
X43999000Y-90636928D01*
X41599000Y-90636928D01*
X41474518Y-90649188D01*
X41354820Y-90685498D01*
X41244506Y-90744463D01*
X41147815Y-90823815D01*
X41068463Y-90920506D01*
X41009498Y-91030820D01*
X40973188Y-91150518D01*
X40960928Y-91275000D01*
X40960928Y-92875000D01*
X40973188Y-92999482D01*
X41009498Y-93119180D01*
X41068463Y-93229494D01*
X41147815Y-93326185D01*
X41244506Y-93405537D01*
X41354820Y-93464502D01*
X41474518Y-93500812D01*
X41492482Y-93502581D01*
X41379392Y-93595392D01*
X41268922Y-93730000D01*
X34529579Y-93730000D01*
X30271281Y-89471702D01*
X35000903Y-89471702D01*
X35072486Y-89715671D01*
X35327996Y-89836571D01*
X35602184Y-89905300D01*
X35884512Y-89919217D01*
X36164130Y-89877787D01*
X36430292Y-89782603D01*
X36555514Y-89715671D01*
X36627097Y-89471702D01*
X35814000Y-88658605D01*
X35000903Y-89471702D01*
X30271281Y-89471702D01*
X29349091Y-88549512D01*
X34373783Y-88549512D01*
X34415213Y-88829130D01*
X34510397Y-89095292D01*
X34577329Y-89220514D01*
X34821298Y-89292097D01*
X35634395Y-88479000D01*
X35993605Y-88479000D01*
X36806702Y-89292097D01*
X37050671Y-89220514D01*
X37171571Y-88965004D01*
X37240300Y-88690816D01*
X37254217Y-88408488D01*
X37212787Y-88128870D01*
X37117603Y-87862708D01*
X37050671Y-87737486D01*
X36806702Y-87665903D01*
X35993605Y-88479000D01*
X35634395Y-88479000D01*
X34821298Y-87665903D01*
X34577329Y-87737486D01*
X34456429Y-87992996D01*
X34387700Y-88267184D01*
X34373783Y-88549512D01*
X29349091Y-88549512D01*
X25978579Y-85179000D01*
X34375928Y-85179000D01*
X34375928Y-86779000D01*
X34388188Y-86903482D01*
X34424498Y-87023180D01*
X34483463Y-87133494D01*
X34562815Y-87230185D01*
X34659506Y-87309537D01*
X34769820Y-87368502D01*
X34889518Y-87404812D01*
X35014000Y-87417072D01*
X35021215Y-87417072D01*
X35000903Y-87486298D01*
X35814000Y-88299395D01*
X36627097Y-87486298D01*
X36606785Y-87417072D01*
X36614000Y-87417072D01*
X36738482Y-87404812D01*
X36858180Y-87368502D01*
X36968494Y-87309537D01*
X37065185Y-87230185D01*
X37144537Y-87133494D01*
X37203502Y-87023180D01*
X37239812Y-86903482D01*
X37252072Y-86779000D01*
X37252072Y-86345665D01*
X41491000Y-86345665D01*
X41491000Y-86628335D01*
X41546147Y-86905574D01*
X41654320Y-87166727D01*
X41811363Y-87401759D01*
X42011241Y-87601637D01*
X42246273Y-87758680D01*
X42507426Y-87866853D01*
X42784665Y-87922000D01*
X43067335Y-87922000D01*
X43344574Y-87866853D01*
X43605727Y-87758680D01*
X43840759Y-87601637D01*
X44040637Y-87401759D01*
X44197680Y-87166727D01*
X44305853Y-86905574D01*
X44361000Y-86628335D01*
X44361000Y-86345665D01*
X44305853Y-86068426D01*
X44197680Y-85807273D01*
X44117317Y-85687000D01*
X49107928Y-85687000D01*
X49107928Y-87287000D01*
X49120188Y-87411482D01*
X49156498Y-87531180D01*
X49215463Y-87641494D01*
X49294815Y-87738185D01*
X49391506Y-87817537D01*
X49501820Y-87876502D01*
X49621518Y-87912812D01*
X49746000Y-87925072D01*
X51346000Y-87925072D01*
X51470482Y-87912812D01*
X51590180Y-87876502D01*
X51700494Y-87817537D01*
X51797185Y-87738185D01*
X51876537Y-87641494D01*
X51935502Y-87531180D01*
X51971812Y-87411482D01*
X51984072Y-87287000D01*
X51984072Y-85687000D01*
X51971812Y-85562518D01*
X51935502Y-85442820D01*
X51876537Y-85332506D01*
X51797185Y-85235815D01*
X51700494Y-85156463D01*
X51590180Y-85097498D01*
X51470482Y-85061188D01*
X51346000Y-85048928D01*
X49746000Y-85048928D01*
X49621518Y-85061188D01*
X49501820Y-85097498D01*
X49391506Y-85156463D01*
X49294815Y-85235815D01*
X49215463Y-85332506D01*
X49156498Y-85442820D01*
X49120188Y-85562518D01*
X49107928Y-85687000D01*
X44117317Y-85687000D01*
X44040637Y-85572241D01*
X43840759Y-85372363D01*
X43605727Y-85215320D01*
X43344574Y-85107147D01*
X43067335Y-85052000D01*
X42784665Y-85052000D01*
X42507426Y-85107147D01*
X42246273Y-85215320D01*
X42011241Y-85372363D01*
X41811363Y-85572241D01*
X41654320Y-85807273D01*
X41546147Y-86068426D01*
X41491000Y-86345665D01*
X37252072Y-86345665D01*
X37252072Y-85179000D01*
X37239812Y-85054518D01*
X37203502Y-84934820D01*
X37144537Y-84824506D01*
X37065185Y-84727815D01*
X36968494Y-84648463D01*
X36858180Y-84589498D01*
X36738482Y-84553188D01*
X36614000Y-84540928D01*
X35014000Y-84540928D01*
X34889518Y-84553188D01*
X34769820Y-84589498D01*
X34659506Y-84648463D01*
X34562815Y-84727815D01*
X34483463Y-84824506D01*
X34424498Y-84934820D01*
X34388188Y-85054518D01*
X34375928Y-85179000D01*
X25978579Y-85179000D01*
X22549579Y-81750000D01*
X57489928Y-81750000D01*
X57489928Y-83350000D01*
X57502188Y-83474482D01*
X57538498Y-83594180D01*
X57597463Y-83704494D01*
X57676815Y-83801185D01*
X57773506Y-83880537D01*
X57883820Y-83939502D01*
X58003518Y-83975812D01*
X58128000Y-83988072D01*
X59728000Y-83988072D01*
X59852482Y-83975812D01*
X59972180Y-83939502D01*
X60082494Y-83880537D01*
X60179185Y-83801185D01*
X60258537Y-83704494D01*
X60317502Y-83594180D01*
X60353812Y-83474482D01*
X60366072Y-83350000D01*
X60366072Y-82408665D01*
X65113000Y-82408665D01*
X65113000Y-82691335D01*
X65168147Y-82968574D01*
X65276320Y-83229727D01*
X65433363Y-83464759D01*
X65633241Y-83664637D01*
X65868273Y-83821680D01*
X66129426Y-83929853D01*
X66406665Y-83985000D01*
X66689335Y-83985000D01*
X66966574Y-83929853D01*
X67227727Y-83821680D01*
X67462759Y-83664637D01*
X67662637Y-83464759D01*
X67819680Y-83229727D01*
X67927853Y-82968574D01*
X67983000Y-82691335D01*
X67983000Y-82408665D01*
X67927853Y-82131426D01*
X67819680Y-81870273D01*
X67674490Y-81652980D01*
X76514437Y-81652980D01*
X76585429Y-81871094D01*
X76729031Y-82146923D01*
X76923685Y-82389437D01*
X77161911Y-82589316D01*
X77434554Y-82738879D01*
X77731137Y-82832378D01*
X77978000Y-82705570D01*
X77978000Y-81407000D01*
X78232000Y-81407000D01*
X78232000Y-82705570D01*
X78478863Y-82832378D01*
X78775446Y-82738879D01*
X79048089Y-82589316D01*
X79286315Y-82389437D01*
X79480969Y-82146923D01*
X79624571Y-81871094D01*
X79695563Y-81652980D01*
X79575594Y-81407000D01*
X78232000Y-81407000D01*
X77978000Y-81407000D01*
X76634406Y-81407000D01*
X76514437Y-81652980D01*
X67674490Y-81652980D01*
X67662637Y-81635241D01*
X67462759Y-81435363D01*
X67227727Y-81278320D01*
X66966574Y-81170147D01*
X66689335Y-81115000D01*
X66406665Y-81115000D01*
X66129426Y-81170147D01*
X65868273Y-81278320D01*
X65633241Y-81435363D01*
X65433363Y-81635241D01*
X65276320Y-81870273D01*
X65168147Y-82131426D01*
X65113000Y-82408665D01*
X60366072Y-82408665D01*
X60366072Y-81750000D01*
X60353812Y-81625518D01*
X60317502Y-81505820D01*
X60258537Y-81395506D01*
X60179185Y-81298815D01*
X60082494Y-81219463D01*
X59972180Y-81160498D01*
X59852482Y-81124188D01*
X59728000Y-81111928D01*
X58128000Y-81111928D01*
X58003518Y-81124188D01*
X57883820Y-81160498D01*
X57773506Y-81219463D01*
X57676815Y-81298815D01*
X57597463Y-81395506D01*
X57538498Y-81505820D01*
X57502188Y-81625518D01*
X57489928Y-81750000D01*
X22549579Y-81750000D01*
X20015618Y-79216039D01*
X41515096Y-79216039D01*
X41532633Y-79298818D01*
X41643285Y-79558646D01*
X41802500Y-79791895D01*
X42004161Y-79989601D01*
X42240517Y-80144166D01*
X42502486Y-80249650D01*
X42780000Y-80302000D01*
X43180000Y-80302000D01*
X43180000Y-78994000D01*
X43434000Y-78994000D01*
X43434000Y-80302000D01*
X43834000Y-80302000D01*
X44111514Y-80249650D01*
X44373483Y-80144166D01*
X44609839Y-79989601D01*
X44811500Y-79791895D01*
X44970715Y-79558646D01*
X45081367Y-79298818D01*
X45098904Y-79216039D01*
X44976915Y-78994000D01*
X43434000Y-78994000D01*
X43180000Y-78994000D01*
X41637085Y-78994000D01*
X41515096Y-79216039D01*
X20015618Y-79216039D01*
X18690534Y-77890956D01*
X18662817Y-77857183D01*
X18528059Y-77746589D01*
X18374313Y-77664411D01*
X18207490Y-77613805D01*
X18077477Y-77601000D01*
X18077469Y-77601000D01*
X18034000Y-77596719D01*
X17990531Y-77601000D01*
X16942656Y-77601000D01*
X16901475Y-77539368D01*
X16694632Y-77332525D01*
X16520240Y-77216000D01*
X16526226Y-77212000D01*
X41776922Y-77212000D01*
X41887392Y-77346608D01*
X42105899Y-77525932D01*
X42233741Y-77594265D01*
X42004161Y-77744399D01*
X41802500Y-77942105D01*
X41643285Y-78175354D01*
X41532633Y-78435182D01*
X41515096Y-78517961D01*
X41637085Y-78740000D01*
X43180000Y-78740000D01*
X43180000Y-78720000D01*
X43434000Y-78720000D01*
X43434000Y-78740000D01*
X44976915Y-78740000D01*
X45098904Y-78517961D01*
X45081367Y-78435182D01*
X44970715Y-78175354D01*
X44811500Y-77942105D01*
X44609839Y-77744399D01*
X44380259Y-77594265D01*
X44508101Y-77525932D01*
X44726608Y-77346608D01*
X44905932Y-77128101D01*
X45039182Y-76878808D01*
X45121236Y-76608309D01*
X45148943Y-76327000D01*
X45121236Y-76045691D01*
X45039182Y-75775192D01*
X44905932Y-75525899D01*
X44726608Y-75307392D01*
X44508101Y-75128068D01*
X44375142Y-75057000D01*
X44508101Y-74985932D01*
X44726608Y-74806608D01*
X44905932Y-74588101D01*
X45039182Y-74338808D01*
X45121236Y-74068309D01*
X45148943Y-73787000D01*
X45121236Y-73505691D01*
X45039182Y-73235192D01*
X44905932Y-72985899D01*
X44726608Y-72767392D01*
X44613518Y-72674581D01*
X44631482Y-72672812D01*
X44751180Y-72636502D01*
X44861494Y-72577537D01*
X44958185Y-72498185D01*
X45037537Y-72401494D01*
X45096502Y-72291180D01*
X45132812Y-72171482D01*
X45145072Y-72047000D01*
X45145072Y-71247000D01*
X49085057Y-71247000D01*
X49112764Y-71528309D01*
X49194818Y-71798808D01*
X49328068Y-72048101D01*
X49507392Y-72266608D01*
X49725899Y-72445932D01*
X49858858Y-72517000D01*
X49725899Y-72588068D01*
X49507392Y-72767392D01*
X49328068Y-72985899D01*
X49194818Y-73235192D01*
X49112764Y-73505691D01*
X49085057Y-73787000D01*
X49112764Y-74068309D01*
X49194818Y-74338808D01*
X49328068Y-74588101D01*
X49507392Y-74806608D01*
X49725899Y-74985932D01*
X49858858Y-75057000D01*
X49725899Y-75128068D01*
X49507392Y-75307392D01*
X49328068Y-75525899D01*
X49194818Y-75775192D01*
X49112764Y-76045691D01*
X49085057Y-76327000D01*
X49112764Y-76608309D01*
X49194818Y-76878808D01*
X49328068Y-77128101D01*
X49507392Y-77346608D01*
X49725899Y-77525932D01*
X49858858Y-77597000D01*
X49725899Y-77668068D01*
X49507392Y-77847392D01*
X49328068Y-78065899D01*
X49194818Y-78315192D01*
X49112764Y-78585691D01*
X49085057Y-78867000D01*
X49112764Y-79148309D01*
X49194818Y-79418808D01*
X49328068Y-79668101D01*
X49507392Y-79886608D01*
X49725899Y-80065932D01*
X49975192Y-80199182D01*
X50245691Y-80281236D01*
X50456508Y-80302000D01*
X51397492Y-80302000D01*
X51608309Y-80281236D01*
X51878808Y-80199182D01*
X52128101Y-80065932D01*
X52346608Y-79886608D01*
X52525932Y-79668101D01*
X52659182Y-79418808D01*
X52741236Y-79148309D01*
X52768943Y-78867000D01*
X52756435Y-78740000D01*
X76462319Y-78740000D01*
X76492970Y-79051204D01*
X76583745Y-79350449D01*
X76731155Y-79626235D01*
X76929537Y-79867963D01*
X77108899Y-80015163D01*
X76923685Y-80170563D01*
X76729031Y-80413077D01*
X76585429Y-80688906D01*
X76514437Y-80907020D01*
X76634406Y-81153000D01*
X77978000Y-81153000D01*
X77978000Y-81133000D01*
X78232000Y-81133000D01*
X78232000Y-81153000D01*
X79575594Y-81153000D01*
X79695563Y-80907020D01*
X79624571Y-80688906D01*
X79480969Y-80413077D01*
X79286315Y-80170563D01*
X79101101Y-80015163D01*
X79280463Y-79867963D01*
X79478845Y-79626235D01*
X79626255Y-79350449D01*
X79717030Y-79051204D01*
X79747681Y-78740000D01*
X79717030Y-78428796D01*
X79626255Y-78129551D01*
X79478845Y-77853765D01*
X79375554Y-77727905D01*
X79459494Y-77683037D01*
X79556185Y-77603685D01*
X79635537Y-77506994D01*
X79694502Y-77396680D01*
X79730812Y-77276982D01*
X79743072Y-77152500D01*
X79743072Y-75247500D01*
X79730812Y-75123018D01*
X79694502Y-75003320D01*
X79635537Y-74893006D01*
X79556185Y-74796315D01*
X79459494Y-74716963D01*
X79349180Y-74657998D01*
X79229482Y-74621688D01*
X79105000Y-74609428D01*
X77105000Y-74609428D01*
X76980518Y-74621688D01*
X76860820Y-74657998D01*
X76750506Y-74716963D01*
X76653815Y-74796315D01*
X76574463Y-74893006D01*
X76515498Y-75003320D01*
X76479188Y-75123018D01*
X76466928Y-75247500D01*
X76466928Y-77152500D01*
X76479188Y-77276982D01*
X76515498Y-77396680D01*
X76574463Y-77506994D01*
X76653815Y-77603685D01*
X76750506Y-77683037D01*
X76834446Y-77727905D01*
X76731155Y-77853765D01*
X76583745Y-78129551D01*
X76492970Y-78428796D01*
X76462319Y-78740000D01*
X52756435Y-78740000D01*
X52741236Y-78585691D01*
X52659182Y-78315192D01*
X52525932Y-78065899D01*
X52346608Y-77847392D01*
X52128101Y-77668068D01*
X51995142Y-77597000D01*
X52128101Y-77525932D01*
X52346608Y-77346608D01*
X52457078Y-77212000D01*
X52788531Y-77212000D01*
X52832000Y-77216281D01*
X52875469Y-77212000D01*
X52875477Y-77212000D01*
X53005490Y-77199195D01*
X53172313Y-77148589D01*
X53326059Y-77066411D01*
X53460817Y-76955817D01*
X53488534Y-76922044D01*
X57745050Y-72665528D01*
X57778817Y-72637817D01*
X57819646Y-72588068D01*
X57889410Y-72503060D01*
X57889411Y-72503059D01*
X57971589Y-72349313D01*
X58022195Y-72182490D01*
X58035000Y-72052477D01*
X58035000Y-72052467D01*
X58039281Y-72009001D01*
X58035000Y-71965535D01*
X58035000Y-70690521D01*
X58064759Y-70670637D01*
X58264637Y-70470759D01*
X58421680Y-70235727D01*
X58529853Y-69974574D01*
X58585000Y-69697335D01*
X58585000Y-69414665D01*
X58529853Y-69137426D01*
X58421680Y-68876273D01*
X58264637Y-68641241D01*
X58098057Y-68474661D01*
X58194180Y-68445502D01*
X58304494Y-68386537D01*
X58401185Y-68307185D01*
X58480537Y-68210494D01*
X58539502Y-68100180D01*
X58575812Y-67980482D01*
X58588072Y-67856000D01*
X58588072Y-67653000D01*
X60537928Y-67653000D01*
X60537928Y-69253000D01*
X60550188Y-69377482D01*
X60586498Y-69497180D01*
X60645463Y-69607494D01*
X60724815Y-69704185D01*
X60821506Y-69783537D01*
X60931820Y-69842502D01*
X61051518Y-69878812D01*
X61176000Y-69891072D01*
X62776000Y-69891072D01*
X62900482Y-69878812D01*
X63020180Y-69842502D01*
X63130494Y-69783537D01*
X63227185Y-69704185D01*
X63306537Y-69607494D01*
X63365502Y-69497180D01*
X63401812Y-69377482D01*
X63414072Y-69253000D01*
X63414072Y-68311665D01*
X68161000Y-68311665D01*
X68161000Y-68594335D01*
X68216147Y-68871574D01*
X68324320Y-69132727D01*
X68481363Y-69367759D01*
X68681241Y-69567637D01*
X68916273Y-69724680D01*
X69177426Y-69832853D01*
X69454665Y-69888000D01*
X69737335Y-69888000D01*
X70014574Y-69832853D01*
X70275727Y-69724680D01*
X70510759Y-69567637D01*
X70710637Y-69367759D01*
X70867680Y-69132727D01*
X70975853Y-68871574D01*
X71031000Y-68594335D01*
X71031000Y-68311665D01*
X70975853Y-68034426D01*
X70867680Y-67773273D01*
X70710637Y-67538241D01*
X70510759Y-67338363D01*
X70275727Y-67181320D01*
X70014574Y-67073147D01*
X69737335Y-67018000D01*
X69454665Y-67018000D01*
X69177426Y-67073147D01*
X68916273Y-67181320D01*
X68681241Y-67338363D01*
X68481363Y-67538241D01*
X68324320Y-67773273D01*
X68216147Y-68034426D01*
X68161000Y-68311665D01*
X63414072Y-68311665D01*
X63414072Y-67653000D01*
X63401812Y-67528518D01*
X63365502Y-67408820D01*
X63306537Y-67298506D01*
X63227185Y-67201815D01*
X63130494Y-67122463D01*
X63020180Y-67063498D01*
X62900482Y-67027188D01*
X62776000Y-67014928D01*
X61176000Y-67014928D01*
X61051518Y-67027188D01*
X60931820Y-67063498D01*
X60821506Y-67122463D01*
X60724815Y-67201815D01*
X60645463Y-67298506D01*
X60586498Y-67408820D01*
X60550188Y-67528518D01*
X60537928Y-67653000D01*
X58588072Y-67653000D01*
X58588072Y-66256000D01*
X58575812Y-66131518D01*
X58539502Y-66011820D01*
X58480537Y-65901506D01*
X58401185Y-65804815D01*
X58304494Y-65725463D01*
X58194180Y-65666498D01*
X58074482Y-65630188D01*
X57950000Y-65617928D01*
X56350000Y-65617928D01*
X56225518Y-65630188D01*
X56105820Y-65666498D01*
X55995506Y-65725463D01*
X55916867Y-65790000D01*
X52483701Y-65790000D01*
X52479812Y-65750518D01*
X52443502Y-65630820D01*
X52384537Y-65520506D01*
X52305185Y-65423815D01*
X52208494Y-65344463D01*
X52098180Y-65285498D01*
X51978482Y-65249188D01*
X51854000Y-65236928D01*
X50254000Y-65236928D01*
X50129518Y-65249188D01*
X50009820Y-65285498D01*
X49899506Y-65344463D01*
X49802815Y-65423815D01*
X49723463Y-65520506D01*
X49664498Y-65630820D01*
X49628188Y-65750518D01*
X49615928Y-65875000D01*
X49615928Y-67475000D01*
X49628188Y-67599482D01*
X49664498Y-67719180D01*
X49723463Y-67829494D01*
X49802815Y-67926185D01*
X49899506Y-68005537D01*
X50009820Y-68064502D01*
X50129518Y-68100812D01*
X50254000Y-68113072D01*
X51854000Y-68113072D01*
X51978482Y-68100812D01*
X52098180Y-68064502D01*
X52208494Y-68005537D01*
X52305185Y-67926185D01*
X52384537Y-67829494D01*
X52443502Y-67719180D01*
X52479812Y-67599482D01*
X52483701Y-67560000D01*
X55711928Y-67560000D01*
X55711928Y-67856000D01*
X55724188Y-67980482D01*
X55760498Y-68100180D01*
X55819463Y-68210494D01*
X55898815Y-68307185D01*
X55995506Y-68386537D01*
X56105820Y-68445502D01*
X56201943Y-68474661D01*
X56035363Y-68641241D01*
X55878320Y-68876273D01*
X55770147Y-69137426D01*
X55715000Y-69414665D01*
X55715000Y-69697335D01*
X55770147Y-69974574D01*
X55878320Y-70235727D01*
X56035363Y-70470759D01*
X56235241Y-70670637D01*
X56265001Y-70690522D01*
X56265000Y-71642421D01*
X52465422Y-75442000D01*
X52457078Y-75442000D01*
X52346608Y-75307392D01*
X52128101Y-75128068D01*
X51995142Y-75057000D01*
X52128101Y-74985932D01*
X52346608Y-74806608D01*
X52525932Y-74588101D01*
X52659182Y-74338808D01*
X52741236Y-74068309D01*
X52768943Y-73787000D01*
X52741236Y-73505691D01*
X52659182Y-73235192D01*
X52525932Y-72985899D01*
X52346608Y-72767392D01*
X52128101Y-72588068D01*
X51995142Y-72517000D01*
X52128101Y-72445932D01*
X52346608Y-72266608D01*
X52525932Y-72048101D01*
X52659182Y-71798808D01*
X52741236Y-71528309D01*
X52768943Y-71247000D01*
X52741236Y-70965691D01*
X52659182Y-70695192D01*
X52525932Y-70445899D01*
X52346608Y-70227392D01*
X52128101Y-70048068D01*
X51878808Y-69914818D01*
X51608309Y-69832764D01*
X51397492Y-69812000D01*
X50456508Y-69812000D01*
X50245691Y-69832764D01*
X49975192Y-69914818D01*
X49725899Y-70048068D01*
X49507392Y-70227392D01*
X49328068Y-70445899D01*
X49194818Y-70695192D01*
X49112764Y-70965691D01*
X49085057Y-71247000D01*
X45145072Y-71247000D01*
X45145072Y-70447000D01*
X45132812Y-70322518D01*
X45096502Y-70202820D01*
X45037537Y-70092506D01*
X44958185Y-69995815D01*
X44861494Y-69916463D01*
X44751180Y-69857498D01*
X44631482Y-69821188D01*
X44507000Y-69808928D01*
X42107000Y-69808928D01*
X41982518Y-69821188D01*
X41862820Y-69857498D01*
X41752506Y-69916463D01*
X41655815Y-69995815D01*
X41576463Y-70092506D01*
X41517498Y-70202820D01*
X41481188Y-70322518D01*
X41468928Y-70447000D01*
X41468928Y-72047000D01*
X41481188Y-72171482D01*
X41517498Y-72291180D01*
X41576463Y-72401494D01*
X41655815Y-72498185D01*
X41752506Y-72577537D01*
X41862820Y-72636502D01*
X41982518Y-72672812D01*
X42000482Y-72674581D01*
X41887392Y-72767392D01*
X41776922Y-72902000D01*
X31989578Y-72902000D01*
X31898534Y-72810956D01*
X31870817Y-72777183D01*
X31736059Y-72666589D01*
X31582313Y-72584411D01*
X31415490Y-72533805D01*
X31285477Y-72521000D01*
X31285469Y-72521000D01*
X31242000Y-72516719D01*
X31198531Y-72521000D01*
X16942656Y-72521000D01*
X16901475Y-72459368D01*
X16694632Y-72252525D01*
X16520240Y-72136000D01*
X16694632Y-72019475D01*
X16901475Y-71812632D01*
X17063990Y-71569411D01*
X17175932Y-71299158D01*
X17233000Y-71012260D01*
X17233000Y-70719740D01*
X17218539Y-70647039D01*
X17824876Y-70040702D01*
X35381903Y-70040702D01*
X35453486Y-70284671D01*
X35708996Y-70405571D01*
X35983184Y-70474300D01*
X36265512Y-70488217D01*
X36545130Y-70446787D01*
X36811292Y-70351603D01*
X36936514Y-70284671D01*
X37008097Y-70040702D01*
X36195000Y-69227605D01*
X35381903Y-70040702D01*
X17824876Y-70040702D01*
X18747066Y-69118512D01*
X34754783Y-69118512D01*
X34796213Y-69398130D01*
X34891397Y-69664292D01*
X34958329Y-69789514D01*
X35202298Y-69861097D01*
X36015395Y-69048000D01*
X36374605Y-69048000D01*
X37187702Y-69861097D01*
X37431671Y-69789514D01*
X37552571Y-69534004D01*
X37621300Y-69259816D01*
X37635217Y-68977488D01*
X37593787Y-68697870D01*
X37498603Y-68431708D01*
X37431671Y-68306486D01*
X37187702Y-68234903D01*
X36374605Y-69048000D01*
X36015395Y-69048000D01*
X35202298Y-68234903D01*
X34958329Y-68306486D01*
X34837429Y-68561996D01*
X34768700Y-68836184D01*
X34754783Y-69118512D01*
X18747066Y-69118512D01*
X22117578Y-65748000D01*
X34756928Y-65748000D01*
X34756928Y-67348000D01*
X34769188Y-67472482D01*
X34805498Y-67592180D01*
X34864463Y-67702494D01*
X34943815Y-67799185D01*
X35040506Y-67878537D01*
X35150820Y-67937502D01*
X35270518Y-67973812D01*
X35395000Y-67986072D01*
X35402215Y-67986072D01*
X35381903Y-68055298D01*
X36195000Y-68868395D01*
X37008097Y-68055298D01*
X36987785Y-67986072D01*
X36995000Y-67986072D01*
X37119482Y-67973812D01*
X37239180Y-67937502D01*
X37349494Y-67878537D01*
X37446185Y-67799185D01*
X37525537Y-67702494D01*
X37584502Y-67592180D01*
X37620812Y-67472482D01*
X37633072Y-67348000D01*
X37633072Y-66533665D01*
X41999000Y-66533665D01*
X41999000Y-66816335D01*
X42054147Y-67093574D01*
X42162320Y-67354727D01*
X42319363Y-67589759D01*
X42519241Y-67789637D01*
X42754273Y-67946680D01*
X43015426Y-68054853D01*
X43292665Y-68110000D01*
X43575335Y-68110000D01*
X43852574Y-68054853D01*
X44113727Y-67946680D01*
X44348759Y-67789637D01*
X44548637Y-67589759D01*
X44705680Y-67354727D01*
X44813853Y-67093574D01*
X44869000Y-66816335D01*
X44869000Y-66533665D01*
X44813853Y-66256426D01*
X44705680Y-65995273D01*
X44548637Y-65760241D01*
X44348759Y-65560363D01*
X44113727Y-65403320D01*
X43852574Y-65295147D01*
X43575335Y-65240000D01*
X43292665Y-65240000D01*
X43015426Y-65295147D01*
X42754273Y-65403320D01*
X42519241Y-65560363D01*
X42319363Y-65760241D01*
X42162320Y-65995273D01*
X42054147Y-66256426D01*
X41999000Y-66533665D01*
X37633072Y-66533665D01*
X37633072Y-65748000D01*
X37620812Y-65623518D01*
X37584502Y-65503820D01*
X37525537Y-65393506D01*
X37446185Y-65296815D01*
X37349494Y-65217463D01*
X37239180Y-65158498D01*
X37119482Y-65122188D01*
X36995000Y-65109928D01*
X35395000Y-65109928D01*
X35270518Y-65122188D01*
X35150820Y-65158498D01*
X35040506Y-65217463D01*
X34943815Y-65296815D01*
X34864463Y-65393506D01*
X34805498Y-65503820D01*
X34769188Y-65623518D01*
X34756928Y-65748000D01*
X22117578Y-65748000D01*
X23857578Y-64008000D01*
X76716319Y-64008000D01*
X76746970Y-64319204D01*
X76837745Y-64618449D01*
X76985155Y-64894235D01*
X77183537Y-65135963D01*
X77356609Y-65278000D01*
X77183537Y-65420037D01*
X76985155Y-65661765D01*
X76837745Y-65937551D01*
X76746970Y-66236796D01*
X76716319Y-66548000D01*
X76746970Y-66859204D01*
X76837745Y-67158449D01*
X76985155Y-67434235D01*
X77183537Y-67675963D01*
X77425265Y-67874345D01*
X77701051Y-68021755D01*
X78000296Y-68112530D01*
X78233514Y-68135500D01*
X78484486Y-68135500D01*
X78717704Y-68112530D01*
X79016949Y-68021755D01*
X79292735Y-67874345D01*
X79534463Y-67675963D01*
X79732845Y-67434235D01*
X79880255Y-67158449D01*
X79971030Y-66859204D01*
X80001681Y-66548000D01*
X79971030Y-66236796D01*
X79880255Y-65937551D01*
X79732845Y-65661765D01*
X79534463Y-65420037D01*
X79361391Y-65278000D01*
X79534463Y-65135963D01*
X79732845Y-64894235D01*
X79880255Y-64618449D01*
X79971030Y-64319204D01*
X80001681Y-64008000D01*
X79971030Y-63696796D01*
X79880255Y-63397551D01*
X79732845Y-63121765D01*
X79629554Y-62995905D01*
X79713494Y-62951037D01*
X79810185Y-62871685D01*
X79889537Y-62774994D01*
X79948502Y-62664680D01*
X79984812Y-62544982D01*
X79997072Y-62420500D01*
X79997072Y-60515500D01*
X79984812Y-60391018D01*
X79948502Y-60271320D01*
X79889537Y-60161006D01*
X79810185Y-60064315D01*
X79713494Y-59984963D01*
X79603180Y-59925998D01*
X79483482Y-59889688D01*
X79359000Y-59877428D01*
X77359000Y-59877428D01*
X77234518Y-59889688D01*
X77114820Y-59925998D01*
X77004506Y-59984963D01*
X76907815Y-60064315D01*
X76828463Y-60161006D01*
X76769498Y-60271320D01*
X76733188Y-60391018D01*
X76720928Y-60515500D01*
X76720928Y-62420500D01*
X76733188Y-62544982D01*
X76769498Y-62664680D01*
X76828463Y-62774994D01*
X76907815Y-62871685D01*
X77004506Y-62951037D01*
X77088446Y-62995905D01*
X76985155Y-63121765D01*
X76837745Y-63397551D01*
X76746970Y-63696796D01*
X76716319Y-64008000D01*
X23857578Y-64008000D01*
X28080539Y-59785039D01*
X42150096Y-59785039D01*
X42167633Y-59867818D01*
X42278285Y-60127646D01*
X42437500Y-60360895D01*
X42639161Y-60558601D01*
X42875517Y-60713166D01*
X43137486Y-60818650D01*
X43415000Y-60871000D01*
X43815000Y-60871000D01*
X43815000Y-59563000D01*
X44069000Y-59563000D01*
X44069000Y-60871000D01*
X44469000Y-60871000D01*
X44746514Y-60818650D01*
X45008483Y-60713166D01*
X45244839Y-60558601D01*
X45446500Y-60360895D01*
X45605715Y-60127646D01*
X45716367Y-59867818D01*
X45733904Y-59785039D01*
X45611915Y-59563000D01*
X44069000Y-59563000D01*
X43815000Y-59563000D01*
X42272085Y-59563000D01*
X42150096Y-59785039D01*
X28080539Y-59785039D01*
X30084579Y-57781000D01*
X42411922Y-57781000D01*
X42522392Y-57915608D01*
X42740899Y-58094932D01*
X42868741Y-58163265D01*
X42639161Y-58313399D01*
X42437500Y-58511105D01*
X42278285Y-58744354D01*
X42167633Y-59004182D01*
X42150096Y-59086961D01*
X42272085Y-59309000D01*
X43815000Y-59309000D01*
X43815000Y-59289000D01*
X44069000Y-59289000D01*
X44069000Y-59309000D01*
X45611915Y-59309000D01*
X45733904Y-59086961D01*
X45716367Y-59004182D01*
X45605715Y-58744354D01*
X45446500Y-58511105D01*
X45244839Y-58313399D01*
X45015259Y-58163265D01*
X45143101Y-58094932D01*
X45361608Y-57915608D01*
X45540932Y-57697101D01*
X45674182Y-57447808D01*
X45756236Y-57177309D01*
X45783943Y-56896000D01*
X45756236Y-56614691D01*
X45674182Y-56344192D01*
X45540932Y-56094899D01*
X45361608Y-55876392D01*
X45143101Y-55697068D01*
X45010142Y-55626000D01*
X45143101Y-55554932D01*
X45361608Y-55375608D01*
X45540932Y-55157101D01*
X45674182Y-54907808D01*
X45756236Y-54637309D01*
X45783943Y-54356000D01*
X45756236Y-54074691D01*
X45674182Y-53804192D01*
X45540932Y-53554899D01*
X45361608Y-53336392D01*
X45248518Y-53243581D01*
X45266482Y-53241812D01*
X45386180Y-53205502D01*
X45496494Y-53146537D01*
X45593185Y-53067185D01*
X45672537Y-52970494D01*
X45731502Y-52860180D01*
X45767812Y-52740482D01*
X45780072Y-52616000D01*
X45780072Y-51816000D01*
X49720057Y-51816000D01*
X49747764Y-52097309D01*
X49829818Y-52367808D01*
X49963068Y-52617101D01*
X50142392Y-52835608D01*
X50360899Y-53014932D01*
X50493858Y-53086000D01*
X50360899Y-53157068D01*
X50142392Y-53336392D01*
X49963068Y-53554899D01*
X49829818Y-53804192D01*
X49747764Y-54074691D01*
X49720057Y-54356000D01*
X49747764Y-54637309D01*
X49829818Y-54907808D01*
X49963068Y-55157101D01*
X50142392Y-55375608D01*
X50360899Y-55554932D01*
X50493858Y-55626000D01*
X50360899Y-55697068D01*
X50142392Y-55876392D01*
X49963068Y-56094899D01*
X49829818Y-56344192D01*
X49747764Y-56614691D01*
X49720057Y-56896000D01*
X49747764Y-57177309D01*
X49829818Y-57447808D01*
X49963068Y-57697101D01*
X50142392Y-57915608D01*
X50360899Y-58094932D01*
X50493858Y-58166000D01*
X50360899Y-58237068D01*
X50142392Y-58416392D01*
X49963068Y-58634899D01*
X49829818Y-58884192D01*
X49747764Y-59154691D01*
X49720057Y-59436000D01*
X49747764Y-59717309D01*
X49829818Y-59987808D01*
X49963068Y-60237101D01*
X50142392Y-60455608D01*
X50360899Y-60634932D01*
X50610192Y-60768182D01*
X50880691Y-60850236D01*
X51091508Y-60871000D01*
X52032492Y-60871000D01*
X52243309Y-60850236D01*
X52513808Y-60768182D01*
X52763101Y-60634932D01*
X52981608Y-60455608D01*
X53160932Y-60237101D01*
X53294182Y-59987808D01*
X53376236Y-59717309D01*
X53403943Y-59436000D01*
X53376236Y-59154691D01*
X53294182Y-58884192D01*
X53160932Y-58634899D01*
X52981608Y-58416392D01*
X52763101Y-58237068D01*
X52630142Y-58166000D01*
X52763101Y-58094932D01*
X52981608Y-57915608D01*
X53099957Y-57771399D01*
X53132490Y-57768195D01*
X53299313Y-57717589D01*
X53453059Y-57635411D01*
X53587817Y-57524817D01*
X53615534Y-57491044D01*
X54375578Y-56731000D01*
X59775928Y-56731000D01*
X59775928Y-58331000D01*
X59788188Y-58455482D01*
X59824498Y-58575180D01*
X59883463Y-58685494D01*
X59962815Y-58782185D01*
X60059506Y-58861537D01*
X60169820Y-58920502D01*
X60289518Y-58956812D01*
X60414000Y-58969072D01*
X62014000Y-58969072D01*
X62138482Y-58956812D01*
X62258180Y-58920502D01*
X62368494Y-58861537D01*
X62465185Y-58782185D01*
X62544537Y-58685494D01*
X62603502Y-58575180D01*
X62639812Y-58455482D01*
X62652072Y-58331000D01*
X62652072Y-57389665D01*
X67399000Y-57389665D01*
X67399000Y-57672335D01*
X67454147Y-57949574D01*
X67562320Y-58210727D01*
X67719363Y-58445759D01*
X67919241Y-58645637D01*
X68154273Y-58802680D01*
X68415426Y-58910853D01*
X68692665Y-58966000D01*
X68975335Y-58966000D01*
X69252574Y-58910853D01*
X69513727Y-58802680D01*
X69748759Y-58645637D01*
X69948637Y-58445759D01*
X70105680Y-58210727D01*
X70213853Y-57949574D01*
X70269000Y-57672335D01*
X70269000Y-57389665D01*
X70213853Y-57112426D01*
X70105680Y-56851273D01*
X69948637Y-56616241D01*
X69748759Y-56416363D01*
X69513727Y-56259320D01*
X69252574Y-56151147D01*
X68975335Y-56096000D01*
X68692665Y-56096000D01*
X68415426Y-56151147D01*
X68154273Y-56259320D01*
X67919241Y-56416363D01*
X67719363Y-56616241D01*
X67562320Y-56851273D01*
X67454147Y-57112426D01*
X67399000Y-57389665D01*
X62652072Y-57389665D01*
X62652072Y-56731000D01*
X62639812Y-56606518D01*
X62603502Y-56486820D01*
X62544537Y-56376506D01*
X62465185Y-56279815D01*
X62368494Y-56200463D01*
X62258180Y-56141498D01*
X62138482Y-56105188D01*
X62014000Y-56092928D01*
X60414000Y-56092928D01*
X60289518Y-56105188D01*
X60169820Y-56141498D01*
X60059506Y-56200463D01*
X59962815Y-56279815D01*
X59883463Y-56376506D01*
X59824498Y-56486820D01*
X59788188Y-56606518D01*
X59775928Y-56731000D01*
X54375578Y-56731000D01*
X59142051Y-51964528D01*
X59175817Y-51936817D01*
X59286411Y-51802059D01*
X59368589Y-51648313D01*
X59419195Y-51481490D01*
X59432000Y-51351477D01*
X59432000Y-51351467D01*
X59436281Y-51308001D01*
X59432000Y-51264535D01*
X59432000Y-50664980D01*
X77022437Y-50664980D01*
X77093429Y-50883094D01*
X77237031Y-51158923D01*
X77431685Y-51401437D01*
X77669911Y-51601316D01*
X77942554Y-51750879D01*
X78239137Y-51844378D01*
X78486000Y-51717570D01*
X78486000Y-50419000D01*
X78740000Y-50419000D01*
X78740000Y-51717570D01*
X78986863Y-51844378D01*
X79283446Y-51750879D01*
X79556089Y-51601316D01*
X79794315Y-51401437D01*
X79988969Y-51158923D01*
X80132571Y-50883094D01*
X80203563Y-50664980D01*
X80083594Y-50419000D01*
X78740000Y-50419000D01*
X78486000Y-50419000D01*
X77142406Y-50419000D01*
X77022437Y-50664980D01*
X59432000Y-50664980D01*
X59432000Y-48719521D01*
X59461759Y-48699637D01*
X59661637Y-48499759D01*
X59818680Y-48264727D01*
X59926853Y-48003574D01*
X59976894Y-47752000D01*
X76970319Y-47752000D01*
X77000970Y-48063204D01*
X77091745Y-48362449D01*
X77239155Y-48638235D01*
X77437537Y-48879963D01*
X77616899Y-49027163D01*
X77431685Y-49182563D01*
X77237031Y-49425077D01*
X77093429Y-49700906D01*
X77022437Y-49919020D01*
X77142406Y-50165000D01*
X78486000Y-50165000D01*
X78486000Y-50145000D01*
X78740000Y-50145000D01*
X78740000Y-50165000D01*
X80083594Y-50165000D01*
X80203563Y-49919020D01*
X80132571Y-49700906D01*
X79988969Y-49425077D01*
X79794315Y-49182563D01*
X79609101Y-49027163D01*
X79788463Y-48879963D01*
X79986845Y-48638235D01*
X80053249Y-48514000D01*
X91194319Y-48514000D01*
X91224970Y-48825204D01*
X91315745Y-49124449D01*
X91463155Y-49400235D01*
X91661537Y-49641963D01*
X91834609Y-49784000D01*
X91661537Y-49926037D01*
X91463155Y-50167765D01*
X91315745Y-50443551D01*
X91224970Y-50742796D01*
X91194319Y-51054000D01*
X91224970Y-51365204D01*
X91315745Y-51664449D01*
X91463155Y-51940235D01*
X91661537Y-52181963D01*
X91903265Y-52380345D01*
X92179051Y-52527755D01*
X92478296Y-52618530D01*
X92711514Y-52641500D01*
X92962486Y-52641500D01*
X93195704Y-52618530D01*
X93494949Y-52527755D01*
X93770735Y-52380345D01*
X94012463Y-52181963D01*
X94210845Y-51940235D01*
X94358255Y-51664449D01*
X94449030Y-51365204D01*
X94479681Y-51054000D01*
X94449030Y-50742796D01*
X94358255Y-50443551D01*
X94210845Y-50167765D01*
X94012463Y-49926037D01*
X93839391Y-49784000D01*
X94012463Y-49641963D01*
X94210845Y-49400235D01*
X94358255Y-49124449D01*
X94449030Y-48825204D01*
X94479681Y-48514000D01*
X94449030Y-48202796D01*
X94358255Y-47903551D01*
X94210845Y-47627765D01*
X94107554Y-47501905D01*
X94191494Y-47457037D01*
X94288185Y-47377685D01*
X94367537Y-47280994D01*
X94426502Y-47170680D01*
X94462812Y-47050982D01*
X94475072Y-46926500D01*
X94475072Y-45021500D01*
X94462812Y-44897018D01*
X94426502Y-44777320D01*
X94367537Y-44667006D01*
X94288185Y-44570315D01*
X94191494Y-44490963D01*
X94081180Y-44431998D01*
X93961482Y-44395688D01*
X93837000Y-44383428D01*
X91837000Y-44383428D01*
X91712518Y-44395688D01*
X91592820Y-44431998D01*
X91482506Y-44490963D01*
X91385815Y-44570315D01*
X91306463Y-44667006D01*
X91247498Y-44777320D01*
X91211188Y-44897018D01*
X91198928Y-45021500D01*
X91198928Y-46926500D01*
X91211188Y-47050982D01*
X91247498Y-47170680D01*
X91306463Y-47280994D01*
X91385815Y-47377685D01*
X91482506Y-47457037D01*
X91566446Y-47501905D01*
X91463155Y-47627765D01*
X91315745Y-47903551D01*
X91224970Y-48202796D01*
X91194319Y-48514000D01*
X80053249Y-48514000D01*
X80134255Y-48362449D01*
X80225030Y-48063204D01*
X80255681Y-47752000D01*
X80225030Y-47440796D01*
X80134255Y-47141551D01*
X79986845Y-46865765D01*
X79883554Y-46739905D01*
X79967494Y-46695037D01*
X80064185Y-46615685D01*
X80143537Y-46518994D01*
X80202502Y-46408680D01*
X80238812Y-46288982D01*
X80251072Y-46164500D01*
X80251072Y-44259500D01*
X80238812Y-44135018D01*
X80202502Y-44015320D01*
X80143537Y-43905006D01*
X80064185Y-43808315D01*
X79967494Y-43728963D01*
X79857180Y-43669998D01*
X79737482Y-43633688D01*
X79613000Y-43621428D01*
X77613000Y-43621428D01*
X77488518Y-43633688D01*
X77368820Y-43669998D01*
X77258506Y-43728963D01*
X77161815Y-43808315D01*
X77082463Y-43905006D01*
X77023498Y-44015320D01*
X76987188Y-44135018D01*
X76974928Y-44259500D01*
X76974928Y-46164500D01*
X76987188Y-46288982D01*
X77023498Y-46408680D01*
X77082463Y-46518994D01*
X77161815Y-46615685D01*
X77258506Y-46695037D01*
X77342446Y-46739905D01*
X77239155Y-46865765D01*
X77091745Y-47141551D01*
X77000970Y-47440796D01*
X76970319Y-47752000D01*
X59976894Y-47752000D01*
X59982000Y-47726335D01*
X59982000Y-47443665D01*
X59926853Y-47166426D01*
X59818680Y-46905273D01*
X59661637Y-46670241D01*
X59495057Y-46503661D01*
X59591180Y-46474502D01*
X59701494Y-46415537D01*
X59798185Y-46336185D01*
X59877537Y-46239494D01*
X59936502Y-46129180D01*
X59972812Y-46009482D01*
X59985072Y-45885000D01*
X59985072Y-44285000D01*
X59972812Y-44160518D01*
X59936502Y-44040820D01*
X59877537Y-43930506D01*
X59798185Y-43833815D01*
X59701494Y-43754463D01*
X59591180Y-43695498D01*
X59471482Y-43659188D01*
X59347000Y-43646928D01*
X57747000Y-43646928D01*
X57622518Y-43659188D01*
X57502820Y-43695498D01*
X57392506Y-43754463D01*
X57295815Y-43833815D01*
X57216463Y-43930506D01*
X57157498Y-44040820D01*
X57121188Y-44160518D01*
X57108928Y-44285000D01*
X57108928Y-45885000D01*
X57121188Y-46009482D01*
X57157498Y-46129180D01*
X57216463Y-46239494D01*
X57295815Y-46336185D01*
X57392506Y-46415537D01*
X57502820Y-46474502D01*
X57598943Y-46503661D01*
X57432363Y-46670241D01*
X57275320Y-46905273D01*
X57167147Y-47166426D01*
X57112000Y-47443665D01*
X57112000Y-47726335D01*
X57167147Y-48003574D01*
X57275320Y-48264727D01*
X57432363Y-48499759D01*
X57632241Y-48699637D01*
X57662001Y-48719522D01*
X57662000Y-50941421D01*
X52841782Y-55761640D01*
X52763101Y-55697068D01*
X52630142Y-55626000D01*
X52763101Y-55554932D01*
X52981608Y-55375608D01*
X53160932Y-55157101D01*
X53294182Y-54907808D01*
X53376236Y-54637309D01*
X53403943Y-54356000D01*
X53376236Y-54074691D01*
X53294182Y-53804192D01*
X53160932Y-53554899D01*
X52981608Y-53336392D01*
X52763101Y-53157068D01*
X52630142Y-53086000D01*
X52763101Y-53014932D01*
X52981608Y-52835608D01*
X53160932Y-52617101D01*
X53294182Y-52367808D01*
X53376236Y-52097309D01*
X53403943Y-51816000D01*
X53376236Y-51534691D01*
X53294182Y-51264192D01*
X53160932Y-51014899D01*
X52981608Y-50796392D01*
X52763101Y-50617068D01*
X52513808Y-50483818D01*
X52243309Y-50401764D01*
X52032492Y-50381000D01*
X51091508Y-50381000D01*
X50880691Y-50401764D01*
X50610192Y-50483818D01*
X50360899Y-50617068D01*
X50142392Y-50796392D01*
X49963068Y-51014899D01*
X49829818Y-51264192D01*
X49747764Y-51534691D01*
X49720057Y-51816000D01*
X45780072Y-51816000D01*
X45780072Y-51016000D01*
X45767812Y-50891518D01*
X45731502Y-50771820D01*
X45672537Y-50661506D01*
X45593185Y-50564815D01*
X45496494Y-50485463D01*
X45386180Y-50426498D01*
X45266482Y-50390188D01*
X45142000Y-50377928D01*
X42742000Y-50377928D01*
X42617518Y-50390188D01*
X42497820Y-50426498D01*
X42387506Y-50485463D01*
X42290815Y-50564815D01*
X42211463Y-50661506D01*
X42152498Y-50771820D01*
X42116188Y-50891518D01*
X42103928Y-51016000D01*
X42103928Y-52616000D01*
X42116188Y-52740482D01*
X42152498Y-52860180D01*
X42211463Y-52970494D01*
X42290815Y-53067185D01*
X42387506Y-53146537D01*
X42497820Y-53205502D01*
X42617518Y-53241812D01*
X42635482Y-53243581D01*
X42522392Y-53336392D01*
X42411922Y-53471000D01*
X29761465Y-53471000D01*
X29717999Y-53466719D01*
X29674533Y-53471000D01*
X29674523Y-53471000D01*
X29544510Y-53483805D01*
X29377687Y-53534411D01*
X29223941Y-53616589D01*
X29223939Y-53616590D01*
X29223940Y-53616590D01*
X29122953Y-53699468D01*
X29122951Y-53699470D01*
X29089183Y-53727183D01*
X29061470Y-53760951D01*
X17236072Y-65586350D01*
X17236072Y-64936000D01*
X17223812Y-64811518D01*
X17187502Y-64691820D01*
X17128537Y-64581506D01*
X17049185Y-64484815D01*
X16952494Y-64405463D01*
X16842180Y-64346498D01*
X16722482Y-64310188D01*
X16598000Y-64297928D01*
X14898000Y-64297928D01*
X14773518Y-64310188D01*
X14653820Y-64346498D01*
X14543506Y-64405463D01*
X14446815Y-64484815D01*
X14367463Y-64581506D01*
X14308498Y-64691820D01*
X14272188Y-64811518D01*
X14259928Y-64936000D01*
X13462000Y-64936000D01*
X13462000Y-52768702D01*
X37413903Y-52768702D01*
X37485486Y-53012671D01*
X37740996Y-53133571D01*
X38015184Y-53202300D01*
X38297512Y-53216217D01*
X38577130Y-53174787D01*
X38843292Y-53079603D01*
X38968514Y-53012671D01*
X39040097Y-52768702D01*
X38227000Y-51955605D01*
X37413903Y-52768702D01*
X13462000Y-52768702D01*
X13462000Y-51846512D01*
X36786783Y-51846512D01*
X36828213Y-52126130D01*
X36923397Y-52392292D01*
X36990329Y-52517514D01*
X37234298Y-52589097D01*
X38047395Y-51776000D01*
X38406605Y-51776000D01*
X39219702Y-52589097D01*
X39463671Y-52517514D01*
X39584571Y-52262004D01*
X39653300Y-51987816D01*
X39667217Y-51705488D01*
X39625787Y-51425870D01*
X39530603Y-51159708D01*
X39463671Y-51034486D01*
X39219702Y-50962903D01*
X38406605Y-51776000D01*
X38047395Y-51776000D01*
X37234298Y-50962903D01*
X36990329Y-51034486D01*
X36869429Y-51289996D01*
X36800700Y-51564184D01*
X36786783Y-51846512D01*
X13462000Y-51846512D01*
X13462000Y-51148653D01*
X15959952Y-51148653D01*
X16115962Y-51464214D01*
X16490745Y-51655020D01*
X16895551Y-51769044D01*
X17314824Y-51801902D01*
X17732451Y-51752334D01*
X18132383Y-51622243D01*
X18428038Y-51464214D01*
X18584048Y-51148653D01*
X17272000Y-49836605D01*
X15959952Y-51148653D01*
X13462000Y-51148653D01*
X13462000Y-49699824D01*
X15127098Y-49699824D01*
X15176666Y-50117451D01*
X15306757Y-50517383D01*
X15464786Y-50813038D01*
X15780347Y-50969048D01*
X17092395Y-49657000D01*
X17451605Y-49657000D01*
X18763653Y-50969048D01*
X18768982Y-50966413D01*
X27873192Y-50966413D01*
X27968956Y-51230814D01*
X28258571Y-51371704D01*
X28570108Y-51453384D01*
X28891595Y-51472718D01*
X29210675Y-51428961D01*
X29515088Y-51323795D01*
X29689044Y-51230814D01*
X29784808Y-50966413D01*
X28829000Y-50010605D01*
X27873192Y-50966413D01*
X18768982Y-50966413D01*
X19079214Y-50813038D01*
X19270020Y-50438255D01*
X19384044Y-50033449D01*
X19395004Y-49893595D01*
X27187282Y-49893595D01*
X27231039Y-50212675D01*
X27336205Y-50517088D01*
X27429186Y-50691044D01*
X27693587Y-50786808D01*
X28649395Y-49831000D01*
X29008605Y-49831000D01*
X29964413Y-50786808D01*
X30228814Y-50691044D01*
X30369704Y-50401429D01*
X30451384Y-50089892D01*
X30470718Y-49768405D01*
X30426961Y-49449325D01*
X30321795Y-49144912D01*
X30228814Y-48970956D01*
X29964413Y-48875192D01*
X29008605Y-49831000D01*
X28649395Y-49831000D01*
X27693587Y-48875192D01*
X27429186Y-48970956D01*
X27288296Y-49260571D01*
X27206616Y-49572108D01*
X27187282Y-49893595D01*
X19395004Y-49893595D01*
X19416902Y-49614176D01*
X19367334Y-49196549D01*
X19237243Y-48796617D01*
X19183242Y-48695587D01*
X27873192Y-48695587D01*
X28829000Y-49651395D01*
X29784808Y-48695587D01*
X29705276Y-48476000D01*
X36788928Y-48476000D01*
X36788928Y-50076000D01*
X36801188Y-50200482D01*
X36837498Y-50320180D01*
X36896463Y-50430494D01*
X36975815Y-50527185D01*
X37072506Y-50606537D01*
X37182820Y-50665502D01*
X37302518Y-50701812D01*
X37427000Y-50714072D01*
X37434215Y-50714072D01*
X37413903Y-50783298D01*
X38227000Y-51596395D01*
X39040097Y-50783298D01*
X39019785Y-50714072D01*
X39027000Y-50714072D01*
X39151482Y-50701812D01*
X39271180Y-50665502D01*
X39381494Y-50606537D01*
X39478185Y-50527185D01*
X39557537Y-50430494D01*
X39616502Y-50320180D01*
X39652812Y-50200482D01*
X39665072Y-50076000D01*
X39665072Y-48476000D01*
X39652812Y-48351518D01*
X39616502Y-48231820D01*
X39557537Y-48121506D01*
X39478185Y-48024815D01*
X39381494Y-47945463D01*
X39271180Y-47886498D01*
X39151482Y-47850188D01*
X39027000Y-47837928D01*
X37427000Y-47837928D01*
X37302518Y-47850188D01*
X37182820Y-47886498D01*
X37072506Y-47945463D01*
X36975815Y-48024815D01*
X36896463Y-48121506D01*
X36837498Y-48231820D01*
X36801188Y-48351518D01*
X36788928Y-48476000D01*
X29705276Y-48476000D01*
X29689044Y-48431186D01*
X29399429Y-48290296D01*
X29087892Y-48208616D01*
X28766405Y-48189282D01*
X28447325Y-48233039D01*
X28142912Y-48338205D01*
X27968956Y-48431186D01*
X27873192Y-48695587D01*
X19183242Y-48695587D01*
X19079214Y-48500962D01*
X18763653Y-48344952D01*
X17451605Y-49657000D01*
X17092395Y-49657000D01*
X15780347Y-48344952D01*
X15464786Y-48500962D01*
X15273980Y-48875745D01*
X15159956Y-49280551D01*
X15127098Y-49699824D01*
X13462000Y-49699824D01*
X13462000Y-48165347D01*
X15959952Y-48165347D01*
X17272000Y-49477395D01*
X18584048Y-48165347D01*
X18428038Y-47849786D01*
X18207809Y-47737665D01*
X42380000Y-47737665D01*
X42380000Y-48020335D01*
X42435147Y-48297574D01*
X42543320Y-48558727D01*
X42700363Y-48793759D01*
X42900241Y-48993637D01*
X43135273Y-49150680D01*
X43396426Y-49258853D01*
X43673665Y-49314000D01*
X43956335Y-49314000D01*
X44233574Y-49258853D01*
X44494727Y-49150680D01*
X44729759Y-48993637D01*
X44929637Y-48793759D01*
X45086680Y-48558727D01*
X45194853Y-48297574D01*
X45250000Y-48020335D01*
X45250000Y-47737665D01*
X45194853Y-47460426D01*
X45086680Y-47199273D01*
X45006317Y-47079000D01*
X49996928Y-47079000D01*
X49996928Y-48679000D01*
X50009188Y-48803482D01*
X50045498Y-48923180D01*
X50104463Y-49033494D01*
X50183815Y-49130185D01*
X50280506Y-49209537D01*
X50390820Y-49268502D01*
X50510518Y-49304812D01*
X50635000Y-49317072D01*
X52235000Y-49317072D01*
X52359482Y-49304812D01*
X52479180Y-49268502D01*
X52589494Y-49209537D01*
X52686185Y-49130185D01*
X52765537Y-49033494D01*
X52824502Y-48923180D01*
X52860812Y-48803482D01*
X52873072Y-48679000D01*
X52873072Y-47079000D01*
X52860812Y-46954518D01*
X52824502Y-46834820D01*
X52765537Y-46724506D01*
X52686185Y-46627815D01*
X52589494Y-46548463D01*
X52479180Y-46489498D01*
X52359482Y-46453188D01*
X52235000Y-46440928D01*
X50635000Y-46440928D01*
X50510518Y-46453188D01*
X50390820Y-46489498D01*
X50280506Y-46548463D01*
X50183815Y-46627815D01*
X50104463Y-46724506D01*
X50045498Y-46834820D01*
X50009188Y-46954518D01*
X49996928Y-47079000D01*
X45006317Y-47079000D01*
X44929637Y-46964241D01*
X44729759Y-46764363D01*
X44494727Y-46607320D01*
X44233574Y-46499147D01*
X43956335Y-46444000D01*
X43673665Y-46444000D01*
X43396426Y-46499147D01*
X43135273Y-46607320D01*
X42900241Y-46764363D01*
X42700363Y-46964241D01*
X42543320Y-47199273D01*
X42435147Y-47460426D01*
X42380000Y-47737665D01*
X18207809Y-47737665D01*
X18053255Y-47658980D01*
X17648449Y-47544956D01*
X17229176Y-47512098D01*
X16811549Y-47561666D01*
X16411617Y-47691757D01*
X16115962Y-47849786D01*
X15959952Y-48165347D01*
X13462000Y-48165347D01*
X13462000Y-43077000D01*
X15133928Y-43077000D01*
X15133928Y-46077000D01*
X15146188Y-46201482D01*
X15182498Y-46321180D01*
X15241463Y-46431494D01*
X15320815Y-46528185D01*
X15417506Y-46607537D01*
X15527820Y-46666502D01*
X15647518Y-46702812D01*
X15772000Y-46715072D01*
X18772000Y-46715072D01*
X18896482Y-46702812D01*
X19016180Y-46666502D01*
X19126494Y-46607537D01*
X19223185Y-46528185D01*
X19302537Y-46431494D01*
X19361502Y-46321180D01*
X19397812Y-46201482D01*
X19410072Y-46077000D01*
X19410072Y-43831000D01*
X27190928Y-43831000D01*
X27190928Y-45831000D01*
X27203188Y-45955482D01*
X27239498Y-46075180D01*
X27298463Y-46185494D01*
X27377815Y-46282185D01*
X27474506Y-46361537D01*
X27584820Y-46420502D01*
X27704518Y-46456812D01*
X27829000Y-46469072D01*
X29829000Y-46469072D01*
X29953482Y-46456812D01*
X30073180Y-46420502D01*
X30183494Y-46361537D01*
X30280185Y-46282185D01*
X30359537Y-46185494D01*
X30418502Y-46075180D01*
X30454812Y-45955482D01*
X30467072Y-45831000D01*
X30467072Y-43831000D01*
X30454812Y-43706518D01*
X30418502Y-43586820D01*
X30359537Y-43476506D01*
X30280185Y-43379815D01*
X30183494Y-43300463D01*
X30073180Y-43241498D01*
X29953482Y-43205188D01*
X29829000Y-43192928D01*
X27829000Y-43192928D01*
X27704518Y-43205188D01*
X27584820Y-43241498D01*
X27474506Y-43300463D01*
X27377815Y-43379815D01*
X27298463Y-43476506D01*
X27239498Y-43586820D01*
X27203188Y-43706518D01*
X27190928Y-43831000D01*
X19410072Y-43831000D01*
X19410072Y-43077000D01*
X19397812Y-42952518D01*
X19378241Y-42888000D01*
X61299928Y-42888000D01*
X61299928Y-44488000D01*
X61312188Y-44612482D01*
X61348498Y-44732180D01*
X61407463Y-44842494D01*
X61486815Y-44939185D01*
X61583506Y-45018537D01*
X61693820Y-45077502D01*
X61813518Y-45113812D01*
X61938000Y-45126072D01*
X63538000Y-45126072D01*
X63662482Y-45113812D01*
X63782180Y-45077502D01*
X63892494Y-45018537D01*
X63989185Y-44939185D01*
X64068537Y-44842494D01*
X64127502Y-44732180D01*
X64163812Y-44612482D01*
X64176072Y-44488000D01*
X64176072Y-43546665D01*
X68923000Y-43546665D01*
X68923000Y-43829335D01*
X68978147Y-44106574D01*
X69086320Y-44367727D01*
X69243363Y-44602759D01*
X69443241Y-44802637D01*
X69678273Y-44959680D01*
X69939426Y-45067853D01*
X70216665Y-45123000D01*
X70499335Y-45123000D01*
X70776574Y-45067853D01*
X71037727Y-44959680D01*
X71272759Y-44802637D01*
X71472637Y-44602759D01*
X71629680Y-44367727D01*
X71737853Y-44106574D01*
X71793000Y-43829335D01*
X71793000Y-43546665D01*
X71737853Y-43269426D01*
X71629680Y-43008273D01*
X71472637Y-42773241D01*
X71272759Y-42573363D01*
X71037727Y-42416320D01*
X70776574Y-42308147D01*
X70499335Y-42253000D01*
X70216665Y-42253000D01*
X69939426Y-42308147D01*
X69678273Y-42416320D01*
X69443241Y-42573363D01*
X69243363Y-42773241D01*
X69086320Y-43008273D01*
X68978147Y-43269426D01*
X68923000Y-43546665D01*
X64176072Y-43546665D01*
X64176072Y-42888000D01*
X64163812Y-42763518D01*
X64127502Y-42643820D01*
X64068537Y-42533506D01*
X63989185Y-42436815D01*
X63892494Y-42357463D01*
X63782180Y-42298498D01*
X63662482Y-42262188D01*
X63538000Y-42249928D01*
X61938000Y-42249928D01*
X61813518Y-42262188D01*
X61693820Y-42298498D01*
X61583506Y-42357463D01*
X61486815Y-42436815D01*
X61407463Y-42533506D01*
X61348498Y-42643820D01*
X61312188Y-42763518D01*
X61299928Y-42888000D01*
X19378241Y-42888000D01*
X19361502Y-42832820D01*
X19302537Y-42722506D01*
X19223185Y-42625815D01*
X19126494Y-42546463D01*
X19016180Y-42487498D01*
X18896482Y-42451188D01*
X18772000Y-42438928D01*
X15772000Y-42438928D01*
X15647518Y-42451188D01*
X15527820Y-42487498D01*
X15417506Y-42546463D01*
X15320815Y-42625815D01*
X15241463Y-42722506D01*
X15182498Y-42832820D01*
X15146188Y-42952518D01*
X15133928Y-43077000D01*
X13462000Y-43077000D01*
X13462000Y-38595502D01*
X17322503Y-38595502D01*
X17394086Y-38839471D01*
X17649596Y-38960371D01*
X17923784Y-39029100D01*
X18206112Y-39043017D01*
X18485730Y-39001587D01*
X18751892Y-38906403D01*
X18877114Y-38839471D01*
X18948697Y-38595502D01*
X18135600Y-37782405D01*
X17322503Y-38595502D01*
X13462000Y-38595502D01*
X13462000Y-37673312D01*
X16695383Y-37673312D01*
X16736813Y-37952930D01*
X16831997Y-38219092D01*
X16898929Y-38344314D01*
X17142898Y-38415897D01*
X17955995Y-37602800D01*
X18315205Y-37602800D01*
X19128302Y-38415897D01*
X19372271Y-38344314D01*
X19493171Y-38088804D01*
X19561900Y-37814616D01*
X19575817Y-37532288D01*
X19534387Y-37252670D01*
X19439203Y-36986508D01*
X19372271Y-36861286D01*
X19128302Y-36789703D01*
X18315205Y-37602800D01*
X17955995Y-37602800D01*
X17142898Y-36789703D01*
X16898929Y-36861286D01*
X16778029Y-37116796D01*
X16709300Y-37390984D01*
X16695383Y-37673312D01*
X13462000Y-37673312D01*
X13462000Y-34302800D01*
X16697528Y-34302800D01*
X16697528Y-35902800D01*
X16709788Y-36027282D01*
X16746098Y-36146980D01*
X16805063Y-36257294D01*
X16884415Y-36353985D01*
X16981106Y-36433337D01*
X17091420Y-36492302D01*
X17211118Y-36528612D01*
X17335600Y-36540872D01*
X17342815Y-36540872D01*
X17322503Y-36610098D01*
X18135600Y-37423195D01*
X18948697Y-36610098D01*
X18928385Y-36540872D01*
X18935600Y-36540872D01*
X19060082Y-36528612D01*
X19179780Y-36492302D01*
X19290094Y-36433337D01*
X19386785Y-36353985D01*
X19466137Y-36257294D01*
X19525102Y-36146980D01*
X19561412Y-36027282D01*
X19565301Y-35987800D01*
X23578531Y-35987800D01*
X23622000Y-35992081D01*
X23665469Y-35987800D01*
X23665477Y-35987800D01*
X23795490Y-35974995D01*
X23962313Y-35924389D01*
X24116059Y-35842211D01*
X24250817Y-35731617D01*
X24278534Y-35697844D01*
X33179378Y-26797000D01*
X39369719Y-26797000D01*
X39374000Y-26840470D01*
X39374001Y-28056522D01*
X39369719Y-28100000D01*
X39386805Y-28273490D01*
X39437412Y-28440313D01*
X39519590Y-28594059D01*
X39602468Y-28695046D01*
X39602471Y-28695049D01*
X39630184Y-28728817D01*
X39663951Y-28756529D01*
X40911000Y-30003579D01*
X40911000Y-30092160D01*
X40957884Y-30327861D01*
X41049850Y-30549887D01*
X41183364Y-30749705D01*
X41353295Y-30919636D01*
X41553113Y-31053150D01*
X41775139Y-31145116D01*
X42010840Y-31192000D01*
X42251160Y-31192000D01*
X42486861Y-31145116D01*
X42708887Y-31053150D01*
X42908705Y-30919636D01*
X42971341Y-30857000D01*
X44845422Y-30857000D01*
X46650422Y-32662001D01*
X43532580Y-32662001D01*
X43351000Y-32480421D01*
X43351000Y-32391840D01*
X43304116Y-32156139D01*
X43212150Y-31934113D01*
X43078636Y-31734295D01*
X42908705Y-31564364D01*
X42708887Y-31430850D01*
X42486861Y-31338884D01*
X42251160Y-31292000D01*
X42010840Y-31292000D01*
X41775139Y-31338884D01*
X41553113Y-31430850D01*
X41353295Y-31564364D01*
X41183364Y-31734295D01*
X41049850Y-31934113D01*
X40957884Y-32156139D01*
X40911000Y-32391840D01*
X40911000Y-32632160D01*
X40957884Y-32867861D01*
X41049850Y-33089887D01*
X41183364Y-33289705D01*
X41353295Y-33459636D01*
X41553113Y-33593150D01*
X41775139Y-33685116D01*
X42010840Y-33732000D01*
X42099421Y-33732000D01*
X42509471Y-34142050D01*
X42537184Y-34175818D01*
X42570952Y-34203531D01*
X42570954Y-34203533D01*
X42642453Y-34262211D01*
X42671942Y-34286412D01*
X42825688Y-34368590D01*
X42992511Y-34419196D01*
X43122524Y-34432001D01*
X43122534Y-34432001D01*
X43166000Y-34436282D01*
X43209466Y-34432001D01*
X61659530Y-34432001D01*
X61702999Y-34436282D01*
X61746468Y-34432001D01*
X61746476Y-34432001D01*
X61876489Y-34419196D01*
X62043312Y-34368590D01*
X62197058Y-34286412D01*
X62331816Y-34175818D01*
X62359533Y-34142045D01*
X67520517Y-28981061D01*
X97009000Y-28981061D01*
X97009000Y-29184939D01*
X97048774Y-29384898D01*
X97126795Y-29573256D01*
X97159000Y-29621454D01*
X97159001Y-73489521D01*
X97154719Y-73533000D01*
X97171805Y-73706490D01*
X97222412Y-73873313D01*
X97304590Y-74027059D01*
X97387468Y-74128046D01*
X97387471Y-74128049D01*
X97415184Y-74161817D01*
X97448951Y-74189529D01*
X99038470Y-75779049D01*
X99066183Y-75812817D01*
X99099951Y-75840530D01*
X99099953Y-75840532D01*
X99200941Y-75923411D01*
X99354686Y-76005589D01*
X99486883Y-76045691D01*
X99521510Y-76056195D01*
X99651523Y-76069000D01*
X99651531Y-76069000D01*
X99695000Y-76073281D01*
X99738469Y-76069000D01*
X100731928Y-76069000D01*
X100731928Y-76684000D01*
X100744188Y-76808482D01*
X100780498Y-76928180D01*
X100839463Y-77038494D01*
X100918815Y-77135185D01*
X101015506Y-77214537D01*
X101125820Y-77273502D01*
X101245518Y-77309812D01*
X101370000Y-77322072D01*
X104370000Y-77322072D01*
X104494482Y-77309812D01*
X104614180Y-77273502D01*
X104724494Y-77214537D01*
X104821185Y-77135185D01*
X104900537Y-77038494D01*
X104959502Y-76928180D01*
X104995812Y-76808482D01*
X105008072Y-76684000D01*
X105008072Y-73684000D01*
X104995812Y-73559518D01*
X104959502Y-73439820D01*
X104900537Y-73329506D01*
X104821185Y-73232815D01*
X104724494Y-73153463D01*
X104614180Y-73094498D01*
X104494482Y-73058188D01*
X104370000Y-73045928D01*
X101370000Y-73045928D01*
X101245518Y-73058188D01*
X101125820Y-73094498D01*
X101015506Y-73153463D01*
X100918815Y-73232815D01*
X100839463Y-73329506D01*
X100780498Y-73439820D01*
X100744188Y-73559518D01*
X100731928Y-73684000D01*
X100731928Y-74299000D01*
X100061579Y-74299000D01*
X98929000Y-73166422D01*
X98929000Y-29621454D01*
X98961205Y-29573256D01*
X99039226Y-29384898D01*
X99079000Y-29184939D01*
X99079000Y-28981061D01*
X99039226Y-28781102D01*
X98961205Y-28592744D01*
X98847937Y-28423226D01*
X98703774Y-28279063D01*
X98534256Y-28165795D01*
X98345898Y-28087774D01*
X98145939Y-28048000D01*
X97942061Y-28048000D01*
X97742102Y-28087774D01*
X97553744Y-28165795D01*
X97384226Y-28279063D01*
X97240063Y-28423226D01*
X97126795Y-28592744D01*
X97048774Y-28781102D01*
X97009000Y-28981061D01*
X67520517Y-28981061D01*
X69425517Y-27076061D01*
X78721000Y-27076061D01*
X78721000Y-27279939D01*
X78760774Y-27479898D01*
X78838795Y-27668256D01*
X78952063Y-27837774D01*
X79096226Y-27981937D01*
X79265744Y-28095205D01*
X79454102Y-28173226D01*
X79654061Y-28213000D01*
X79857939Y-28213000D01*
X80057898Y-28173226D01*
X80246256Y-28095205D01*
X80415774Y-27981937D01*
X80559937Y-27837774D01*
X80579163Y-27809000D01*
X88869546Y-27809000D01*
X88917744Y-27841205D01*
X89106102Y-27919226D01*
X89306061Y-27959000D01*
X89509939Y-27959000D01*
X89709898Y-27919226D01*
X89898256Y-27841205D01*
X90067774Y-27727937D01*
X90211937Y-27583774D01*
X90325205Y-27414256D01*
X90403226Y-27225898D01*
X90443000Y-27025939D01*
X90443000Y-26822061D01*
X90403226Y-26622102D01*
X90325205Y-26433744D01*
X90211937Y-26264226D01*
X90134772Y-26187061D01*
X99168000Y-26187061D01*
X99168000Y-26390939D01*
X99207774Y-26590898D01*
X99285795Y-26779256D01*
X99318000Y-26827454D01*
X99318001Y-67393521D01*
X99313719Y-67437000D01*
X99330805Y-67610490D01*
X99381412Y-67777313D01*
X99463590Y-67931059D01*
X99546468Y-68032046D01*
X99546471Y-68032049D01*
X99574184Y-68065817D01*
X99607951Y-68093529D01*
X100869363Y-69354942D01*
X100817047Y-69481244D01*
X100735000Y-69893721D01*
X100735000Y-70314279D01*
X100817047Y-70726756D01*
X100977988Y-71115302D01*
X101211637Y-71464983D01*
X101509017Y-71762363D01*
X101858698Y-71996012D01*
X102247244Y-72156953D01*
X102659721Y-72239000D01*
X103080279Y-72239000D01*
X103492756Y-72156953D01*
X103881302Y-71996012D01*
X104230983Y-71762363D01*
X104528363Y-71464983D01*
X104762012Y-71115302D01*
X104922953Y-70726756D01*
X105005000Y-70314279D01*
X105005000Y-69893721D01*
X104922953Y-69481244D01*
X104762012Y-69092698D01*
X104528363Y-68743017D01*
X104230983Y-68445637D01*
X103881302Y-68211988D01*
X103492756Y-68051047D01*
X103080279Y-67969000D01*
X102659721Y-67969000D01*
X102247244Y-68051047D01*
X102120942Y-68103363D01*
X101088000Y-67070422D01*
X101088000Y-66199947D01*
X101211637Y-66384983D01*
X101509017Y-66682363D01*
X101858698Y-66916012D01*
X102247244Y-67076953D01*
X102659721Y-67159000D01*
X103080279Y-67159000D01*
X103492756Y-67076953D01*
X103881302Y-66916012D01*
X104230983Y-66682363D01*
X104528363Y-66384983D01*
X104762012Y-66035302D01*
X104922953Y-65646756D01*
X105005000Y-65234279D01*
X105005000Y-64813721D01*
X104922953Y-64401244D01*
X104762012Y-64012698D01*
X104528363Y-63663017D01*
X104230983Y-63365637D01*
X103881302Y-63131988D01*
X103492756Y-62971047D01*
X103080279Y-62889000D01*
X102659721Y-62889000D01*
X102247244Y-62971047D01*
X101858698Y-63131988D01*
X101509017Y-63365637D01*
X101211637Y-63663017D01*
X101088000Y-63848053D01*
X101088000Y-26827454D01*
X101120205Y-26779256D01*
X101198226Y-26590898D01*
X101238000Y-26390939D01*
X101238000Y-26187061D01*
X101198226Y-25987102D01*
X101120205Y-25798744D01*
X101006937Y-25629226D01*
X100862774Y-25485063D01*
X100693256Y-25371795D01*
X100504898Y-25293774D01*
X100304939Y-25254000D01*
X100101061Y-25254000D01*
X99901102Y-25293774D01*
X99712744Y-25371795D01*
X99543226Y-25485063D01*
X99399063Y-25629226D01*
X99285795Y-25798744D01*
X99207774Y-25987102D01*
X99168000Y-26187061D01*
X90134772Y-26187061D01*
X90067774Y-26120063D01*
X89898256Y-26006795D01*
X89709898Y-25928774D01*
X89509939Y-25889000D01*
X89306061Y-25889000D01*
X89106102Y-25928774D01*
X88917744Y-26006795D01*
X88869546Y-26039000D01*
X80053465Y-26039000D01*
X80009999Y-26034719D01*
X79966533Y-26039000D01*
X79966523Y-26039000D01*
X79836510Y-26051805D01*
X79669687Y-26102411D01*
X79558002Y-26162107D01*
X79454102Y-26182774D01*
X79265744Y-26260795D01*
X79096226Y-26374063D01*
X78952063Y-26518226D01*
X78838795Y-26687744D01*
X78760774Y-26876102D01*
X78721000Y-27076061D01*
X69425517Y-27076061D01*
X70978579Y-25523000D01*
X82125531Y-25523000D01*
X82169000Y-25527281D01*
X82212469Y-25523000D01*
X82212477Y-25523000D01*
X82342490Y-25510195D01*
X82509313Y-25459589D01*
X82663059Y-25377411D01*
X82797817Y-25266817D01*
X82825534Y-25233044D01*
X82922043Y-25136535D01*
X82978898Y-25125226D01*
X83167256Y-25047205D01*
X83336774Y-24933937D01*
X83480937Y-24789774D01*
X83594205Y-24620256D01*
X83672226Y-24431898D01*
X83683535Y-24375043D01*
X84440579Y-23618000D01*
X90139546Y-23618000D01*
X90187744Y-23650205D01*
X90376102Y-23728226D01*
X90576061Y-23768000D01*
X90779939Y-23768000D01*
X90979898Y-23728226D01*
X91168256Y-23650205D01*
X91337774Y-23536937D01*
X91481937Y-23392774D01*
X91595205Y-23223256D01*
X91673226Y-23034898D01*
X91713000Y-22834939D01*
X91713000Y-22631061D01*
X91673226Y-22431102D01*
X91595205Y-22242744D01*
X91481937Y-22073226D01*
X91337774Y-21929063D01*
X91168256Y-21815795D01*
X90979898Y-21737774D01*
X90779939Y-21698000D01*
X90576061Y-21698000D01*
X90376102Y-21737774D01*
X90187744Y-21815795D01*
X90139546Y-21848000D01*
X84117465Y-21848000D01*
X84073999Y-21843719D01*
X84030533Y-21848000D01*
X84030523Y-21848000D01*
X83900510Y-21860805D01*
X83733687Y-21911411D01*
X83579941Y-21993589D01*
X83579939Y-21993590D01*
X83579940Y-21993590D01*
X83478953Y-22076468D01*
X83478951Y-22076470D01*
X83445183Y-22104183D01*
X83417470Y-22137951D01*
X82431957Y-23123465D01*
X82375102Y-23134774D01*
X82186744Y-23212795D01*
X82017226Y-23326063D01*
X81873063Y-23470226D01*
X81759795Y-23639744D01*
X81712882Y-23753000D01*
X70655466Y-23753000D01*
X70611999Y-23748719D01*
X70568533Y-23753000D01*
X70568523Y-23753000D01*
X70438510Y-23765805D01*
X70271687Y-23816411D01*
X70117941Y-23898589D01*
X70117939Y-23898590D01*
X70117940Y-23898590D01*
X70016953Y-23981468D01*
X70016951Y-23981470D01*
X69983183Y-24009183D01*
X69955470Y-24042951D01*
X61336421Y-32662001D01*
X51285064Y-32662001D01*
X51291000Y-32632160D01*
X51291000Y-32391840D01*
X51244116Y-32156139D01*
X51152150Y-31934113D01*
X51018636Y-31734295D01*
X50848705Y-31564364D01*
X50648887Y-31430850D01*
X50426861Y-31338884D01*
X50191160Y-31292000D01*
X49950840Y-31292000D01*
X49715139Y-31338884D01*
X49493113Y-31430850D01*
X49293295Y-31564364D01*
X49230659Y-31627000D01*
X48118579Y-31627000D01*
X46343419Y-29851840D01*
X48851000Y-29851840D01*
X48851000Y-30092160D01*
X48897884Y-30327861D01*
X48989850Y-30549887D01*
X49123364Y-30749705D01*
X49293295Y-30919636D01*
X49493113Y-31053150D01*
X49715139Y-31145116D01*
X49950840Y-31192000D01*
X50191160Y-31192000D01*
X50426861Y-31145116D01*
X50648887Y-31053150D01*
X50848705Y-30919636D01*
X51018636Y-30749705D01*
X51152150Y-30549887D01*
X51244116Y-30327861D01*
X51291000Y-30092160D01*
X51291000Y-29851840D01*
X51244116Y-29616139D01*
X51152150Y-29394113D01*
X51018636Y-29194295D01*
X50848705Y-29024364D01*
X50648887Y-28890850D01*
X50426861Y-28798884D01*
X50191160Y-28752000D01*
X49950840Y-28752000D01*
X49715139Y-28798884D01*
X49493113Y-28890850D01*
X49293295Y-29024364D01*
X49123364Y-29194295D01*
X48989850Y-29394113D01*
X48897884Y-29616139D01*
X48851000Y-29851840D01*
X46343419Y-29851840D01*
X45868534Y-29376956D01*
X45840817Y-29343183D01*
X45706059Y-29232589D01*
X45552313Y-29150411D01*
X45385490Y-29099805D01*
X45255477Y-29087000D01*
X45255469Y-29087000D01*
X45212000Y-29082719D01*
X45168531Y-29087000D01*
X42971341Y-29087000D01*
X42908705Y-29024364D01*
X42708887Y-28890850D01*
X42486861Y-28798884D01*
X42251160Y-28752000D01*
X42162579Y-28752000D01*
X42062579Y-28652000D01*
X42251160Y-28652000D01*
X42486861Y-28605116D01*
X42708887Y-28513150D01*
X42908705Y-28379636D01*
X43017310Y-28271031D01*
X49411574Y-28271031D01*
X49457055Y-28493089D01*
X49675860Y-28592475D01*
X49909850Y-28647264D01*
X50150033Y-28655352D01*
X50387178Y-28616427D01*
X50612173Y-28531985D01*
X50684945Y-28493089D01*
X50730426Y-28271031D01*
X50071000Y-27611605D01*
X49411574Y-28271031D01*
X43017310Y-28271031D01*
X43078636Y-28209705D01*
X43212150Y-28009887D01*
X43304116Y-27787861D01*
X43351000Y-27552160D01*
X43351000Y-27511033D01*
X48847648Y-27511033D01*
X48886573Y-27748178D01*
X48971015Y-27973173D01*
X49009911Y-28045945D01*
X49231969Y-28091426D01*
X49891395Y-27432000D01*
X50250605Y-27432000D01*
X50910031Y-28091426D01*
X51132089Y-28045945D01*
X51231475Y-27827140D01*
X51286264Y-27593150D01*
X51294352Y-27352967D01*
X51255427Y-27115822D01*
X51170985Y-26890827D01*
X51132089Y-26818055D01*
X50910031Y-26772574D01*
X50250605Y-27432000D01*
X49891395Y-27432000D01*
X49231969Y-26772574D01*
X49009911Y-26818055D01*
X48910525Y-27036860D01*
X48855736Y-27270850D01*
X48847648Y-27511033D01*
X43351000Y-27511033D01*
X43351000Y-27311840D01*
X43304116Y-27076139D01*
X43212150Y-26854113D01*
X43078636Y-26654295D01*
X43017310Y-26592969D01*
X49411574Y-26592969D01*
X50071000Y-27252395D01*
X50730426Y-26592969D01*
X50684945Y-26370911D01*
X50466140Y-26271525D01*
X50232150Y-26216736D01*
X49991967Y-26208648D01*
X49754822Y-26247573D01*
X49529827Y-26332015D01*
X49457055Y-26370911D01*
X49411574Y-26592969D01*
X43017310Y-26592969D01*
X42908705Y-26484364D01*
X42708887Y-26350850D01*
X42486861Y-26258884D01*
X42251160Y-26212000D01*
X42062578Y-26212000D01*
X42162578Y-26112000D01*
X42251160Y-26112000D01*
X42486861Y-26065116D01*
X42708887Y-25973150D01*
X42908705Y-25839636D01*
X43017310Y-25731031D01*
X49411574Y-25731031D01*
X49457055Y-25953089D01*
X49675860Y-26052475D01*
X49909850Y-26107264D01*
X50150033Y-26115352D01*
X50387178Y-26076427D01*
X50612173Y-25991985D01*
X50684945Y-25953089D01*
X50730426Y-25731031D01*
X50071000Y-25071605D01*
X49411574Y-25731031D01*
X43017310Y-25731031D01*
X43078636Y-25669705D01*
X43212150Y-25469887D01*
X43304116Y-25247861D01*
X43351000Y-25012160D01*
X43351000Y-24971033D01*
X48847648Y-24971033D01*
X48886573Y-25208178D01*
X48971015Y-25433173D01*
X49009911Y-25505945D01*
X49231969Y-25551426D01*
X49891395Y-24892000D01*
X50250605Y-24892000D01*
X50910031Y-25551426D01*
X51132089Y-25505945D01*
X51231475Y-25287140D01*
X51286264Y-25053150D01*
X51294352Y-24812967D01*
X51255427Y-24575822D01*
X51170985Y-24350827D01*
X51132089Y-24278055D01*
X50910031Y-24232574D01*
X50250605Y-24892000D01*
X49891395Y-24892000D01*
X49231969Y-24232574D01*
X49009911Y-24278055D01*
X48910525Y-24496860D01*
X48855736Y-24730850D01*
X48847648Y-24971033D01*
X43351000Y-24971033D01*
X43351000Y-24771840D01*
X43304116Y-24536139D01*
X43212150Y-24314113D01*
X43078636Y-24114295D01*
X43017310Y-24052969D01*
X49411574Y-24052969D01*
X50071000Y-24712395D01*
X50730426Y-24052969D01*
X50684945Y-23830911D01*
X50466140Y-23731525D01*
X50232150Y-23676736D01*
X49991967Y-23668648D01*
X49754822Y-23707573D01*
X49529827Y-23792015D01*
X49457055Y-23830911D01*
X49411574Y-24052969D01*
X43017310Y-24052969D01*
X42908705Y-23944364D01*
X42708887Y-23810850D01*
X42486861Y-23718884D01*
X42251160Y-23672000D01*
X42010840Y-23672000D01*
X41775139Y-23718884D01*
X41553113Y-23810850D01*
X41353295Y-23944364D01*
X41183364Y-24114295D01*
X41049850Y-24314113D01*
X40957884Y-24536139D01*
X40911000Y-24771840D01*
X40911000Y-24860422D01*
X40500955Y-25270467D01*
X40467182Y-25298184D01*
X40356588Y-25432943D01*
X40339490Y-25464931D01*
X39663956Y-26140466D01*
X39630183Y-26168183D01*
X39519589Y-26302942D01*
X39437411Y-26456688D01*
X39386805Y-26623511D01*
X39374000Y-26753524D01*
X39374000Y-26753531D01*
X39369719Y-26797000D01*
X33179378Y-26797000D01*
X36739379Y-23237000D01*
X41290659Y-23237000D01*
X41353295Y-23299636D01*
X41553113Y-23433150D01*
X41775139Y-23525116D01*
X42010840Y-23572000D01*
X42251160Y-23572000D01*
X42486861Y-23525116D01*
X42708887Y-23433150D01*
X42908705Y-23299636D01*
X43017310Y-23191031D01*
X49411574Y-23191031D01*
X49457055Y-23413089D01*
X49675860Y-23512475D01*
X49909850Y-23567264D01*
X50150033Y-23575352D01*
X50387178Y-23536427D01*
X50612173Y-23451985D01*
X50684945Y-23413089D01*
X50730426Y-23191031D01*
X50071000Y-22531605D01*
X49411574Y-23191031D01*
X43017310Y-23191031D01*
X43078636Y-23129705D01*
X43212150Y-22929887D01*
X43304116Y-22707861D01*
X43351000Y-22472160D01*
X43351000Y-22431033D01*
X48847648Y-22431033D01*
X48886573Y-22668178D01*
X48971015Y-22893173D01*
X49009911Y-22965945D01*
X49231969Y-23011426D01*
X49891395Y-22352000D01*
X50250605Y-22352000D01*
X50910031Y-23011426D01*
X51132089Y-22965945D01*
X51231475Y-22747140D01*
X51286264Y-22513150D01*
X51294352Y-22272967D01*
X51255427Y-22035822D01*
X51170985Y-21810827D01*
X51132089Y-21738055D01*
X50910031Y-21692574D01*
X50250605Y-22352000D01*
X49891395Y-22352000D01*
X49231969Y-21692574D01*
X49009911Y-21738055D01*
X48910525Y-21956860D01*
X48855736Y-22190850D01*
X48847648Y-22431033D01*
X43351000Y-22431033D01*
X43351000Y-22231840D01*
X43304116Y-21996139D01*
X43212150Y-21774113D01*
X43078636Y-21574295D01*
X43017310Y-21512969D01*
X49411574Y-21512969D01*
X50071000Y-22172395D01*
X50730426Y-21512969D01*
X50684945Y-21290911D01*
X50466140Y-21191525D01*
X50232150Y-21136736D01*
X49991967Y-21128648D01*
X49754822Y-21167573D01*
X49529827Y-21252015D01*
X49457055Y-21290911D01*
X49411574Y-21512969D01*
X43017310Y-21512969D01*
X42908705Y-21404364D01*
X42708887Y-21270850D01*
X42486861Y-21178884D01*
X42251160Y-21132000D01*
X42010840Y-21132000D01*
X41775139Y-21178884D01*
X41553113Y-21270850D01*
X41353295Y-21404364D01*
X41290659Y-21467000D01*
X36416265Y-21467000D01*
X36372799Y-21462719D01*
X36329333Y-21467000D01*
X36329323Y-21467000D01*
X36199310Y-21479805D01*
X36032487Y-21530411D01*
X35878741Y-21612589D01*
X35878739Y-21612590D01*
X35878740Y-21612590D01*
X35777753Y-21695468D01*
X35777751Y-21695470D01*
X35743983Y-21723183D01*
X35716270Y-21756951D01*
X23255422Y-34217800D01*
X19565301Y-34217800D01*
X19561412Y-34178318D01*
X19525102Y-34058620D01*
X19466137Y-33948306D01*
X19386785Y-33851615D01*
X19290094Y-33772263D01*
X19179780Y-33713298D01*
X19060082Y-33676988D01*
X18935600Y-33664728D01*
X17335600Y-33664728D01*
X17211118Y-33676988D01*
X17091420Y-33713298D01*
X16981106Y-33772263D01*
X16884415Y-33851615D01*
X16805063Y-33948306D01*
X16746098Y-34058620D01*
X16709788Y-34178318D01*
X16697528Y-34302800D01*
X13462000Y-34302800D01*
X13462000Y-28995000D01*
X13980528Y-28995000D01*
X13980528Y-30695000D01*
X13992788Y-30819482D01*
X14029098Y-30939180D01*
X14088063Y-31049494D01*
X14167415Y-31146185D01*
X14264106Y-31225537D01*
X14374420Y-31284502D01*
X14494118Y-31320812D01*
X14618600Y-31333072D01*
X16318600Y-31333072D01*
X16443082Y-31320812D01*
X16562780Y-31284502D01*
X16673094Y-31225537D01*
X16769785Y-31146185D01*
X16849137Y-31049494D01*
X16908102Y-30939180D01*
X16944412Y-30819482D01*
X16956672Y-30695000D01*
X16956672Y-28995000D01*
X16944412Y-28870518D01*
X16908102Y-28750820D01*
X16849137Y-28640506D01*
X16769785Y-28543815D01*
X16673094Y-28464463D01*
X16562780Y-28405498D01*
X16490220Y-28383487D01*
X16622075Y-28251632D01*
X16784590Y-28008411D01*
X16896532Y-27738158D01*
X16953600Y-27451260D01*
X16953600Y-27158740D01*
X16939139Y-27086039D01*
X19772179Y-24253000D01*
X27528546Y-24253000D01*
X27576744Y-24285205D01*
X27765102Y-24363226D01*
X27965061Y-24403000D01*
X28168939Y-24403000D01*
X28368898Y-24363226D01*
X28557256Y-24285205D01*
X28726774Y-24171937D01*
X28870937Y-24027774D01*
X28984205Y-23858256D01*
X29062226Y-23669898D01*
X29102000Y-23469939D01*
X29102000Y-23266061D01*
X29062226Y-23066102D01*
X28984205Y-22877744D01*
X28870937Y-22708226D01*
X28726774Y-22564063D01*
X28557256Y-22450795D01*
X28368898Y-22372774D01*
X28168939Y-22333000D01*
X27965061Y-22333000D01*
X27765102Y-22372774D01*
X27576744Y-22450795D01*
X27528546Y-22483000D01*
X19449069Y-22483000D01*
X19405600Y-22478719D01*
X19362131Y-22483000D01*
X19362123Y-22483000D01*
X19232110Y-22495805D01*
X19065287Y-22546411D01*
X18911541Y-22628589D01*
X18810553Y-22711468D01*
X18810551Y-22711470D01*
X18776783Y-22739183D01*
X18749070Y-22772951D01*
X16945252Y-24576770D01*
X16939139Y-24546039D01*
X21550179Y-19935000D01*
X27401546Y-19935000D01*
X27449744Y-19967205D01*
X27638102Y-20045226D01*
X27838061Y-20085000D01*
X28041939Y-20085000D01*
X28241898Y-20045226D01*
X28430256Y-19967205D01*
X28599774Y-19853937D01*
X28743937Y-19709774D01*
X28755920Y-19691840D01*
X40911000Y-19691840D01*
X40911000Y-19932160D01*
X40957884Y-20167861D01*
X41049850Y-20389887D01*
X41183364Y-20589705D01*
X41353295Y-20759636D01*
X41553113Y-20893150D01*
X41775139Y-20985116D01*
X42010840Y-21032000D01*
X42251160Y-21032000D01*
X42486861Y-20985116D01*
X42708887Y-20893150D01*
X42908705Y-20759636D01*
X43017310Y-20651031D01*
X49411574Y-20651031D01*
X49457055Y-20873089D01*
X49675860Y-20972475D01*
X49909850Y-21027264D01*
X50150033Y-21035352D01*
X50387178Y-20996427D01*
X50612173Y-20911985D01*
X50684945Y-20873089D01*
X50730426Y-20651031D01*
X50071000Y-19991605D01*
X49411574Y-20651031D01*
X43017310Y-20651031D01*
X43078636Y-20589705D01*
X43212150Y-20389887D01*
X43304116Y-20167861D01*
X43351000Y-19932160D01*
X43351000Y-19891033D01*
X48847648Y-19891033D01*
X48886573Y-20128178D01*
X48971015Y-20353173D01*
X49009911Y-20425945D01*
X49231969Y-20471426D01*
X49891395Y-19812000D01*
X50250605Y-19812000D01*
X50910031Y-20471426D01*
X51132089Y-20425945D01*
X51231475Y-20207140D01*
X51286264Y-19973150D01*
X51294352Y-19732967D01*
X51255427Y-19495822D01*
X51170985Y-19270827D01*
X51132089Y-19198055D01*
X50910031Y-19152574D01*
X50250605Y-19812000D01*
X49891395Y-19812000D01*
X49231969Y-19152574D01*
X49009911Y-19198055D01*
X48910525Y-19416860D01*
X48855736Y-19650850D01*
X48847648Y-19891033D01*
X43351000Y-19891033D01*
X43351000Y-19691840D01*
X43304116Y-19456139D01*
X43212150Y-19234113D01*
X43078636Y-19034295D01*
X43017310Y-18972969D01*
X49411574Y-18972969D01*
X50071000Y-19632395D01*
X50730426Y-18972969D01*
X50684945Y-18750911D01*
X50466140Y-18651525D01*
X50232150Y-18596736D01*
X49991967Y-18588648D01*
X49754822Y-18627573D01*
X49529827Y-18712015D01*
X49457055Y-18750911D01*
X49411574Y-18972969D01*
X43017310Y-18972969D01*
X42908705Y-18864364D01*
X42708887Y-18730850D01*
X42486861Y-18638884D01*
X42251160Y-18592000D01*
X42010840Y-18592000D01*
X41775139Y-18638884D01*
X41553113Y-18730850D01*
X41353295Y-18864364D01*
X41183364Y-19034295D01*
X41049850Y-19234113D01*
X40957884Y-19456139D01*
X40911000Y-19691840D01*
X28755920Y-19691840D01*
X28857205Y-19540256D01*
X28935226Y-19351898D01*
X28975000Y-19151939D01*
X28975000Y-18948061D01*
X28935226Y-18748102D01*
X28857205Y-18559744D01*
X28743937Y-18390226D01*
X28599774Y-18246063D01*
X28430256Y-18132795D01*
X28241898Y-18054774D01*
X28041939Y-18015000D01*
X27838061Y-18015000D01*
X27638102Y-18054774D01*
X27449744Y-18132795D01*
X27401546Y-18165000D01*
X21227069Y-18165000D01*
X21183600Y-18160719D01*
X21140131Y-18165000D01*
X21140123Y-18165000D01*
X21010110Y-18177805D01*
X20843286Y-18228411D01*
X20689541Y-18310589D01*
X20588553Y-18393468D01*
X20588551Y-18393470D01*
X20554783Y-18421183D01*
X20527070Y-18454951D01*
X16945252Y-22036770D01*
X16939139Y-22006039D01*
X22258178Y-16687000D01*
X40907928Y-16687000D01*
X40907928Y-17857000D01*
X40920188Y-17981482D01*
X40956498Y-18101180D01*
X41015463Y-18211494D01*
X41094815Y-18308185D01*
X41191506Y-18387537D01*
X41301820Y-18446502D01*
X41421518Y-18482812D01*
X41546000Y-18495072D01*
X42716000Y-18495072D01*
X42840482Y-18482812D01*
X42960180Y-18446502D01*
X43070494Y-18387537D01*
X43167185Y-18308185D01*
X43246537Y-18211494D01*
X43305502Y-18101180D01*
X43341812Y-17981482D01*
X43354072Y-17857000D01*
X43354072Y-17151840D01*
X48851000Y-17151840D01*
X48851000Y-17392160D01*
X48897884Y-17627861D01*
X48989850Y-17849887D01*
X49123364Y-18049705D01*
X49293295Y-18219636D01*
X49493113Y-18353150D01*
X49715139Y-18445116D01*
X49950840Y-18492000D01*
X50191160Y-18492000D01*
X50426861Y-18445116D01*
X50648887Y-18353150D01*
X50848705Y-18219636D01*
X51018636Y-18049705D01*
X51152150Y-17849887D01*
X51244116Y-17627861D01*
X51291000Y-17392160D01*
X51291000Y-17151840D01*
X51244116Y-16916139D01*
X51152150Y-16694113D01*
X51018636Y-16494295D01*
X50848705Y-16324364D01*
X50648887Y-16190850D01*
X50426861Y-16098884D01*
X50191160Y-16052000D01*
X49950840Y-16052000D01*
X49715139Y-16098884D01*
X49493113Y-16190850D01*
X49293295Y-16324364D01*
X49123364Y-16494295D01*
X48989850Y-16694113D01*
X48897884Y-16916139D01*
X48851000Y-17151840D01*
X43354072Y-17151840D01*
X43354072Y-16687000D01*
X43341812Y-16562518D01*
X43305502Y-16442820D01*
X43246537Y-16332506D01*
X43167185Y-16235815D01*
X43070494Y-16156463D01*
X42960180Y-16097498D01*
X42840482Y-16061188D01*
X42716000Y-16048928D01*
X41546000Y-16048928D01*
X41421518Y-16061188D01*
X41301820Y-16097498D01*
X41191506Y-16156463D01*
X41094815Y-16235815D01*
X41015463Y-16332506D01*
X40956498Y-16442820D01*
X40920188Y-16562518D01*
X40907928Y-16687000D01*
X22258178Y-16687000D01*
X22693179Y-16252000D01*
X27528546Y-16252000D01*
X27576744Y-16284205D01*
X27765102Y-16362226D01*
X27965061Y-16402000D01*
X28168939Y-16402000D01*
X28368898Y-16362226D01*
X28557256Y-16284205D01*
X28726774Y-16170937D01*
X28870937Y-16026774D01*
X28984205Y-15857256D01*
X29062226Y-15668898D01*
X29102000Y-15468939D01*
X29102000Y-15265061D01*
X29062226Y-15065102D01*
X28984205Y-14876744D01*
X28870937Y-14707226D01*
X28726774Y-14563063D01*
X28557256Y-14449795D01*
X28368898Y-14371774D01*
X28168939Y-14332000D01*
X27965061Y-14332000D01*
X27765102Y-14371774D01*
X27576744Y-14449795D01*
X27528546Y-14482000D01*
X22370069Y-14482000D01*
X22326600Y-14477719D01*
X22283131Y-14482000D01*
X22283123Y-14482000D01*
X22153110Y-14494805D01*
X21986286Y-14545411D01*
X21832541Y-14627589D01*
X21731553Y-14710468D01*
X21731551Y-14710470D01*
X21697783Y-14738183D01*
X21670070Y-14771951D01*
X15687561Y-20754461D01*
X15614860Y-20740000D01*
X15322340Y-20740000D01*
X15035442Y-20797068D01*
X14765189Y-20909010D01*
X14521968Y-21071525D01*
X14315125Y-21278368D01*
X14152610Y-21521589D01*
X14040668Y-21791842D01*
X13983600Y-22078740D01*
X13983600Y-22371260D01*
X14040668Y-22658158D01*
X14152610Y-22928411D01*
X14315125Y-23171632D01*
X14521968Y-23378475D01*
X14696360Y-23495000D01*
X14521968Y-23611525D01*
X14315125Y-23818368D01*
X14152610Y-24061589D01*
X14040668Y-24331842D01*
X13983600Y-24618740D01*
X13983600Y-24911260D01*
X14040668Y-25198158D01*
X14152610Y-25468411D01*
X14315125Y-25711632D01*
X14521968Y-25918475D01*
X14696360Y-26035000D01*
X14521968Y-26151525D01*
X14315125Y-26358368D01*
X14152610Y-26601589D01*
X14040668Y-26871842D01*
X13983600Y-27158740D01*
X13983600Y-27451260D01*
X14040668Y-27738158D01*
X14152610Y-28008411D01*
X14315125Y-28251632D01*
X14446980Y-28383487D01*
X14374420Y-28405498D01*
X14264106Y-28464463D01*
X14167415Y-28543815D01*
X14088063Y-28640506D01*
X14029098Y-28750820D01*
X13992788Y-28870518D01*
X13980528Y-28995000D01*
X13462000Y-28995000D01*
X13462000Y-20372606D01*
X14657606Y-19177000D01*
X16510000Y-19177000D01*
X16534776Y-19174560D01*
X16558601Y-19167333D01*
X16580557Y-19155597D01*
X16604921Y-19134374D01*
X21647031Y-13462000D01*
X100915128Y-13462000D01*
X109728000Y-21645381D01*
%TA.AperFunction,Conductor*%
D28*
G36*
X109728000Y-21645381D02*
G01*
X109728000Y-101547394D01*
X101547394Y-109728000D01*
X21645381Y-109728000D01*
X18779810Y-106642000D01*
X59775928Y-106642000D01*
X59775928Y-108242000D01*
X59788188Y-108366482D01*
X59824498Y-108486180D01*
X59883463Y-108596494D01*
X59962815Y-108693185D01*
X60059506Y-108772537D01*
X60169820Y-108831502D01*
X60289518Y-108867812D01*
X60414000Y-108880072D01*
X62014000Y-108880072D01*
X62138482Y-108867812D01*
X62258180Y-108831502D01*
X62368494Y-108772537D01*
X62465185Y-108693185D01*
X62544537Y-108596494D01*
X62603502Y-108486180D01*
X62639812Y-108366482D01*
X62652072Y-108242000D01*
X62652072Y-107300665D01*
X67399000Y-107300665D01*
X67399000Y-107583335D01*
X67454147Y-107860574D01*
X67562320Y-108121727D01*
X67719363Y-108356759D01*
X67919241Y-108556637D01*
X68154273Y-108713680D01*
X68415426Y-108821853D01*
X68692665Y-108877000D01*
X68975335Y-108877000D01*
X69252574Y-108821853D01*
X69513727Y-108713680D01*
X69748759Y-108556637D01*
X69948637Y-108356759D01*
X70105680Y-108121727D01*
X70213853Y-107860574D01*
X70269000Y-107583335D01*
X70269000Y-107300665D01*
X70213853Y-107023426D01*
X70105680Y-106762273D01*
X69948637Y-106527241D01*
X69748759Y-106327363D01*
X69513727Y-106170320D01*
X69252574Y-106062147D01*
X68975335Y-106007000D01*
X68692665Y-106007000D01*
X68415426Y-106062147D01*
X68154273Y-106170320D01*
X67919241Y-106327363D01*
X67719363Y-106527241D01*
X67562320Y-106762273D01*
X67454147Y-107023426D01*
X67399000Y-107300665D01*
X62652072Y-107300665D01*
X62652072Y-106642000D01*
X62639812Y-106517518D01*
X62603502Y-106397820D01*
X62544537Y-106287506D01*
X62465185Y-106190815D01*
X62368494Y-106111463D01*
X62258180Y-106052498D01*
X62138482Y-106016188D01*
X62014000Y-106003928D01*
X60414000Y-106003928D01*
X60289518Y-106016188D01*
X60169820Y-106052498D01*
X60059506Y-106111463D01*
X59962815Y-106190815D01*
X59883463Y-106287506D01*
X59824498Y-106397820D01*
X59788188Y-106517518D01*
X59775928Y-106642000D01*
X18779810Y-106642000D01*
X13462000Y-100915128D01*
X13462000Y-100044039D01*
X41007096Y-100044039D01*
X41024633Y-100126818D01*
X41135285Y-100386646D01*
X41294500Y-100619895D01*
X41496161Y-100817601D01*
X41732517Y-100972166D01*
X41994486Y-101077650D01*
X42272000Y-101130000D01*
X42672000Y-101130000D01*
X42672000Y-99822000D01*
X42926000Y-99822000D01*
X42926000Y-101130000D01*
X43326000Y-101130000D01*
X43603514Y-101077650D01*
X43865483Y-100972166D01*
X44101839Y-100817601D01*
X44303500Y-100619895D01*
X44462715Y-100386646D01*
X44573367Y-100126818D01*
X44590904Y-100044039D01*
X44468915Y-99822000D01*
X42926000Y-99822000D01*
X42672000Y-99822000D01*
X41129085Y-99822000D01*
X41007096Y-100044039D01*
X13462000Y-100044039D01*
X13462000Y-64936000D01*
X14259928Y-64936000D01*
X14259928Y-66636000D01*
X14272188Y-66760482D01*
X14308498Y-66880180D01*
X14367463Y-66990494D01*
X14446815Y-67087185D01*
X14543506Y-67166537D01*
X14653820Y-67225502D01*
X14726380Y-67247513D01*
X14594525Y-67379368D01*
X14432010Y-67622589D01*
X14320068Y-67892842D01*
X14263000Y-68179740D01*
X14263000Y-68472260D01*
X14320068Y-68759158D01*
X14432010Y-69029411D01*
X14594525Y-69272632D01*
X14801368Y-69479475D01*
X14975760Y-69596000D01*
X14801368Y-69712525D01*
X14594525Y-69919368D01*
X14432010Y-70162589D01*
X14320068Y-70432842D01*
X14263000Y-70719740D01*
X14263000Y-71012260D01*
X14320068Y-71299158D01*
X14432010Y-71569411D01*
X14594525Y-71812632D01*
X14801368Y-72019475D01*
X14975760Y-72136000D01*
X14801368Y-72252525D01*
X14594525Y-72459368D01*
X14432010Y-72702589D01*
X14320068Y-72972842D01*
X14263000Y-73259740D01*
X14263000Y-73552260D01*
X14320068Y-73839158D01*
X14432010Y-74109411D01*
X14594525Y-74352632D01*
X14801368Y-74559475D01*
X14975760Y-74676000D01*
X14801368Y-74792525D01*
X14594525Y-74999368D01*
X14432010Y-75242589D01*
X14320068Y-75512842D01*
X14263000Y-75799740D01*
X14263000Y-76092260D01*
X14320068Y-76379158D01*
X14432010Y-76649411D01*
X14594525Y-76892632D01*
X14801368Y-77099475D01*
X14975760Y-77216000D01*
X14801368Y-77332525D01*
X14594525Y-77539368D01*
X14432010Y-77782589D01*
X14320068Y-78052842D01*
X14263000Y-78339740D01*
X14263000Y-78632260D01*
X14320068Y-78919158D01*
X14432010Y-79189411D01*
X14594525Y-79432632D01*
X14801368Y-79639475D01*
X14975760Y-79756000D01*
X14801368Y-79872525D01*
X14594525Y-80079368D01*
X14432010Y-80322589D01*
X14320068Y-80592842D01*
X14263000Y-80879740D01*
X14263000Y-81172260D01*
X14320068Y-81459158D01*
X14432010Y-81729411D01*
X14594525Y-81972632D01*
X14801368Y-82179475D01*
X15044589Y-82341990D01*
X15314842Y-82453932D01*
X15601740Y-82511000D01*
X15894260Y-82511000D01*
X15966961Y-82496539D01*
X31220470Y-97750049D01*
X31248183Y-97783817D01*
X31281951Y-97811530D01*
X31281953Y-97811532D01*
X31382941Y-97894411D01*
X31536686Y-97976589D01*
X31686131Y-98021923D01*
X31703510Y-98027195D01*
X31833523Y-98040000D01*
X31833531Y-98040000D01*
X31877000Y-98044281D01*
X31920469Y-98040000D01*
X41268922Y-98040000D01*
X41379392Y-98174608D01*
X41597899Y-98353932D01*
X41725741Y-98422265D01*
X41496161Y-98572399D01*
X41294500Y-98770105D01*
X41135285Y-99003354D01*
X41024633Y-99263182D01*
X41007096Y-99345961D01*
X41129085Y-99568000D01*
X42672000Y-99568000D01*
X42672000Y-99548000D01*
X42926000Y-99548000D01*
X42926000Y-99568000D01*
X44468915Y-99568000D01*
X44590904Y-99345961D01*
X44573367Y-99263182D01*
X44462715Y-99003354D01*
X44303500Y-98770105D01*
X44101839Y-98572399D01*
X43872259Y-98422265D01*
X44000101Y-98353932D01*
X44218608Y-98174608D01*
X44397932Y-97956101D01*
X44531182Y-97706808D01*
X44613236Y-97436309D01*
X44640943Y-97155000D01*
X44613236Y-96873691D01*
X44531182Y-96603192D01*
X44397932Y-96353899D01*
X44218608Y-96135392D01*
X44000101Y-95956068D01*
X43867142Y-95885000D01*
X44000101Y-95813932D01*
X44218608Y-95634608D01*
X44397932Y-95416101D01*
X44531182Y-95166808D01*
X44613236Y-94896309D01*
X44640943Y-94615000D01*
X44613236Y-94333691D01*
X44531182Y-94063192D01*
X44397932Y-93813899D01*
X44218608Y-93595392D01*
X44105518Y-93502581D01*
X44123482Y-93500812D01*
X44243180Y-93464502D01*
X44353494Y-93405537D01*
X44450185Y-93326185D01*
X44529537Y-93229494D01*
X44588502Y-93119180D01*
X44624812Y-92999482D01*
X44637072Y-92875000D01*
X44637072Y-92075000D01*
X48577057Y-92075000D01*
X48604764Y-92356309D01*
X48686818Y-92626808D01*
X48820068Y-92876101D01*
X48999392Y-93094608D01*
X49217899Y-93273932D01*
X49350858Y-93345000D01*
X49217899Y-93416068D01*
X48999392Y-93595392D01*
X48820068Y-93813899D01*
X48686818Y-94063192D01*
X48604764Y-94333691D01*
X48577057Y-94615000D01*
X48604764Y-94896309D01*
X48686818Y-95166808D01*
X48820068Y-95416101D01*
X48999392Y-95634608D01*
X49217899Y-95813932D01*
X49350858Y-95885000D01*
X49217899Y-95956068D01*
X48999392Y-96135392D01*
X48820068Y-96353899D01*
X48686818Y-96603192D01*
X48604764Y-96873691D01*
X48577057Y-97155000D01*
X48604764Y-97436309D01*
X48686818Y-97706808D01*
X48820068Y-97956101D01*
X48999392Y-98174608D01*
X49217899Y-98353932D01*
X49350858Y-98425000D01*
X49217899Y-98496068D01*
X48999392Y-98675392D01*
X48820068Y-98893899D01*
X48686818Y-99143192D01*
X48604764Y-99413691D01*
X48577057Y-99695000D01*
X48604764Y-99976309D01*
X48686818Y-100246808D01*
X48820068Y-100496101D01*
X48999392Y-100714608D01*
X49217899Y-100893932D01*
X49467192Y-101027182D01*
X49737691Y-101109236D01*
X49948508Y-101130000D01*
X50889492Y-101130000D01*
X51100309Y-101109236D01*
X51370808Y-101027182D01*
X51620101Y-100893932D01*
X51838608Y-100714608D01*
X52017932Y-100496101D01*
X52151182Y-100246808D01*
X52233236Y-99976309D01*
X52260943Y-99695000D01*
X52233236Y-99413691D01*
X52151182Y-99143192D01*
X52017932Y-98893899D01*
X51838608Y-98675392D01*
X51620101Y-98496068D01*
X51487142Y-98425000D01*
X51620101Y-98353932D01*
X51838608Y-98174608D01*
X51949078Y-98040000D01*
X52915531Y-98040000D01*
X52959000Y-98044281D01*
X53002469Y-98040000D01*
X53002477Y-98040000D01*
X53132490Y-98027195D01*
X53299313Y-97976589D01*
X53453059Y-97894411D01*
X53587817Y-97783817D01*
X53615534Y-97750044D01*
X56602050Y-94763529D01*
X56635817Y-94735817D01*
X56746411Y-94601059D01*
X56828589Y-94447313D01*
X56879195Y-94280490D01*
X56887516Y-94196000D01*
X60283928Y-94196000D01*
X60283928Y-95796000D01*
X60296188Y-95920482D01*
X60332498Y-96040180D01*
X60391463Y-96150494D01*
X60470815Y-96247185D01*
X60567506Y-96326537D01*
X60677820Y-96385502D01*
X60797518Y-96421812D01*
X60922000Y-96434072D01*
X62522000Y-96434072D01*
X62646482Y-96421812D01*
X62766180Y-96385502D01*
X62876494Y-96326537D01*
X62973185Y-96247185D01*
X63052537Y-96150494D01*
X63111502Y-96040180D01*
X63147812Y-95920482D01*
X63160072Y-95796000D01*
X63160072Y-94854665D01*
X67907000Y-94854665D01*
X67907000Y-95137335D01*
X67962147Y-95414574D01*
X68070320Y-95675727D01*
X68227363Y-95910759D01*
X68427241Y-96110637D01*
X68662273Y-96267680D01*
X68923426Y-96375853D01*
X69200665Y-96431000D01*
X69483335Y-96431000D01*
X69760574Y-96375853D01*
X70021727Y-96267680D01*
X70256759Y-96110637D01*
X70456637Y-95910759D01*
X70613680Y-95675727D01*
X70721853Y-95414574D01*
X70777000Y-95137335D01*
X70777000Y-94854665D01*
X70754590Y-94742000D01*
X76208319Y-94742000D01*
X76238970Y-95053204D01*
X76329745Y-95352449D01*
X76477155Y-95628235D01*
X76675537Y-95869963D01*
X76848609Y-96012000D01*
X76675537Y-96154037D01*
X76477155Y-96395765D01*
X76329745Y-96671551D01*
X76238970Y-96970796D01*
X76208319Y-97282000D01*
X76238970Y-97593204D01*
X76329745Y-97892449D01*
X76477155Y-98168235D01*
X76675537Y-98409963D01*
X76917265Y-98608345D01*
X77193051Y-98755755D01*
X77492296Y-98846530D01*
X77725514Y-98869500D01*
X77976486Y-98869500D01*
X78209704Y-98846530D01*
X78508949Y-98755755D01*
X78784735Y-98608345D01*
X79026463Y-98409963D01*
X79224845Y-98168235D01*
X79372255Y-97892449D01*
X79463030Y-97593204D01*
X79469454Y-97527980D01*
X90611437Y-97527980D01*
X90682429Y-97746094D01*
X90826031Y-98021923D01*
X91020685Y-98264437D01*
X91258911Y-98464316D01*
X91531554Y-98613879D01*
X91828137Y-98707378D01*
X92075000Y-98580570D01*
X92075000Y-97282000D01*
X92329000Y-97282000D01*
X92329000Y-98580570D01*
X92575863Y-98707378D01*
X92872446Y-98613879D01*
X93145089Y-98464316D01*
X93383315Y-98264437D01*
X93577969Y-98021923D01*
X93721571Y-97746094D01*
X93792563Y-97527980D01*
X93672594Y-97282000D01*
X92329000Y-97282000D01*
X92075000Y-97282000D01*
X90731406Y-97282000D01*
X90611437Y-97527980D01*
X79469454Y-97527980D01*
X79493681Y-97282000D01*
X79463030Y-96970796D01*
X79372255Y-96671551D01*
X79224845Y-96395765D01*
X79026463Y-96154037D01*
X78853391Y-96012000D01*
X79026463Y-95869963D01*
X79224845Y-95628235D01*
X79372255Y-95352449D01*
X79463030Y-95053204D01*
X79493681Y-94742000D01*
X79481173Y-94615000D01*
X90559319Y-94615000D01*
X90589970Y-94926204D01*
X90680745Y-95225449D01*
X90828155Y-95501235D01*
X91026537Y-95742963D01*
X91205899Y-95890163D01*
X91020685Y-96045563D01*
X90826031Y-96288077D01*
X90682429Y-96563906D01*
X90611437Y-96782020D01*
X90731406Y-97028000D01*
X92075000Y-97028000D01*
X92075000Y-97008000D01*
X92329000Y-97008000D01*
X92329000Y-97028000D01*
X93672594Y-97028000D01*
X93792563Y-96782020D01*
X93721571Y-96563906D01*
X93577969Y-96288077D01*
X93383315Y-96045563D01*
X93198101Y-95890163D01*
X93377463Y-95742963D01*
X93575845Y-95501235D01*
X93723255Y-95225449D01*
X93814030Y-94926204D01*
X93844681Y-94615000D01*
X93814030Y-94303796D01*
X93723255Y-94004551D01*
X93575845Y-93728765D01*
X93472554Y-93602905D01*
X93556494Y-93558037D01*
X93653185Y-93478685D01*
X93732537Y-93381994D01*
X93791502Y-93271680D01*
X93827812Y-93151982D01*
X93840072Y-93027500D01*
X93840072Y-91122500D01*
X93827812Y-90998018D01*
X93791502Y-90878320D01*
X93732537Y-90768006D01*
X93653185Y-90671315D01*
X93556494Y-90591963D01*
X93446180Y-90532998D01*
X93326482Y-90496688D01*
X93202000Y-90484428D01*
X91202000Y-90484428D01*
X91077518Y-90496688D01*
X90957820Y-90532998D01*
X90847506Y-90591963D01*
X90750815Y-90671315D01*
X90671463Y-90768006D01*
X90612498Y-90878320D01*
X90576188Y-90998018D01*
X90563928Y-91122500D01*
X90563928Y-93027500D01*
X90576188Y-93151982D01*
X90612498Y-93271680D01*
X90671463Y-93381994D01*
X90750815Y-93478685D01*
X90847506Y-93558037D01*
X90931446Y-93602905D01*
X90828155Y-93728765D01*
X90680745Y-94004551D01*
X90589970Y-94303796D01*
X90559319Y-94615000D01*
X79481173Y-94615000D01*
X79463030Y-94430796D01*
X79372255Y-94131551D01*
X79224845Y-93855765D01*
X79121554Y-93729905D01*
X79205494Y-93685037D01*
X79302185Y-93605685D01*
X79381537Y-93508994D01*
X79440502Y-93398680D01*
X79476812Y-93278982D01*
X79489072Y-93154500D01*
X79489072Y-91249500D01*
X79476812Y-91125018D01*
X79440502Y-91005320D01*
X79381537Y-90895006D01*
X79302185Y-90798315D01*
X79205494Y-90718963D01*
X79095180Y-90659998D01*
X78975482Y-90623688D01*
X78851000Y-90611428D01*
X76851000Y-90611428D01*
X76726518Y-90623688D01*
X76606820Y-90659998D01*
X76496506Y-90718963D01*
X76399815Y-90798315D01*
X76320463Y-90895006D01*
X76261498Y-91005320D01*
X76225188Y-91125018D01*
X76212928Y-91249500D01*
X76212928Y-93154500D01*
X76225188Y-93278982D01*
X76261498Y-93398680D01*
X76320463Y-93508994D01*
X76399815Y-93605685D01*
X76496506Y-93685037D01*
X76580446Y-93729905D01*
X76477155Y-93855765D01*
X76329745Y-94131551D01*
X76238970Y-94430796D01*
X76208319Y-94742000D01*
X70754590Y-94742000D01*
X70721853Y-94577426D01*
X70613680Y-94316273D01*
X70456637Y-94081241D01*
X70256759Y-93881363D01*
X70021727Y-93724320D01*
X69760574Y-93616147D01*
X69483335Y-93561000D01*
X69200665Y-93561000D01*
X68923426Y-93616147D01*
X68662273Y-93724320D01*
X68427241Y-93881363D01*
X68227363Y-94081241D01*
X68070320Y-94316273D01*
X67962147Y-94577426D01*
X67907000Y-94854665D01*
X63160072Y-94854665D01*
X63160072Y-94196000D01*
X63147812Y-94071518D01*
X63111502Y-93951820D01*
X63052537Y-93841506D01*
X62973185Y-93744815D01*
X62876494Y-93665463D01*
X62766180Y-93606498D01*
X62646482Y-93570188D01*
X62522000Y-93557928D01*
X60922000Y-93557928D01*
X60797518Y-93570188D01*
X60677820Y-93606498D01*
X60567506Y-93665463D01*
X60470815Y-93744815D01*
X60391463Y-93841506D01*
X60332498Y-93951820D01*
X60296188Y-94071518D01*
X60283928Y-94196000D01*
X56887516Y-94196000D01*
X56892000Y-94150477D01*
X56892000Y-94150469D01*
X56896281Y-94107000D01*
X56892000Y-94063531D01*
X56892000Y-92026521D01*
X56921759Y-92006637D01*
X57121637Y-91806759D01*
X57278680Y-91571727D01*
X57386853Y-91310574D01*
X57442000Y-91033335D01*
X57442000Y-90750665D01*
X57386853Y-90473426D01*
X57278680Y-90212273D01*
X57121637Y-89977241D01*
X56955057Y-89810661D01*
X57051180Y-89781502D01*
X57161494Y-89722537D01*
X57258185Y-89643185D01*
X57337537Y-89546494D01*
X57396502Y-89436180D01*
X57432812Y-89316482D01*
X57445072Y-89192000D01*
X57445072Y-87592000D01*
X57432812Y-87467518D01*
X57396502Y-87347820D01*
X57337537Y-87237506D01*
X57258185Y-87140815D01*
X57161494Y-87061463D01*
X57051180Y-87002498D01*
X56931482Y-86966188D01*
X56807000Y-86953928D01*
X55207000Y-86953928D01*
X55082518Y-86966188D01*
X54962820Y-87002498D01*
X54852506Y-87061463D01*
X54755815Y-87140815D01*
X54676463Y-87237506D01*
X54617498Y-87347820D01*
X54581188Y-87467518D01*
X54568928Y-87592000D01*
X54568928Y-89192000D01*
X54581188Y-89316482D01*
X54617498Y-89436180D01*
X54676463Y-89546494D01*
X54755815Y-89643185D01*
X54852506Y-89722537D01*
X54962820Y-89781502D01*
X55058943Y-89810661D01*
X54892363Y-89977241D01*
X54735320Y-90212273D01*
X54627147Y-90473426D01*
X54572000Y-90750665D01*
X54572000Y-91033335D01*
X54627147Y-91310574D01*
X54735320Y-91571727D01*
X54892363Y-91806759D01*
X55092241Y-92006637D01*
X55122001Y-92026522D01*
X55122000Y-93740421D01*
X52592422Y-96270000D01*
X51949078Y-96270000D01*
X51838608Y-96135392D01*
X51620101Y-95956068D01*
X51487142Y-95885000D01*
X51620101Y-95813932D01*
X51838608Y-95634608D01*
X52017932Y-95416101D01*
X52151182Y-95166808D01*
X52233236Y-94896309D01*
X52260943Y-94615000D01*
X52233236Y-94333691D01*
X52151182Y-94063192D01*
X52017932Y-93813899D01*
X51838608Y-93595392D01*
X51620101Y-93416068D01*
X51487142Y-93345000D01*
X51620101Y-93273932D01*
X51838608Y-93094608D01*
X52017932Y-92876101D01*
X52151182Y-92626808D01*
X52233236Y-92356309D01*
X52260943Y-92075000D01*
X52233236Y-91793691D01*
X52151182Y-91523192D01*
X52017932Y-91273899D01*
X51838608Y-91055392D01*
X51620101Y-90876068D01*
X51370808Y-90742818D01*
X51100309Y-90660764D01*
X50889492Y-90640000D01*
X49948508Y-90640000D01*
X49737691Y-90660764D01*
X49467192Y-90742818D01*
X49217899Y-90876068D01*
X48999392Y-91055392D01*
X48820068Y-91273899D01*
X48686818Y-91523192D01*
X48604764Y-91793691D01*
X48577057Y-92075000D01*
X44637072Y-92075000D01*
X44637072Y-91275000D01*
X44624812Y-91150518D01*
X44588502Y-91030820D01*
X44529537Y-90920506D01*
X44450185Y-90823815D01*
X44353494Y-90744463D01*
X44243180Y-90685498D01*
X44123482Y-90649188D01*
X43999000Y-90636928D01*
X41599000Y-90636928D01*
X41474518Y-90649188D01*
X41354820Y-90685498D01*
X41244506Y-90744463D01*
X41147815Y-90823815D01*
X41068463Y-90920506D01*
X41009498Y-91030820D01*
X40973188Y-91150518D01*
X40960928Y-91275000D01*
X40960928Y-92875000D01*
X40973188Y-92999482D01*
X41009498Y-93119180D01*
X41068463Y-93229494D01*
X41147815Y-93326185D01*
X41244506Y-93405537D01*
X41354820Y-93464502D01*
X41474518Y-93500812D01*
X41492482Y-93502581D01*
X41379392Y-93595392D01*
X41268922Y-93730000D01*
X34529579Y-93730000D01*
X30271281Y-89471702D01*
X35000903Y-89471702D01*
X35072486Y-89715671D01*
X35327996Y-89836571D01*
X35602184Y-89905300D01*
X35884512Y-89919217D01*
X36164130Y-89877787D01*
X36430292Y-89782603D01*
X36555514Y-89715671D01*
X36627097Y-89471702D01*
X35814000Y-88658605D01*
X35000903Y-89471702D01*
X30271281Y-89471702D01*
X29349091Y-88549512D01*
X34373783Y-88549512D01*
X34415213Y-88829130D01*
X34510397Y-89095292D01*
X34577329Y-89220514D01*
X34821298Y-89292097D01*
X35634395Y-88479000D01*
X35993605Y-88479000D01*
X36806702Y-89292097D01*
X37050671Y-89220514D01*
X37171571Y-88965004D01*
X37240300Y-88690816D01*
X37254217Y-88408488D01*
X37212787Y-88128870D01*
X37117603Y-87862708D01*
X37050671Y-87737486D01*
X36806702Y-87665903D01*
X35993605Y-88479000D01*
X35634395Y-88479000D01*
X34821298Y-87665903D01*
X34577329Y-87737486D01*
X34456429Y-87992996D01*
X34387700Y-88267184D01*
X34373783Y-88549512D01*
X29349091Y-88549512D01*
X25978579Y-85179000D01*
X34375928Y-85179000D01*
X34375928Y-86779000D01*
X34388188Y-86903482D01*
X34424498Y-87023180D01*
X34483463Y-87133494D01*
X34562815Y-87230185D01*
X34659506Y-87309537D01*
X34769820Y-87368502D01*
X34889518Y-87404812D01*
X35014000Y-87417072D01*
X35021215Y-87417072D01*
X35000903Y-87486298D01*
X35814000Y-88299395D01*
X36627097Y-87486298D01*
X36606785Y-87417072D01*
X36614000Y-87417072D01*
X36738482Y-87404812D01*
X36858180Y-87368502D01*
X36968494Y-87309537D01*
X37065185Y-87230185D01*
X37144537Y-87133494D01*
X37203502Y-87023180D01*
X37239812Y-86903482D01*
X37252072Y-86779000D01*
X37252072Y-86345665D01*
X41491000Y-86345665D01*
X41491000Y-86628335D01*
X41546147Y-86905574D01*
X41654320Y-87166727D01*
X41811363Y-87401759D01*
X42011241Y-87601637D01*
X42246273Y-87758680D01*
X42507426Y-87866853D01*
X42784665Y-87922000D01*
X43067335Y-87922000D01*
X43344574Y-87866853D01*
X43605727Y-87758680D01*
X43840759Y-87601637D01*
X44040637Y-87401759D01*
X44197680Y-87166727D01*
X44305853Y-86905574D01*
X44361000Y-86628335D01*
X44361000Y-86345665D01*
X44305853Y-86068426D01*
X44197680Y-85807273D01*
X44117317Y-85687000D01*
X49107928Y-85687000D01*
X49107928Y-87287000D01*
X49120188Y-87411482D01*
X49156498Y-87531180D01*
X49215463Y-87641494D01*
X49294815Y-87738185D01*
X49391506Y-87817537D01*
X49501820Y-87876502D01*
X49621518Y-87912812D01*
X49746000Y-87925072D01*
X51346000Y-87925072D01*
X51470482Y-87912812D01*
X51590180Y-87876502D01*
X51700494Y-87817537D01*
X51797185Y-87738185D01*
X51876537Y-87641494D01*
X51935502Y-87531180D01*
X51971812Y-87411482D01*
X51984072Y-87287000D01*
X51984072Y-85687000D01*
X51971812Y-85562518D01*
X51935502Y-85442820D01*
X51876537Y-85332506D01*
X51797185Y-85235815D01*
X51700494Y-85156463D01*
X51590180Y-85097498D01*
X51470482Y-85061188D01*
X51346000Y-85048928D01*
X49746000Y-85048928D01*
X49621518Y-85061188D01*
X49501820Y-85097498D01*
X49391506Y-85156463D01*
X49294815Y-85235815D01*
X49215463Y-85332506D01*
X49156498Y-85442820D01*
X49120188Y-85562518D01*
X49107928Y-85687000D01*
X44117317Y-85687000D01*
X44040637Y-85572241D01*
X43840759Y-85372363D01*
X43605727Y-85215320D01*
X43344574Y-85107147D01*
X43067335Y-85052000D01*
X42784665Y-85052000D01*
X42507426Y-85107147D01*
X42246273Y-85215320D01*
X42011241Y-85372363D01*
X41811363Y-85572241D01*
X41654320Y-85807273D01*
X41546147Y-86068426D01*
X41491000Y-86345665D01*
X37252072Y-86345665D01*
X37252072Y-85179000D01*
X37239812Y-85054518D01*
X37203502Y-84934820D01*
X37144537Y-84824506D01*
X37065185Y-84727815D01*
X36968494Y-84648463D01*
X36858180Y-84589498D01*
X36738482Y-84553188D01*
X36614000Y-84540928D01*
X35014000Y-84540928D01*
X34889518Y-84553188D01*
X34769820Y-84589498D01*
X34659506Y-84648463D01*
X34562815Y-84727815D01*
X34483463Y-84824506D01*
X34424498Y-84934820D01*
X34388188Y-85054518D01*
X34375928Y-85179000D01*
X25978579Y-85179000D01*
X22549579Y-81750000D01*
X57489928Y-81750000D01*
X57489928Y-83350000D01*
X57502188Y-83474482D01*
X57538498Y-83594180D01*
X57597463Y-83704494D01*
X57676815Y-83801185D01*
X57773506Y-83880537D01*
X57883820Y-83939502D01*
X58003518Y-83975812D01*
X58128000Y-83988072D01*
X59728000Y-83988072D01*
X59852482Y-83975812D01*
X59972180Y-83939502D01*
X60082494Y-83880537D01*
X60179185Y-83801185D01*
X60258537Y-83704494D01*
X60317502Y-83594180D01*
X60353812Y-83474482D01*
X60366072Y-83350000D01*
X60366072Y-82408665D01*
X65113000Y-82408665D01*
X65113000Y-82691335D01*
X65168147Y-82968574D01*
X65276320Y-83229727D01*
X65433363Y-83464759D01*
X65633241Y-83664637D01*
X65868273Y-83821680D01*
X66129426Y-83929853D01*
X66406665Y-83985000D01*
X66689335Y-83985000D01*
X66966574Y-83929853D01*
X67227727Y-83821680D01*
X67462759Y-83664637D01*
X67662637Y-83464759D01*
X67819680Y-83229727D01*
X67927853Y-82968574D01*
X67983000Y-82691335D01*
X67983000Y-82408665D01*
X67927853Y-82131426D01*
X67819680Y-81870273D01*
X67674490Y-81652980D01*
X76514437Y-81652980D01*
X76585429Y-81871094D01*
X76729031Y-82146923D01*
X76923685Y-82389437D01*
X77161911Y-82589316D01*
X77434554Y-82738879D01*
X77731137Y-82832378D01*
X77978000Y-82705570D01*
X77978000Y-81407000D01*
X78232000Y-81407000D01*
X78232000Y-82705570D01*
X78478863Y-82832378D01*
X78775446Y-82738879D01*
X79048089Y-82589316D01*
X79286315Y-82389437D01*
X79480969Y-82146923D01*
X79624571Y-81871094D01*
X79695563Y-81652980D01*
X79575594Y-81407000D01*
X78232000Y-81407000D01*
X77978000Y-81407000D01*
X76634406Y-81407000D01*
X76514437Y-81652980D01*
X67674490Y-81652980D01*
X67662637Y-81635241D01*
X67462759Y-81435363D01*
X67227727Y-81278320D01*
X66966574Y-81170147D01*
X66689335Y-81115000D01*
X66406665Y-81115000D01*
X66129426Y-81170147D01*
X65868273Y-81278320D01*
X65633241Y-81435363D01*
X65433363Y-81635241D01*
X65276320Y-81870273D01*
X65168147Y-82131426D01*
X65113000Y-82408665D01*
X60366072Y-82408665D01*
X60366072Y-81750000D01*
X60353812Y-81625518D01*
X60317502Y-81505820D01*
X60258537Y-81395506D01*
X60179185Y-81298815D01*
X60082494Y-81219463D01*
X59972180Y-81160498D01*
X59852482Y-81124188D01*
X59728000Y-81111928D01*
X58128000Y-81111928D01*
X58003518Y-81124188D01*
X57883820Y-81160498D01*
X57773506Y-81219463D01*
X57676815Y-81298815D01*
X57597463Y-81395506D01*
X57538498Y-81505820D01*
X57502188Y-81625518D01*
X57489928Y-81750000D01*
X22549579Y-81750000D01*
X20015618Y-79216039D01*
X41515096Y-79216039D01*
X41532633Y-79298818D01*
X41643285Y-79558646D01*
X41802500Y-79791895D01*
X42004161Y-79989601D01*
X42240517Y-80144166D01*
X42502486Y-80249650D01*
X42780000Y-80302000D01*
X43180000Y-80302000D01*
X43180000Y-78994000D01*
X43434000Y-78994000D01*
X43434000Y-80302000D01*
X43834000Y-80302000D01*
X44111514Y-80249650D01*
X44373483Y-80144166D01*
X44609839Y-79989601D01*
X44811500Y-79791895D01*
X44970715Y-79558646D01*
X45081367Y-79298818D01*
X45098904Y-79216039D01*
X44976915Y-78994000D01*
X43434000Y-78994000D01*
X43180000Y-78994000D01*
X41637085Y-78994000D01*
X41515096Y-79216039D01*
X20015618Y-79216039D01*
X18690534Y-77890956D01*
X18662817Y-77857183D01*
X18528059Y-77746589D01*
X18374313Y-77664411D01*
X18207490Y-77613805D01*
X18077477Y-77601000D01*
X18077469Y-77601000D01*
X18034000Y-77596719D01*
X17990531Y-77601000D01*
X16942656Y-77601000D01*
X16901475Y-77539368D01*
X16694632Y-77332525D01*
X16520240Y-77216000D01*
X16526226Y-77212000D01*
X41776922Y-77212000D01*
X41887392Y-77346608D01*
X42105899Y-77525932D01*
X42233741Y-77594265D01*
X42004161Y-77744399D01*
X41802500Y-77942105D01*
X41643285Y-78175354D01*
X41532633Y-78435182D01*
X41515096Y-78517961D01*
X41637085Y-78740000D01*
X43180000Y-78740000D01*
X43180000Y-78720000D01*
X43434000Y-78720000D01*
X43434000Y-78740000D01*
X44976915Y-78740000D01*
X45098904Y-78517961D01*
X45081367Y-78435182D01*
X44970715Y-78175354D01*
X44811500Y-77942105D01*
X44609839Y-77744399D01*
X44380259Y-77594265D01*
X44508101Y-77525932D01*
X44726608Y-77346608D01*
X44905932Y-77128101D01*
X45039182Y-76878808D01*
X45121236Y-76608309D01*
X45148943Y-76327000D01*
X45121236Y-76045691D01*
X45039182Y-75775192D01*
X44905932Y-75525899D01*
X44726608Y-75307392D01*
X44508101Y-75128068D01*
X44375142Y-75057000D01*
X44508101Y-74985932D01*
X44726608Y-74806608D01*
X44905932Y-74588101D01*
X45039182Y-74338808D01*
X45121236Y-74068309D01*
X45148943Y-73787000D01*
X45121236Y-73505691D01*
X45039182Y-73235192D01*
X44905932Y-72985899D01*
X44726608Y-72767392D01*
X44613518Y-72674581D01*
X44631482Y-72672812D01*
X44751180Y-72636502D01*
X44861494Y-72577537D01*
X44958185Y-72498185D01*
X45037537Y-72401494D01*
X45096502Y-72291180D01*
X45132812Y-72171482D01*
X45145072Y-72047000D01*
X45145072Y-71247000D01*
X49085057Y-71247000D01*
X49112764Y-71528309D01*
X49194818Y-71798808D01*
X49328068Y-72048101D01*
X49507392Y-72266608D01*
X49725899Y-72445932D01*
X49858858Y-72517000D01*
X49725899Y-72588068D01*
X49507392Y-72767392D01*
X49328068Y-72985899D01*
X49194818Y-73235192D01*
X49112764Y-73505691D01*
X49085057Y-73787000D01*
X49112764Y-74068309D01*
X49194818Y-74338808D01*
X49328068Y-74588101D01*
X49507392Y-74806608D01*
X49725899Y-74985932D01*
X49858858Y-75057000D01*
X49725899Y-75128068D01*
X49507392Y-75307392D01*
X49328068Y-75525899D01*
X49194818Y-75775192D01*
X49112764Y-76045691D01*
X49085057Y-76327000D01*
X49112764Y-76608309D01*
X49194818Y-76878808D01*
X49328068Y-77128101D01*
X49507392Y-77346608D01*
X49725899Y-77525932D01*
X49858858Y-77597000D01*
X49725899Y-77668068D01*
X49507392Y-77847392D01*
X49328068Y-78065899D01*
X49194818Y-78315192D01*
X49112764Y-78585691D01*
X49085057Y-78867000D01*
X49112764Y-79148309D01*
X49194818Y-79418808D01*
X49328068Y-79668101D01*
X49507392Y-79886608D01*
X49725899Y-80065932D01*
X49975192Y-80199182D01*
X50245691Y-80281236D01*
X50456508Y-80302000D01*
X51397492Y-80302000D01*
X51608309Y-80281236D01*
X51878808Y-80199182D01*
X52128101Y-80065932D01*
X52346608Y-79886608D01*
X52525932Y-79668101D01*
X52659182Y-79418808D01*
X52741236Y-79148309D01*
X52768943Y-78867000D01*
X52756435Y-78740000D01*
X76462319Y-78740000D01*
X76492970Y-79051204D01*
X76583745Y-79350449D01*
X76731155Y-79626235D01*
X76929537Y-79867963D01*
X77108899Y-80015163D01*
X76923685Y-80170563D01*
X76729031Y-80413077D01*
X76585429Y-80688906D01*
X76514437Y-80907020D01*
X76634406Y-81153000D01*
X77978000Y-81153000D01*
X77978000Y-81133000D01*
X78232000Y-81133000D01*
X78232000Y-81153000D01*
X79575594Y-81153000D01*
X79695563Y-80907020D01*
X79624571Y-80688906D01*
X79480969Y-80413077D01*
X79286315Y-80170563D01*
X79101101Y-80015163D01*
X79280463Y-79867963D01*
X79478845Y-79626235D01*
X79626255Y-79350449D01*
X79717030Y-79051204D01*
X79747681Y-78740000D01*
X79717030Y-78428796D01*
X79626255Y-78129551D01*
X79478845Y-77853765D01*
X79375554Y-77727905D01*
X79459494Y-77683037D01*
X79556185Y-77603685D01*
X79635537Y-77506994D01*
X79694502Y-77396680D01*
X79730812Y-77276982D01*
X79743072Y-77152500D01*
X79743072Y-75247500D01*
X79730812Y-75123018D01*
X79694502Y-75003320D01*
X79635537Y-74893006D01*
X79556185Y-74796315D01*
X79459494Y-74716963D01*
X79349180Y-74657998D01*
X79229482Y-74621688D01*
X79105000Y-74609428D01*
X77105000Y-74609428D01*
X76980518Y-74621688D01*
X76860820Y-74657998D01*
X76750506Y-74716963D01*
X76653815Y-74796315D01*
X76574463Y-74893006D01*
X76515498Y-75003320D01*
X76479188Y-75123018D01*
X76466928Y-75247500D01*
X76466928Y-77152500D01*
X76479188Y-77276982D01*
X76515498Y-77396680D01*
X76574463Y-77506994D01*
X76653815Y-77603685D01*
X76750506Y-77683037D01*
X76834446Y-77727905D01*
X76731155Y-77853765D01*
X76583745Y-78129551D01*
X76492970Y-78428796D01*
X76462319Y-78740000D01*
X52756435Y-78740000D01*
X52741236Y-78585691D01*
X52659182Y-78315192D01*
X52525932Y-78065899D01*
X52346608Y-77847392D01*
X52128101Y-77668068D01*
X51995142Y-77597000D01*
X52128101Y-77525932D01*
X52346608Y-77346608D01*
X52457078Y-77212000D01*
X52788531Y-77212000D01*
X52832000Y-77216281D01*
X52875469Y-77212000D01*
X52875477Y-77212000D01*
X53005490Y-77199195D01*
X53172313Y-77148589D01*
X53326059Y-77066411D01*
X53460817Y-76955817D01*
X53488534Y-76922044D01*
X57745050Y-72665528D01*
X57778817Y-72637817D01*
X57819646Y-72588068D01*
X57889410Y-72503060D01*
X57889411Y-72503059D01*
X57971589Y-72349313D01*
X58022195Y-72182490D01*
X58035000Y-72052477D01*
X58035000Y-72052467D01*
X58039281Y-72009001D01*
X58035000Y-71965535D01*
X58035000Y-70690521D01*
X58064759Y-70670637D01*
X58264637Y-70470759D01*
X58421680Y-70235727D01*
X58529853Y-69974574D01*
X58585000Y-69697335D01*
X58585000Y-69414665D01*
X58529853Y-69137426D01*
X58421680Y-68876273D01*
X58264637Y-68641241D01*
X58098057Y-68474661D01*
X58194180Y-68445502D01*
X58304494Y-68386537D01*
X58401185Y-68307185D01*
X58480537Y-68210494D01*
X58539502Y-68100180D01*
X58575812Y-67980482D01*
X58588072Y-67856000D01*
X58588072Y-67653000D01*
X60537928Y-67653000D01*
X60537928Y-69253000D01*
X60550188Y-69377482D01*
X60586498Y-69497180D01*
X60645463Y-69607494D01*
X60724815Y-69704185D01*
X60821506Y-69783537D01*
X60931820Y-69842502D01*
X61051518Y-69878812D01*
X61176000Y-69891072D01*
X62776000Y-69891072D01*
X62900482Y-69878812D01*
X63020180Y-69842502D01*
X63130494Y-69783537D01*
X63227185Y-69704185D01*
X63306537Y-69607494D01*
X63365502Y-69497180D01*
X63401812Y-69377482D01*
X63414072Y-69253000D01*
X63414072Y-68311665D01*
X68161000Y-68311665D01*
X68161000Y-68594335D01*
X68216147Y-68871574D01*
X68324320Y-69132727D01*
X68481363Y-69367759D01*
X68681241Y-69567637D01*
X68916273Y-69724680D01*
X69177426Y-69832853D01*
X69454665Y-69888000D01*
X69737335Y-69888000D01*
X70014574Y-69832853D01*
X70275727Y-69724680D01*
X70510759Y-69567637D01*
X70710637Y-69367759D01*
X70867680Y-69132727D01*
X70975853Y-68871574D01*
X71031000Y-68594335D01*
X71031000Y-68311665D01*
X70975853Y-68034426D01*
X70867680Y-67773273D01*
X70710637Y-67538241D01*
X70510759Y-67338363D01*
X70275727Y-67181320D01*
X70014574Y-67073147D01*
X69737335Y-67018000D01*
X69454665Y-67018000D01*
X69177426Y-67073147D01*
X68916273Y-67181320D01*
X68681241Y-67338363D01*
X68481363Y-67538241D01*
X68324320Y-67773273D01*
X68216147Y-68034426D01*
X68161000Y-68311665D01*
X63414072Y-68311665D01*
X63414072Y-67653000D01*
X63401812Y-67528518D01*
X63365502Y-67408820D01*
X63306537Y-67298506D01*
X63227185Y-67201815D01*
X63130494Y-67122463D01*
X63020180Y-67063498D01*
X62900482Y-67027188D01*
X62776000Y-67014928D01*
X61176000Y-67014928D01*
X61051518Y-67027188D01*
X60931820Y-67063498D01*
X60821506Y-67122463D01*
X60724815Y-67201815D01*
X60645463Y-67298506D01*
X60586498Y-67408820D01*
X60550188Y-67528518D01*
X60537928Y-67653000D01*
X58588072Y-67653000D01*
X58588072Y-66256000D01*
X58575812Y-66131518D01*
X58539502Y-66011820D01*
X58480537Y-65901506D01*
X58401185Y-65804815D01*
X58304494Y-65725463D01*
X58194180Y-65666498D01*
X58074482Y-65630188D01*
X57950000Y-65617928D01*
X56350000Y-65617928D01*
X56225518Y-65630188D01*
X56105820Y-65666498D01*
X55995506Y-65725463D01*
X55916867Y-65790000D01*
X52483701Y-65790000D01*
X52479812Y-65750518D01*
X52443502Y-65630820D01*
X52384537Y-65520506D01*
X52305185Y-65423815D01*
X52208494Y-65344463D01*
X52098180Y-65285498D01*
X51978482Y-65249188D01*
X51854000Y-65236928D01*
X50254000Y-65236928D01*
X50129518Y-65249188D01*
X50009820Y-65285498D01*
X49899506Y-65344463D01*
X49802815Y-65423815D01*
X49723463Y-65520506D01*
X49664498Y-65630820D01*
X49628188Y-65750518D01*
X49615928Y-65875000D01*
X49615928Y-67475000D01*
X49628188Y-67599482D01*
X49664498Y-67719180D01*
X49723463Y-67829494D01*
X49802815Y-67926185D01*
X49899506Y-68005537D01*
X50009820Y-68064502D01*
X50129518Y-68100812D01*
X50254000Y-68113072D01*
X51854000Y-68113072D01*
X51978482Y-68100812D01*
X52098180Y-68064502D01*
X52208494Y-68005537D01*
X52305185Y-67926185D01*
X52384537Y-67829494D01*
X52443502Y-67719180D01*
X52479812Y-67599482D01*
X52483701Y-67560000D01*
X55711928Y-67560000D01*
X55711928Y-67856000D01*
X55724188Y-67980482D01*
X55760498Y-68100180D01*
X55819463Y-68210494D01*
X55898815Y-68307185D01*
X55995506Y-68386537D01*
X56105820Y-68445502D01*
X56201943Y-68474661D01*
X56035363Y-68641241D01*
X55878320Y-68876273D01*
X55770147Y-69137426D01*
X55715000Y-69414665D01*
X55715000Y-69697335D01*
X55770147Y-69974574D01*
X55878320Y-70235727D01*
X56035363Y-70470759D01*
X56235241Y-70670637D01*
X56265001Y-70690522D01*
X56265000Y-71642421D01*
X52465422Y-75442000D01*
X52457078Y-75442000D01*
X52346608Y-75307392D01*
X52128101Y-75128068D01*
X51995142Y-75057000D01*
X52128101Y-74985932D01*
X52346608Y-74806608D01*
X52525932Y-74588101D01*
X52659182Y-74338808D01*
X52741236Y-74068309D01*
X52768943Y-73787000D01*
X52741236Y-73505691D01*
X52659182Y-73235192D01*
X52525932Y-72985899D01*
X52346608Y-72767392D01*
X52128101Y-72588068D01*
X51995142Y-72517000D01*
X52128101Y-72445932D01*
X52346608Y-72266608D01*
X52525932Y-72048101D01*
X52659182Y-71798808D01*
X52741236Y-71528309D01*
X52768943Y-71247000D01*
X52741236Y-70965691D01*
X52659182Y-70695192D01*
X52525932Y-70445899D01*
X52346608Y-70227392D01*
X52128101Y-70048068D01*
X51878808Y-69914818D01*
X51608309Y-69832764D01*
X51397492Y-69812000D01*
X50456508Y-69812000D01*
X50245691Y-69832764D01*
X49975192Y-69914818D01*
X49725899Y-70048068D01*
X49507392Y-70227392D01*
X49328068Y-70445899D01*
X49194818Y-70695192D01*
X49112764Y-70965691D01*
X49085057Y-71247000D01*
X45145072Y-71247000D01*
X45145072Y-70447000D01*
X45132812Y-70322518D01*
X45096502Y-70202820D01*
X45037537Y-70092506D01*
X44958185Y-69995815D01*
X44861494Y-69916463D01*
X44751180Y-69857498D01*
X44631482Y-69821188D01*
X44507000Y-69808928D01*
X42107000Y-69808928D01*
X41982518Y-69821188D01*
X41862820Y-69857498D01*
X41752506Y-69916463D01*
X41655815Y-69995815D01*
X41576463Y-70092506D01*
X41517498Y-70202820D01*
X41481188Y-70322518D01*
X41468928Y-70447000D01*
X41468928Y-72047000D01*
X41481188Y-72171482D01*
X41517498Y-72291180D01*
X41576463Y-72401494D01*
X41655815Y-72498185D01*
X41752506Y-72577537D01*
X41862820Y-72636502D01*
X41982518Y-72672812D01*
X42000482Y-72674581D01*
X41887392Y-72767392D01*
X41776922Y-72902000D01*
X31989578Y-72902000D01*
X31898534Y-72810956D01*
X31870817Y-72777183D01*
X31736059Y-72666589D01*
X31582313Y-72584411D01*
X31415490Y-72533805D01*
X31285477Y-72521000D01*
X31285469Y-72521000D01*
X31242000Y-72516719D01*
X31198531Y-72521000D01*
X16942656Y-72521000D01*
X16901475Y-72459368D01*
X16694632Y-72252525D01*
X16520240Y-72136000D01*
X16694632Y-72019475D01*
X16901475Y-71812632D01*
X17063990Y-71569411D01*
X17175932Y-71299158D01*
X17233000Y-71012260D01*
X17233000Y-70719740D01*
X17218539Y-70647039D01*
X17824876Y-70040702D01*
X35381903Y-70040702D01*
X35453486Y-70284671D01*
X35708996Y-70405571D01*
X35983184Y-70474300D01*
X36265512Y-70488217D01*
X36545130Y-70446787D01*
X36811292Y-70351603D01*
X36936514Y-70284671D01*
X37008097Y-70040702D01*
X36195000Y-69227605D01*
X35381903Y-70040702D01*
X17824876Y-70040702D01*
X18747066Y-69118512D01*
X34754783Y-69118512D01*
X34796213Y-69398130D01*
X34891397Y-69664292D01*
X34958329Y-69789514D01*
X35202298Y-69861097D01*
X36015395Y-69048000D01*
X36374605Y-69048000D01*
X37187702Y-69861097D01*
X37431671Y-69789514D01*
X37552571Y-69534004D01*
X37621300Y-69259816D01*
X37635217Y-68977488D01*
X37593787Y-68697870D01*
X37498603Y-68431708D01*
X37431671Y-68306486D01*
X37187702Y-68234903D01*
X36374605Y-69048000D01*
X36015395Y-69048000D01*
X35202298Y-68234903D01*
X34958329Y-68306486D01*
X34837429Y-68561996D01*
X34768700Y-68836184D01*
X34754783Y-69118512D01*
X18747066Y-69118512D01*
X22117578Y-65748000D01*
X34756928Y-65748000D01*
X34756928Y-67348000D01*
X34769188Y-67472482D01*
X34805498Y-67592180D01*
X34864463Y-67702494D01*
X34943815Y-67799185D01*
X35040506Y-67878537D01*
X35150820Y-67937502D01*
X35270518Y-67973812D01*
X35395000Y-67986072D01*
X35402215Y-67986072D01*
X35381903Y-68055298D01*
X36195000Y-68868395D01*
X37008097Y-68055298D01*
X36987785Y-67986072D01*
X36995000Y-67986072D01*
X37119482Y-67973812D01*
X37239180Y-67937502D01*
X37349494Y-67878537D01*
X37446185Y-67799185D01*
X37525537Y-67702494D01*
X37584502Y-67592180D01*
X37620812Y-67472482D01*
X37633072Y-67348000D01*
X37633072Y-66533665D01*
X41999000Y-66533665D01*
X41999000Y-66816335D01*
X42054147Y-67093574D01*
X42162320Y-67354727D01*
X42319363Y-67589759D01*
X42519241Y-67789637D01*
X42754273Y-67946680D01*
X43015426Y-68054853D01*
X43292665Y-68110000D01*
X43575335Y-68110000D01*
X43852574Y-68054853D01*
X44113727Y-67946680D01*
X44348759Y-67789637D01*
X44548637Y-67589759D01*
X44705680Y-67354727D01*
X44813853Y-67093574D01*
X44869000Y-66816335D01*
X44869000Y-66533665D01*
X44813853Y-66256426D01*
X44705680Y-65995273D01*
X44548637Y-65760241D01*
X44348759Y-65560363D01*
X44113727Y-65403320D01*
X43852574Y-65295147D01*
X43575335Y-65240000D01*
X43292665Y-65240000D01*
X43015426Y-65295147D01*
X42754273Y-65403320D01*
X42519241Y-65560363D01*
X42319363Y-65760241D01*
X42162320Y-65995273D01*
X42054147Y-66256426D01*
X41999000Y-66533665D01*
X37633072Y-66533665D01*
X37633072Y-65748000D01*
X37620812Y-65623518D01*
X37584502Y-65503820D01*
X37525537Y-65393506D01*
X37446185Y-65296815D01*
X37349494Y-65217463D01*
X37239180Y-65158498D01*
X37119482Y-65122188D01*
X36995000Y-65109928D01*
X35395000Y-65109928D01*
X35270518Y-65122188D01*
X35150820Y-65158498D01*
X35040506Y-65217463D01*
X34943815Y-65296815D01*
X34864463Y-65393506D01*
X34805498Y-65503820D01*
X34769188Y-65623518D01*
X34756928Y-65748000D01*
X22117578Y-65748000D01*
X23857578Y-64008000D01*
X76716319Y-64008000D01*
X76746970Y-64319204D01*
X76837745Y-64618449D01*
X76985155Y-64894235D01*
X77183537Y-65135963D01*
X77356609Y-65278000D01*
X77183537Y-65420037D01*
X76985155Y-65661765D01*
X76837745Y-65937551D01*
X76746970Y-66236796D01*
X76716319Y-66548000D01*
X76746970Y-66859204D01*
X76837745Y-67158449D01*
X76985155Y-67434235D01*
X77183537Y-67675963D01*
X77425265Y-67874345D01*
X77701051Y-68021755D01*
X78000296Y-68112530D01*
X78233514Y-68135500D01*
X78484486Y-68135500D01*
X78717704Y-68112530D01*
X79016949Y-68021755D01*
X79292735Y-67874345D01*
X79534463Y-67675963D01*
X79732845Y-67434235D01*
X79880255Y-67158449D01*
X79971030Y-66859204D01*
X80001681Y-66548000D01*
X79971030Y-66236796D01*
X79880255Y-65937551D01*
X79732845Y-65661765D01*
X79534463Y-65420037D01*
X79361391Y-65278000D01*
X79534463Y-65135963D01*
X79732845Y-64894235D01*
X79880255Y-64618449D01*
X79971030Y-64319204D01*
X80001681Y-64008000D01*
X79971030Y-63696796D01*
X79880255Y-63397551D01*
X79732845Y-63121765D01*
X79629554Y-62995905D01*
X79713494Y-62951037D01*
X79810185Y-62871685D01*
X79889537Y-62774994D01*
X79948502Y-62664680D01*
X79984812Y-62544982D01*
X79997072Y-62420500D01*
X79997072Y-60515500D01*
X79984812Y-60391018D01*
X79948502Y-60271320D01*
X79889537Y-60161006D01*
X79810185Y-60064315D01*
X79713494Y-59984963D01*
X79603180Y-59925998D01*
X79483482Y-59889688D01*
X79359000Y-59877428D01*
X77359000Y-59877428D01*
X77234518Y-59889688D01*
X77114820Y-59925998D01*
X77004506Y-59984963D01*
X76907815Y-60064315D01*
X76828463Y-60161006D01*
X76769498Y-60271320D01*
X76733188Y-60391018D01*
X76720928Y-60515500D01*
X76720928Y-62420500D01*
X76733188Y-62544982D01*
X76769498Y-62664680D01*
X76828463Y-62774994D01*
X76907815Y-62871685D01*
X77004506Y-62951037D01*
X77088446Y-62995905D01*
X76985155Y-63121765D01*
X76837745Y-63397551D01*
X76746970Y-63696796D01*
X76716319Y-64008000D01*
X23857578Y-64008000D01*
X28080539Y-59785039D01*
X42150096Y-59785039D01*
X42167633Y-59867818D01*
X42278285Y-60127646D01*
X42437500Y-60360895D01*
X42639161Y-60558601D01*
X42875517Y-60713166D01*
X43137486Y-60818650D01*
X43415000Y-60871000D01*
X43815000Y-60871000D01*
X43815000Y-59563000D01*
X44069000Y-59563000D01*
X44069000Y-60871000D01*
X44469000Y-60871000D01*
X44746514Y-60818650D01*
X45008483Y-60713166D01*
X45244839Y-60558601D01*
X45446500Y-60360895D01*
X45605715Y-60127646D01*
X45716367Y-59867818D01*
X45733904Y-59785039D01*
X45611915Y-59563000D01*
X44069000Y-59563000D01*
X43815000Y-59563000D01*
X42272085Y-59563000D01*
X42150096Y-59785039D01*
X28080539Y-59785039D01*
X30084579Y-57781000D01*
X42411922Y-57781000D01*
X42522392Y-57915608D01*
X42740899Y-58094932D01*
X42868741Y-58163265D01*
X42639161Y-58313399D01*
X42437500Y-58511105D01*
X42278285Y-58744354D01*
X42167633Y-59004182D01*
X42150096Y-59086961D01*
X42272085Y-59309000D01*
X43815000Y-59309000D01*
X43815000Y-59289000D01*
X44069000Y-59289000D01*
X44069000Y-59309000D01*
X45611915Y-59309000D01*
X45733904Y-59086961D01*
X45716367Y-59004182D01*
X45605715Y-58744354D01*
X45446500Y-58511105D01*
X45244839Y-58313399D01*
X45015259Y-58163265D01*
X45143101Y-58094932D01*
X45361608Y-57915608D01*
X45540932Y-57697101D01*
X45674182Y-57447808D01*
X45756236Y-57177309D01*
X45783943Y-56896000D01*
X45756236Y-56614691D01*
X45674182Y-56344192D01*
X45540932Y-56094899D01*
X45361608Y-55876392D01*
X45143101Y-55697068D01*
X45010142Y-55626000D01*
X45143101Y-55554932D01*
X45361608Y-55375608D01*
X45540932Y-55157101D01*
X45674182Y-54907808D01*
X45756236Y-54637309D01*
X45783943Y-54356000D01*
X45756236Y-54074691D01*
X45674182Y-53804192D01*
X45540932Y-53554899D01*
X45361608Y-53336392D01*
X45248518Y-53243581D01*
X45266482Y-53241812D01*
X45386180Y-53205502D01*
X45496494Y-53146537D01*
X45593185Y-53067185D01*
X45672537Y-52970494D01*
X45731502Y-52860180D01*
X45767812Y-52740482D01*
X45780072Y-52616000D01*
X45780072Y-51816000D01*
X49720057Y-51816000D01*
X49747764Y-52097309D01*
X49829818Y-52367808D01*
X49963068Y-52617101D01*
X50142392Y-52835608D01*
X50360899Y-53014932D01*
X50493858Y-53086000D01*
X50360899Y-53157068D01*
X50142392Y-53336392D01*
X49963068Y-53554899D01*
X49829818Y-53804192D01*
X49747764Y-54074691D01*
X49720057Y-54356000D01*
X49747764Y-54637309D01*
X49829818Y-54907808D01*
X49963068Y-55157101D01*
X50142392Y-55375608D01*
X50360899Y-55554932D01*
X50493858Y-55626000D01*
X50360899Y-55697068D01*
X50142392Y-55876392D01*
X49963068Y-56094899D01*
X49829818Y-56344192D01*
X49747764Y-56614691D01*
X49720057Y-56896000D01*
X49747764Y-57177309D01*
X49829818Y-57447808D01*
X49963068Y-57697101D01*
X50142392Y-57915608D01*
X50360899Y-58094932D01*
X50493858Y-58166000D01*
X50360899Y-58237068D01*
X50142392Y-58416392D01*
X49963068Y-58634899D01*
X49829818Y-58884192D01*
X49747764Y-59154691D01*
X49720057Y-59436000D01*
X49747764Y-59717309D01*
X49829818Y-59987808D01*
X49963068Y-60237101D01*
X50142392Y-60455608D01*
X50360899Y-60634932D01*
X50610192Y-60768182D01*
X50880691Y-60850236D01*
X51091508Y-60871000D01*
X52032492Y-60871000D01*
X52243309Y-60850236D01*
X52513808Y-60768182D01*
X52763101Y-60634932D01*
X52981608Y-60455608D01*
X53160932Y-60237101D01*
X53294182Y-59987808D01*
X53376236Y-59717309D01*
X53403943Y-59436000D01*
X53376236Y-59154691D01*
X53294182Y-58884192D01*
X53160932Y-58634899D01*
X52981608Y-58416392D01*
X52763101Y-58237068D01*
X52630142Y-58166000D01*
X52763101Y-58094932D01*
X52981608Y-57915608D01*
X53099957Y-57771399D01*
X53132490Y-57768195D01*
X53299313Y-57717589D01*
X53453059Y-57635411D01*
X53587817Y-57524817D01*
X53615534Y-57491044D01*
X54375578Y-56731000D01*
X59775928Y-56731000D01*
X59775928Y-58331000D01*
X59788188Y-58455482D01*
X59824498Y-58575180D01*
X59883463Y-58685494D01*
X59962815Y-58782185D01*
X60059506Y-58861537D01*
X60169820Y-58920502D01*
X60289518Y-58956812D01*
X60414000Y-58969072D01*
X62014000Y-58969072D01*
X62138482Y-58956812D01*
X62258180Y-58920502D01*
X62368494Y-58861537D01*
X62465185Y-58782185D01*
X62544537Y-58685494D01*
X62603502Y-58575180D01*
X62639812Y-58455482D01*
X62652072Y-58331000D01*
X62652072Y-57389665D01*
X67399000Y-57389665D01*
X67399000Y-57672335D01*
X67454147Y-57949574D01*
X67562320Y-58210727D01*
X67719363Y-58445759D01*
X67919241Y-58645637D01*
X68154273Y-58802680D01*
X68415426Y-58910853D01*
X68692665Y-58966000D01*
X68975335Y-58966000D01*
X69252574Y-58910853D01*
X69513727Y-58802680D01*
X69748759Y-58645637D01*
X69948637Y-58445759D01*
X70105680Y-58210727D01*
X70213853Y-57949574D01*
X70269000Y-57672335D01*
X70269000Y-57389665D01*
X70213853Y-57112426D01*
X70105680Y-56851273D01*
X69948637Y-56616241D01*
X69748759Y-56416363D01*
X69513727Y-56259320D01*
X69252574Y-56151147D01*
X68975335Y-56096000D01*
X68692665Y-56096000D01*
X68415426Y-56151147D01*
X68154273Y-56259320D01*
X67919241Y-56416363D01*
X67719363Y-56616241D01*
X67562320Y-56851273D01*
X67454147Y-57112426D01*
X67399000Y-57389665D01*
X62652072Y-57389665D01*
X62652072Y-56731000D01*
X62639812Y-56606518D01*
X62603502Y-56486820D01*
X62544537Y-56376506D01*
X62465185Y-56279815D01*
X62368494Y-56200463D01*
X62258180Y-56141498D01*
X62138482Y-56105188D01*
X62014000Y-56092928D01*
X60414000Y-56092928D01*
X60289518Y-56105188D01*
X60169820Y-56141498D01*
X60059506Y-56200463D01*
X59962815Y-56279815D01*
X59883463Y-56376506D01*
X59824498Y-56486820D01*
X59788188Y-56606518D01*
X59775928Y-56731000D01*
X54375578Y-56731000D01*
X59142051Y-51964528D01*
X59175817Y-51936817D01*
X59286411Y-51802059D01*
X59368589Y-51648313D01*
X59419195Y-51481490D01*
X59432000Y-51351477D01*
X59432000Y-51351467D01*
X59436281Y-51308001D01*
X59432000Y-51264535D01*
X59432000Y-50664980D01*
X77022437Y-50664980D01*
X77093429Y-50883094D01*
X77237031Y-51158923D01*
X77431685Y-51401437D01*
X77669911Y-51601316D01*
X77942554Y-51750879D01*
X78239137Y-51844378D01*
X78486000Y-51717570D01*
X78486000Y-50419000D01*
X78740000Y-50419000D01*
X78740000Y-51717570D01*
X78986863Y-51844378D01*
X79283446Y-51750879D01*
X79556089Y-51601316D01*
X79794315Y-51401437D01*
X79988969Y-51158923D01*
X80132571Y-50883094D01*
X80203563Y-50664980D01*
X80083594Y-50419000D01*
X78740000Y-50419000D01*
X78486000Y-50419000D01*
X77142406Y-50419000D01*
X77022437Y-50664980D01*
X59432000Y-50664980D01*
X59432000Y-48719521D01*
X59461759Y-48699637D01*
X59661637Y-48499759D01*
X59818680Y-48264727D01*
X59926853Y-48003574D01*
X59976894Y-47752000D01*
X76970319Y-47752000D01*
X77000970Y-48063204D01*
X77091745Y-48362449D01*
X77239155Y-48638235D01*
X77437537Y-48879963D01*
X77616899Y-49027163D01*
X77431685Y-49182563D01*
X77237031Y-49425077D01*
X77093429Y-49700906D01*
X77022437Y-49919020D01*
X77142406Y-50165000D01*
X78486000Y-50165000D01*
X78486000Y-50145000D01*
X78740000Y-50145000D01*
X78740000Y-50165000D01*
X80083594Y-50165000D01*
X80203563Y-49919020D01*
X80132571Y-49700906D01*
X79988969Y-49425077D01*
X79794315Y-49182563D01*
X79609101Y-49027163D01*
X79788463Y-48879963D01*
X79986845Y-48638235D01*
X80053249Y-48514000D01*
X91194319Y-48514000D01*
X91224970Y-48825204D01*
X91315745Y-49124449D01*
X91463155Y-49400235D01*
X91661537Y-49641963D01*
X91834609Y-49784000D01*
X91661537Y-49926037D01*
X91463155Y-50167765D01*
X91315745Y-50443551D01*
X91224970Y-50742796D01*
X91194319Y-51054000D01*
X91224970Y-51365204D01*
X91315745Y-51664449D01*
X91463155Y-51940235D01*
X91661537Y-52181963D01*
X91903265Y-52380345D01*
X92179051Y-52527755D01*
X92478296Y-52618530D01*
X92711514Y-52641500D01*
X92962486Y-52641500D01*
X93195704Y-52618530D01*
X93494949Y-52527755D01*
X93770735Y-52380345D01*
X94012463Y-52181963D01*
X94210845Y-51940235D01*
X94358255Y-51664449D01*
X94449030Y-51365204D01*
X94479681Y-51054000D01*
X94449030Y-50742796D01*
X94358255Y-50443551D01*
X94210845Y-50167765D01*
X94012463Y-49926037D01*
X93839391Y-49784000D01*
X94012463Y-49641963D01*
X94210845Y-49400235D01*
X94358255Y-49124449D01*
X94449030Y-48825204D01*
X94479681Y-48514000D01*
X94449030Y-48202796D01*
X94358255Y-47903551D01*
X94210845Y-47627765D01*
X94107554Y-47501905D01*
X94191494Y-47457037D01*
X94288185Y-47377685D01*
X94367537Y-47280994D01*
X94426502Y-47170680D01*
X94462812Y-47050982D01*
X94475072Y-46926500D01*
X94475072Y-45021500D01*
X94462812Y-44897018D01*
X94426502Y-44777320D01*
X94367537Y-44667006D01*
X94288185Y-44570315D01*
X94191494Y-44490963D01*
X94081180Y-44431998D01*
X93961482Y-44395688D01*
X93837000Y-44383428D01*
X91837000Y-44383428D01*
X91712518Y-44395688D01*
X91592820Y-44431998D01*
X91482506Y-44490963D01*
X91385815Y-44570315D01*
X91306463Y-44667006D01*
X91247498Y-44777320D01*
X91211188Y-44897018D01*
X91198928Y-45021500D01*
X91198928Y-46926500D01*
X91211188Y-47050982D01*
X91247498Y-47170680D01*
X91306463Y-47280994D01*
X91385815Y-47377685D01*
X91482506Y-47457037D01*
X91566446Y-47501905D01*
X91463155Y-47627765D01*
X91315745Y-47903551D01*
X91224970Y-48202796D01*
X91194319Y-48514000D01*
X80053249Y-48514000D01*
X80134255Y-48362449D01*
X80225030Y-48063204D01*
X80255681Y-47752000D01*
X80225030Y-47440796D01*
X80134255Y-47141551D01*
X79986845Y-46865765D01*
X79883554Y-46739905D01*
X79967494Y-46695037D01*
X80064185Y-46615685D01*
X80143537Y-46518994D01*
X80202502Y-46408680D01*
X80238812Y-46288982D01*
X80251072Y-46164500D01*
X80251072Y-44259500D01*
X80238812Y-44135018D01*
X80202502Y-44015320D01*
X80143537Y-43905006D01*
X80064185Y-43808315D01*
X79967494Y-43728963D01*
X79857180Y-43669998D01*
X79737482Y-43633688D01*
X79613000Y-43621428D01*
X77613000Y-43621428D01*
X77488518Y-43633688D01*
X77368820Y-43669998D01*
X77258506Y-43728963D01*
X77161815Y-43808315D01*
X77082463Y-43905006D01*
X77023498Y-44015320D01*
X76987188Y-44135018D01*
X76974928Y-44259500D01*
X76974928Y-46164500D01*
X76987188Y-46288982D01*
X77023498Y-46408680D01*
X77082463Y-46518994D01*
X77161815Y-46615685D01*
X77258506Y-46695037D01*
X77342446Y-46739905D01*
X77239155Y-46865765D01*
X77091745Y-47141551D01*
X77000970Y-47440796D01*
X76970319Y-47752000D01*
X59976894Y-47752000D01*
X59982000Y-47726335D01*
X59982000Y-47443665D01*
X59926853Y-47166426D01*
X59818680Y-46905273D01*
X59661637Y-46670241D01*
X59495057Y-46503661D01*
X59591180Y-46474502D01*
X59701494Y-46415537D01*
X59798185Y-46336185D01*
X59877537Y-46239494D01*
X59936502Y-46129180D01*
X59972812Y-46009482D01*
X59985072Y-45885000D01*
X59985072Y-44285000D01*
X59972812Y-44160518D01*
X59936502Y-44040820D01*
X59877537Y-43930506D01*
X59798185Y-43833815D01*
X59701494Y-43754463D01*
X59591180Y-43695498D01*
X59471482Y-43659188D01*
X59347000Y-43646928D01*
X57747000Y-43646928D01*
X57622518Y-43659188D01*
X57502820Y-43695498D01*
X57392506Y-43754463D01*
X57295815Y-43833815D01*
X57216463Y-43930506D01*
X57157498Y-44040820D01*
X57121188Y-44160518D01*
X57108928Y-44285000D01*
X57108928Y-45885000D01*
X57121188Y-46009482D01*
X57157498Y-46129180D01*
X57216463Y-46239494D01*
X57295815Y-46336185D01*
X57392506Y-46415537D01*
X57502820Y-46474502D01*
X57598943Y-46503661D01*
X57432363Y-46670241D01*
X57275320Y-46905273D01*
X57167147Y-47166426D01*
X57112000Y-47443665D01*
X57112000Y-47726335D01*
X57167147Y-48003574D01*
X57275320Y-48264727D01*
X57432363Y-48499759D01*
X57632241Y-48699637D01*
X57662001Y-48719522D01*
X57662000Y-50941421D01*
X52841782Y-55761640D01*
X52763101Y-55697068D01*
X52630142Y-55626000D01*
X52763101Y-55554932D01*
X52981608Y-55375608D01*
X53160932Y-55157101D01*
X53294182Y-54907808D01*
X53376236Y-54637309D01*
X53403943Y-54356000D01*
X53376236Y-54074691D01*
X53294182Y-53804192D01*
X53160932Y-53554899D01*
X52981608Y-53336392D01*
X52763101Y-53157068D01*
X52630142Y-53086000D01*
X52763101Y-53014932D01*
X52981608Y-52835608D01*
X53160932Y-52617101D01*
X53294182Y-52367808D01*
X53376236Y-52097309D01*
X53403943Y-51816000D01*
X53376236Y-51534691D01*
X53294182Y-51264192D01*
X53160932Y-51014899D01*
X52981608Y-50796392D01*
X52763101Y-50617068D01*
X52513808Y-50483818D01*
X52243309Y-50401764D01*
X52032492Y-50381000D01*
X51091508Y-50381000D01*
X50880691Y-50401764D01*
X50610192Y-50483818D01*
X50360899Y-50617068D01*
X50142392Y-50796392D01*
X49963068Y-51014899D01*
X49829818Y-51264192D01*
X49747764Y-51534691D01*
X49720057Y-51816000D01*
X45780072Y-51816000D01*
X45780072Y-51016000D01*
X45767812Y-50891518D01*
X45731502Y-50771820D01*
X45672537Y-50661506D01*
X45593185Y-50564815D01*
X45496494Y-50485463D01*
X45386180Y-50426498D01*
X45266482Y-50390188D01*
X45142000Y-50377928D01*
X42742000Y-50377928D01*
X42617518Y-50390188D01*
X42497820Y-50426498D01*
X42387506Y-50485463D01*
X42290815Y-50564815D01*
X42211463Y-50661506D01*
X42152498Y-50771820D01*
X42116188Y-50891518D01*
X42103928Y-51016000D01*
X42103928Y-52616000D01*
X42116188Y-52740482D01*
X42152498Y-52860180D01*
X42211463Y-52970494D01*
X42290815Y-53067185D01*
X42387506Y-53146537D01*
X42497820Y-53205502D01*
X42617518Y-53241812D01*
X42635482Y-53243581D01*
X42522392Y-53336392D01*
X42411922Y-53471000D01*
X29761465Y-53471000D01*
X29717999Y-53466719D01*
X29674533Y-53471000D01*
X29674523Y-53471000D01*
X29544510Y-53483805D01*
X29377687Y-53534411D01*
X29223941Y-53616589D01*
X29223939Y-53616590D01*
X29223940Y-53616590D01*
X29122953Y-53699468D01*
X29122951Y-53699470D01*
X29089183Y-53727183D01*
X29061470Y-53760951D01*
X17236072Y-65586350D01*
X17236072Y-64936000D01*
X17223812Y-64811518D01*
X17187502Y-64691820D01*
X17128537Y-64581506D01*
X17049185Y-64484815D01*
X16952494Y-64405463D01*
X16842180Y-64346498D01*
X16722482Y-64310188D01*
X16598000Y-64297928D01*
X14898000Y-64297928D01*
X14773518Y-64310188D01*
X14653820Y-64346498D01*
X14543506Y-64405463D01*
X14446815Y-64484815D01*
X14367463Y-64581506D01*
X14308498Y-64691820D01*
X14272188Y-64811518D01*
X14259928Y-64936000D01*
X13462000Y-64936000D01*
X13462000Y-52768702D01*
X37413903Y-52768702D01*
X37485486Y-53012671D01*
X37740996Y-53133571D01*
X38015184Y-53202300D01*
X38297512Y-53216217D01*
X38577130Y-53174787D01*
X38843292Y-53079603D01*
X38968514Y-53012671D01*
X39040097Y-52768702D01*
X38227000Y-51955605D01*
X37413903Y-52768702D01*
X13462000Y-52768702D01*
X13462000Y-51846512D01*
X36786783Y-51846512D01*
X36828213Y-52126130D01*
X36923397Y-52392292D01*
X36990329Y-52517514D01*
X37234298Y-52589097D01*
X38047395Y-51776000D01*
X38406605Y-51776000D01*
X39219702Y-52589097D01*
X39463671Y-52517514D01*
X39584571Y-52262004D01*
X39653300Y-51987816D01*
X39667217Y-51705488D01*
X39625787Y-51425870D01*
X39530603Y-51159708D01*
X39463671Y-51034486D01*
X39219702Y-50962903D01*
X38406605Y-51776000D01*
X38047395Y-51776000D01*
X37234298Y-50962903D01*
X36990329Y-51034486D01*
X36869429Y-51289996D01*
X36800700Y-51564184D01*
X36786783Y-51846512D01*
X13462000Y-51846512D01*
X13462000Y-51148653D01*
X15959952Y-51148653D01*
X16115962Y-51464214D01*
X16490745Y-51655020D01*
X16895551Y-51769044D01*
X17314824Y-51801902D01*
X17732451Y-51752334D01*
X18132383Y-51622243D01*
X18428038Y-51464214D01*
X18584048Y-51148653D01*
X17272000Y-49836605D01*
X15959952Y-51148653D01*
X13462000Y-51148653D01*
X13462000Y-49699824D01*
X15127098Y-49699824D01*
X15176666Y-50117451D01*
X15306757Y-50517383D01*
X15464786Y-50813038D01*
X15780347Y-50969048D01*
X17092395Y-49657000D01*
X17451605Y-49657000D01*
X18763653Y-50969048D01*
X18768982Y-50966413D01*
X27873192Y-50966413D01*
X27968956Y-51230814D01*
X28258571Y-51371704D01*
X28570108Y-51453384D01*
X28891595Y-51472718D01*
X29210675Y-51428961D01*
X29515088Y-51323795D01*
X29689044Y-51230814D01*
X29784808Y-50966413D01*
X28829000Y-50010605D01*
X27873192Y-50966413D01*
X18768982Y-50966413D01*
X19079214Y-50813038D01*
X19270020Y-50438255D01*
X19384044Y-50033449D01*
X19395004Y-49893595D01*
X27187282Y-49893595D01*
X27231039Y-50212675D01*
X27336205Y-50517088D01*
X27429186Y-50691044D01*
X27693587Y-50786808D01*
X28649395Y-49831000D01*
X29008605Y-49831000D01*
X29964413Y-50786808D01*
X30228814Y-50691044D01*
X30369704Y-50401429D01*
X30451384Y-50089892D01*
X30470718Y-49768405D01*
X30426961Y-49449325D01*
X30321795Y-49144912D01*
X30228814Y-48970956D01*
X29964413Y-48875192D01*
X29008605Y-49831000D01*
X28649395Y-49831000D01*
X27693587Y-48875192D01*
X27429186Y-48970956D01*
X27288296Y-49260571D01*
X27206616Y-49572108D01*
X27187282Y-49893595D01*
X19395004Y-49893595D01*
X19416902Y-49614176D01*
X19367334Y-49196549D01*
X19237243Y-48796617D01*
X19183242Y-48695587D01*
X27873192Y-48695587D01*
X28829000Y-49651395D01*
X29784808Y-48695587D01*
X29705276Y-48476000D01*
X36788928Y-48476000D01*
X36788928Y-50076000D01*
X36801188Y-50200482D01*
X36837498Y-50320180D01*
X36896463Y-50430494D01*
X36975815Y-50527185D01*
X37072506Y-50606537D01*
X37182820Y-50665502D01*
X37302518Y-50701812D01*
X37427000Y-50714072D01*
X37434215Y-50714072D01*
X37413903Y-50783298D01*
X38227000Y-51596395D01*
X39040097Y-50783298D01*
X39019785Y-50714072D01*
X39027000Y-50714072D01*
X39151482Y-50701812D01*
X39271180Y-50665502D01*
X39381494Y-50606537D01*
X39478185Y-50527185D01*
X39557537Y-50430494D01*
X39616502Y-50320180D01*
X39652812Y-50200482D01*
X39665072Y-50076000D01*
X39665072Y-48476000D01*
X39652812Y-48351518D01*
X39616502Y-48231820D01*
X39557537Y-48121506D01*
X39478185Y-48024815D01*
X39381494Y-47945463D01*
X39271180Y-47886498D01*
X39151482Y-47850188D01*
X39027000Y-47837928D01*
X37427000Y-47837928D01*
X37302518Y-47850188D01*
X37182820Y-47886498D01*
X37072506Y-47945463D01*
X36975815Y-48024815D01*
X36896463Y-48121506D01*
X36837498Y-48231820D01*
X36801188Y-48351518D01*
X36788928Y-48476000D01*
X29705276Y-48476000D01*
X29689044Y-48431186D01*
X29399429Y-48290296D01*
X29087892Y-48208616D01*
X28766405Y-48189282D01*
X28447325Y-48233039D01*
X28142912Y-48338205D01*
X27968956Y-48431186D01*
X27873192Y-48695587D01*
X19183242Y-48695587D01*
X19079214Y-48500962D01*
X18763653Y-48344952D01*
X17451605Y-49657000D01*
X17092395Y-49657000D01*
X15780347Y-48344952D01*
X15464786Y-48500962D01*
X15273980Y-48875745D01*
X15159956Y-49280551D01*
X15127098Y-49699824D01*
X13462000Y-49699824D01*
X13462000Y-48165347D01*
X15959952Y-48165347D01*
X17272000Y-49477395D01*
X18584048Y-48165347D01*
X18428038Y-47849786D01*
X18207809Y-47737665D01*
X42380000Y-47737665D01*
X42380000Y-48020335D01*
X42435147Y-48297574D01*
X42543320Y-48558727D01*
X42700363Y-48793759D01*
X42900241Y-48993637D01*
X43135273Y-49150680D01*
X43396426Y-49258853D01*
X43673665Y-49314000D01*
X43956335Y-49314000D01*
X44233574Y-49258853D01*
X44494727Y-49150680D01*
X44729759Y-48993637D01*
X44929637Y-48793759D01*
X45086680Y-48558727D01*
X45194853Y-48297574D01*
X45250000Y-48020335D01*
X45250000Y-47737665D01*
X45194853Y-47460426D01*
X45086680Y-47199273D01*
X45006317Y-47079000D01*
X49996928Y-47079000D01*
X49996928Y-48679000D01*
X50009188Y-48803482D01*
X50045498Y-48923180D01*
X50104463Y-49033494D01*
X50183815Y-49130185D01*
X50280506Y-49209537D01*
X50390820Y-49268502D01*
X50510518Y-49304812D01*
X50635000Y-49317072D01*
X52235000Y-49317072D01*
X52359482Y-49304812D01*
X52479180Y-49268502D01*
X52589494Y-49209537D01*
X52686185Y-49130185D01*
X52765537Y-49033494D01*
X52824502Y-48923180D01*
X52860812Y-48803482D01*
X52873072Y-48679000D01*
X52873072Y-47079000D01*
X52860812Y-46954518D01*
X52824502Y-46834820D01*
X52765537Y-46724506D01*
X52686185Y-46627815D01*
X52589494Y-46548463D01*
X52479180Y-46489498D01*
X52359482Y-46453188D01*
X52235000Y-46440928D01*
X50635000Y-46440928D01*
X50510518Y-46453188D01*
X50390820Y-46489498D01*
X50280506Y-46548463D01*
X50183815Y-46627815D01*
X50104463Y-46724506D01*
X50045498Y-46834820D01*
X50009188Y-46954518D01*
X49996928Y-47079000D01*
X45006317Y-47079000D01*
X44929637Y-46964241D01*
X44729759Y-46764363D01*
X44494727Y-46607320D01*
X44233574Y-46499147D01*
X43956335Y-46444000D01*
X43673665Y-46444000D01*
X43396426Y-46499147D01*
X43135273Y-46607320D01*
X42900241Y-46764363D01*
X42700363Y-46964241D01*
X42543320Y-47199273D01*
X42435147Y-47460426D01*
X42380000Y-47737665D01*
X18207809Y-47737665D01*
X18053255Y-47658980D01*
X17648449Y-47544956D01*
X17229176Y-47512098D01*
X16811549Y-47561666D01*
X16411617Y-47691757D01*
X16115962Y-47849786D01*
X15959952Y-48165347D01*
X13462000Y-48165347D01*
X13462000Y-43077000D01*
X15133928Y-43077000D01*
X15133928Y-46077000D01*
X15146188Y-46201482D01*
X15182498Y-46321180D01*
X15241463Y-46431494D01*
X15320815Y-46528185D01*
X15417506Y-46607537D01*
X15527820Y-46666502D01*
X15647518Y-46702812D01*
X15772000Y-46715072D01*
X18772000Y-46715072D01*
X18896482Y-46702812D01*
X19016180Y-46666502D01*
X19126494Y-46607537D01*
X19223185Y-46528185D01*
X19302537Y-46431494D01*
X19361502Y-46321180D01*
X19397812Y-46201482D01*
X19410072Y-46077000D01*
X19410072Y-43831000D01*
X27190928Y-43831000D01*
X27190928Y-45831000D01*
X27203188Y-45955482D01*
X27239498Y-46075180D01*
X27298463Y-46185494D01*
X27377815Y-46282185D01*
X27474506Y-46361537D01*
X27584820Y-46420502D01*
X27704518Y-46456812D01*
X27829000Y-46469072D01*
X29829000Y-46469072D01*
X29953482Y-46456812D01*
X30073180Y-46420502D01*
X30183494Y-46361537D01*
X30280185Y-46282185D01*
X30359537Y-46185494D01*
X30418502Y-46075180D01*
X30454812Y-45955482D01*
X30467072Y-45831000D01*
X30467072Y-43831000D01*
X30454812Y-43706518D01*
X30418502Y-43586820D01*
X30359537Y-43476506D01*
X30280185Y-43379815D01*
X30183494Y-43300463D01*
X30073180Y-43241498D01*
X29953482Y-43205188D01*
X29829000Y-43192928D01*
X27829000Y-43192928D01*
X27704518Y-43205188D01*
X27584820Y-43241498D01*
X27474506Y-43300463D01*
X27377815Y-43379815D01*
X27298463Y-43476506D01*
X27239498Y-43586820D01*
X27203188Y-43706518D01*
X27190928Y-43831000D01*
X19410072Y-43831000D01*
X19410072Y-43077000D01*
X19397812Y-42952518D01*
X19378241Y-42888000D01*
X61299928Y-42888000D01*
X61299928Y-44488000D01*
X61312188Y-44612482D01*
X61348498Y-44732180D01*
X61407463Y-44842494D01*
X61486815Y-44939185D01*
X61583506Y-45018537D01*
X61693820Y-45077502D01*
X61813518Y-45113812D01*
X61938000Y-45126072D01*
X63538000Y-45126072D01*
X63662482Y-45113812D01*
X63782180Y-45077502D01*
X63892494Y-45018537D01*
X63989185Y-44939185D01*
X64068537Y-44842494D01*
X64127502Y-44732180D01*
X64163812Y-44612482D01*
X64176072Y-44488000D01*
X64176072Y-43546665D01*
X68923000Y-43546665D01*
X68923000Y-43829335D01*
X68978147Y-44106574D01*
X69086320Y-44367727D01*
X69243363Y-44602759D01*
X69443241Y-44802637D01*
X69678273Y-44959680D01*
X69939426Y-45067853D01*
X70216665Y-45123000D01*
X70499335Y-45123000D01*
X70776574Y-45067853D01*
X71037727Y-44959680D01*
X71272759Y-44802637D01*
X71472637Y-44602759D01*
X71629680Y-44367727D01*
X71737853Y-44106574D01*
X71793000Y-43829335D01*
X71793000Y-43546665D01*
X71737853Y-43269426D01*
X71629680Y-43008273D01*
X71472637Y-42773241D01*
X71272759Y-42573363D01*
X71037727Y-42416320D01*
X70776574Y-42308147D01*
X70499335Y-42253000D01*
X70216665Y-42253000D01*
X69939426Y-42308147D01*
X69678273Y-42416320D01*
X69443241Y-42573363D01*
X69243363Y-42773241D01*
X69086320Y-43008273D01*
X68978147Y-43269426D01*
X68923000Y-43546665D01*
X64176072Y-43546665D01*
X64176072Y-42888000D01*
X64163812Y-42763518D01*
X64127502Y-42643820D01*
X64068537Y-42533506D01*
X63989185Y-42436815D01*
X63892494Y-42357463D01*
X63782180Y-42298498D01*
X63662482Y-42262188D01*
X63538000Y-42249928D01*
X61938000Y-42249928D01*
X61813518Y-42262188D01*
X61693820Y-42298498D01*
X61583506Y-42357463D01*
X61486815Y-42436815D01*
X61407463Y-42533506D01*
X61348498Y-42643820D01*
X61312188Y-42763518D01*
X61299928Y-42888000D01*
X19378241Y-42888000D01*
X19361502Y-42832820D01*
X19302537Y-42722506D01*
X19223185Y-42625815D01*
X19126494Y-42546463D01*
X19016180Y-42487498D01*
X18896482Y-42451188D01*
X18772000Y-42438928D01*
X15772000Y-42438928D01*
X15647518Y-42451188D01*
X15527820Y-42487498D01*
X15417506Y-42546463D01*
X15320815Y-42625815D01*
X15241463Y-42722506D01*
X15182498Y-42832820D01*
X15146188Y-42952518D01*
X15133928Y-43077000D01*
X13462000Y-43077000D01*
X13462000Y-38595502D01*
X17322503Y-38595502D01*
X17394086Y-38839471D01*
X17649596Y-38960371D01*
X17923784Y-39029100D01*
X18206112Y-39043017D01*
X18485730Y-39001587D01*
X18751892Y-38906403D01*
X18877114Y-38839471D01*
X18948697Y-38595502D01*
X18135600Y-37782405D01*
X17322503Y-38595502D01*
X13462000Y-38595502D01*
X13462000Y-37673312D01*
X16695383Y-37673312D01*
X16736813Y-37952930D01*
X16831997Y-38219092D01*
X16898929Y-38344314D01*
X17142898Y-38415897D01*
X17955995Y-37602800D01*
X18315205Y-37602800D01*
X19128302Y-38415897D01*
X19372271Y-38344314D01*
X19493171Y-38088804D01*
X19561900Y-37814616D01*
X19575817Y-37532288D01*
X19534387Y-37252670D01*
X19439203Y-36986508D01*
X19372271Y-36861286D01*
X19128302Y-36789703D01*
X18315205Y-37602800D01*
X17955995Y-37602800D01*
X17142898Y-36789703D01*
X16898929Y-36861286D01*
X16778029Y-37116796D01*
X16709300Y-37390984D01*
X16695383Y-37673312D01*
X13462000Y-37673312D01*
X13462000Y-34302800D01*
X16697528Y-34302800D01*
X16697528Y-35902800D01*
X16709788Y-36027282D01*
X16746098Y-36146980D01*
X16805063Y-36257294D01*
X16884415Y-36353985D01*
X16981106Y-36433337D01*
X17091420Y-36492302D01*
X17211118Y-36528612D01*
X17335600Y-36540872D01*
X17342815Y-36540872D01*
X17322503Y-36610098D01*
X18135600Y-37423195D01*
X18948697Y-36610098D01*
X18928385Y-36540872D01*
X18935600Y-36540872D01*
X19060082Y-36528612D01*
X19179780Y-36492302D01*
X19290094Y-36433337D01*
X19386785Y-36353985D01*
X19466137Y-36257294D01*
X19525102Y-36146980D01*
X19561412Y-36027282D01*
X19565301Y-35987800D01*
X23578531Y-35987800D01*
X23622000Y-35992081D01*
X23665469Y-35987800D01*
X23665477Y-35987800D01*
X23795490Y-35974995D01*
X23962313Y-35924389D01*
X24116059Y-35842211D01*
X24250817Y-35731617D01*
X24278534Y-35697844D01*
X33179378Y-26797000D01*
X39369719Y-26797000D01*
X39374000Y-26840470D01*
X39374001Y-28056522D01*
X39369719Y-28100000D01*
X39386805Y-28273490D01*
X39437412Y-28440313D01*
X39519590Y-28594059D01*
X39602468Y-28695046D01*
X39602471Y-28695049D01*
X39630184Y-28728817D01*
X39663951Y-28756529D01*
X40911000Y-30003579D01*
X40911000Y-30092160D01*
X40957884Y-30327861D01*
X41049850Y-30549887D01*
X41183364Y-30749705D01*
X41353295Y-30919636D01*
X41553113Y-31053150D01*
X41775139Y-31145116D01*
X42010840Y-31192000D01*
X42251160Y-31192000D01*
X42486861Y-31145116D01*
X42708887Y-31053150D01*
X42908705Y-30919636D01*
X42971341Y-30857000D01*
X44845422Y-30857000D01*
X46650422Y-32662001D01*
X43532580Y-32662001D01*
X43351000Y-32480421D01*
X43351000Y-32391840D01*
X43304116Y-32156139D01*
X43212150Y-31934113D01*
X43078636Y-31734295D01*
X42908705Y-31564364D01*
X42708887Y-31430850D01*
X42486861Y-31338884D01*
X42251160Y-31292000D01*
X42010840Y-31292000D01*
X41775139Y-31338884D01*
X41553113Y-31430850D01*
X41353295Y-31564364D01*
X41183364Y-31734295D01*
X41049850Y-31934113D01*
X40957884Y-32156139D01*
X40911000Y-32391840D01*
X40911000Y-32632160D01*
X40957884Y-32867861D01*
X41049850Y-33089887D01*
X41183364Y-33289705D01*
X41353295Y-33459636D01*
X41553113Y-33593150D01*
X41775139Y-33685116D01*
X42010840Y-33732000D01*
X42099421Y-33732000D01*
X42509471Y-34142050D01*
X42537184Y-34175818D01*
X42570952Y-34203531D01*
X42570954Y-34203533D01*
X42642453Y-34262211D01*
X42671942Y-34286412D01*
X42825688Y-34368590D01*
X42992511Y-34419196D01*
X43122524Y-34432001D01*
X43122534Y-34432001D01*
X43166000Y-34436282D01*
X43209466Y-34432001D01*
X61659530Y-34432001D01*
X61702999Y-34436282D01*
X61746468Y-34432001D01*
X61746476Y-34432001D01*
X61876489Y-34419196D01*
X62043312Y-34368590D01*
X62197058Y-34286412D01*
X62331816Y-34175818D01*
X62359533Y-34142045D01*
X67520517Y-28981061D01*
X97009000Y-28981061D01*
X97009000Y-29184939D01*
X97048774Y-29384898D01*
X97126795Y-29573256D01*
X97159000Y-29621454D01*
X97159001Y-73489521D01*
X97154719Y-73533000D01*
X97171805Y-73706490D01*
X97222412Y-73873313D01*
X97304590Y-74027059D01*
X97387468Y-74128046D01*
X97387471Y-74128049D01*
X97415184Y-74161817D01*
X97448951Y-74189529D01*
X99038470Y-75779049D01*
X99066183Y-75812817D01*
X99099951Y-75840530D01*
X99099953Y-75840532D01*
X99200941Y-75923411D01*
X99354686Y-76005589D01*
X99486883Y-76045691D01*
X99521510Y-76056195D01*
X99651523Y-76069000D01*
X99651531Y-76069000D01*
X99695000Y-76073281D01*
X99738469Y-76069000D01*
X100731928Y-76069000D01*
X100731928Y-76684000D01*
X100744188Y-76808482D01*
X100780498Y-76928180D01*
X100839463Y-77038494D01*
X100918815Y-77135185D01*
X101015506Y-77214537D01*
X101125820Y-77273502D01*
X101245518Y-77309812D01*
X101370000Y-77322072D01*
X104370000Y-77322072D01*
X104494482Y-77309812D01*
X104614180Y-77273502D01*
X104724494Y-77214537D01*
X104821185Y-77135185D01*
X104900537Y-77038494D01*
X104959502Y-76928180D01*
X104995812Y-76808482D01*
X105008072Y-76684000D01*
X105008072Y-73684000D01*
X104995812Y-73559518D01*
X104959502Y-73439820D01*
X104900537Y-73329506D01*
X104821185Y-73232815D01*
X104724494Y-73153463D01*
X104614180Y-73094498D01*
X104494482Y-73058188D01*
X104370000Y-73045928D01*
X101370000Y-73045928D01*
X101245518Y-73058188D01*
X101125820Y-73094498D01*
X101015506Y-73153463D01*
X100918815Y-73232815D01*
X100839463Y-73329506D01*
X100780498Y-73439820D01*
X100744188Y-73559518D01*
X100731928Y-73684000D01*
X100731928Y-74299000D01*
X100061579Y-74299000D01*
X98929000Y-73166422D01*
X98929000Y-29621454D01*
X98961205Y-29573256D01*
X99039226Y-29384898D01*
X99079000Y-29184939D01*
X99079000Y-28981061D01*
X99039226Y-28781102D01*
X98961205Y-28592744D01*
X98847937Y-28423226D01*
X98703774Y-28279063D01*
X98534256Y-28165795D01*
X98345898Y-28087774D01*
X98145939Y-28048000D01*
X97942061Y-28048000D01*
X97742102Y-28087774D01*
X97553744Y-28165795D01*
X97384226Y-28279063D01*
X97240063Y-28423226D01*
X97126795Y-28592744D01*
X97048774Y-28781102D01*
X97009000Y-28981061D01*
X67520517Y-28981061D01*
X69425517Y-27076061D01*
X78721000Y-27076061D01*
X78721000Y-27279939D01*
X78760774Y-27479898D01*
X78838795Y-27668256D01*
X78952063Y-27837774D01*
X79096226Y-27981937D01*
X79265744Y-28095205D01*
X79454102Y-28173226D01*
X79654061Y-28213000D01*
X79857939Y-28213000D01*
X80057898Y-28173226D01*
X80246256Y-28095205D01*
X80415774Y-27981937D01*
X80559937Y-27837774D01*
X80579163Y-27809000D01*
X88869546Y-27809000D01*
X88917744Y-27841205D01*
X89106102Y-27919226D01*
X89306061Y-27959000D01*
X89509939Y-27959000D01*
X89709898Y-27919226D01*
X89898256Y-27841205D01*
X90067774Y-27727937D01*
X90211937Y-27583774D01*
X90325205Y-27414256D01*
X90403226Y-27225898D01*
X90443000Y-27025939D01*
X90443000Y-26822061D01*
X90403226Y-26622102D01*
X90325205Y-26433744D01*
X90211937Y-26264226D01*
X90134772Y-26187061D01*
X99168000Y-26187061D01*
X99168000Y-26390939D01*
X99207774Y-26590898D01*
X99285795Y-26779256D01*
X99318000Y-26827454D01*
X99318001Y-67393521D01*
X99313719Y-67437000D01*
X99330805Y-67610490D01*
X99381412Y-67777313D01*
X99463590Y-67931059D01*
X99546468Y-68032046D01*
X99546471Y-68032049D01*
X99574184Y-68065817D01*
X99607951Y-68093529D01*
X100869363Y-69354942D01*
X100817047Y-69481244D01*
X100735000Y-69893721D01*
X100735000Y-70314279D01*
X100817047Y-70726756D01*
X100977988Y-71115302D01*
X101211637Y-71464983D01*
X101509017Y-71762363D01*
X101858698Y-71996012D01*
X102247244Y-72156953D01*
X102659721Y-72239000D01*
X103080279Y-72239000D01*
X103492756Y-72156953D01*
X103881302Y-71996012D01*
X104230983Y-71762363D01*
X104528363Y-71464983D01*
X104762012Y-71115302D01*
X104922953Y-70726756D01*
X105005000Y-70314279D01*
X105005000Y-69893721D01*
X104922953Y-69481244D01*
X104762012Y-69092698D01*
X104528363Y-68743017D01*
X104230983Y-68445637D01*
X103881302Y-68211988D01*
X103492756Y-68051047D01*
X103080279Y-67969000D01*
X102659721Y-67969000D01*
X102247244Y-68051047D01*
X102120942Y-68103363D01*
X101088000Y-67070422D01*
X101088000Y-66199947D01*
X101211637Y-66384983D01*
X101509017Y-66682363D01*
X101858698Y-66916012D01*
X102247244Y-67076953D01*
X102659721Y-67159000D01*
X103080279Y-67159000D01*
X103492756Y-67076953D01*
X103881302Y-66916012D01*
X104230983Y-66682363D01*
X104528363Y-66384983D01*
X104762012Y-66035302D01*
X104922953Y-65646756D01*
X105005000Y-65234279D01*
X105005000Y-64813721D01*
X104922953Y-64401244D01*
X104762012Y-64012698D01*
X104528363Y-63663017D01*
X104230983Y-63365637D01*
X103881302Y-63131988D01*
X103492756Y-62971047D01*
X103080279Y-62889000D01*
X102659721Y-62889000D01*
X102247244Y-62971047D01*
X101858698Y-63131988D01*
X101509017Y-63365637D01*
X101211637Y-63663017D01*
X101088000Y-63848053D01*
X101088000Y-26827454D01*
X101120205Y-26779256D01*
X101198226Y-26590898D01*
X101238000Y-26390939D01*
X101238000Y-26187061D01*
X101198226Y-25987102D01*
X101120205Y-25798744D01*
X101006937Y-25629226D01*
X100862774Y-25485063D01*
X100693256Y-25371795D01*
X100504898Y-25293774D01*
X100304939Y-25254000D01*
X100101061Y-25254000D01*
X99901102Y-25293774D01*
X99712744Y-25371795D01*
X99543226Y-25485063D01*
X99399063Y-25629226D01*
X99285795Y-25798744D01*
X99207774Y-25987102D01*
X99168000Y-26187061D01*
X90134772Y-26187061D01*
X90067774Y-26120063D01*
X89898256Y-26006795D01*
X89709898Y-25928774D01*
X89509939Y-25889000D01*
X89306061Y-25889000D01*
X89106102Y-25928774D01*
X88917744Y-26006795D01*
X88869546Y-26039000D01*
X80053465Y-26039000D01*
X80009999Y-26034719D01*
X79966533Y-26039000D01*
X79966523Y-26039000D01*
X79836510Y-26051805D01*
X79669687Y-26102411D01*
X79558002Y-26162107D01*
X79454102Y-26182774D01*
X79265744Y-26260795D01*
X79096226Y-26374063D01*
X78952063Y-26518226D01*
X78838795Y-26687744D01*
X78760774Y-26876102D01*
X78721000Y-27076061D01*
X69425517Y-27076061D01*
X70978579Y-25523000D01*
X82125531Y-25523000D01*
X82169000Y-25527281D01*
X82212469Y-25523000D01*
X82212477Y-25523000D01*
X82342490Y-25510195D01*
X82509313Y-25459589D01*
X82663059Y-25377411D01*
X82797817Y-25266817D01*
X82825534Y-25233044D01*
X82922043Y-25136535D01*
X82978898Y-25125226D01*
X83167256Y-25047205D01*
X83336774Y-24933937D01*
X83480937Y-24789774D01*
X83594205Y-24620256D01*
X83672226Y-24431898D01*
X83683535Y-24375043D01*
X84440579Y-23618000D01*
X90139546Y-23618000D01*
X90187744Y-23650205D01*
X90376102Y-23728226D01*
X90576061Y-23768000D01*
X90779939Y-23768000D01*
X90979898Y-23728226D01*
X91168256Y-23650205D01*
X91337774Y-23536937D01*
X91481937Y-23392774D01*
X91595205Y-23223256D01*
X91673226Y-23034898D01*
X91713000Y-22834939D01*
X91713000Y-22631061D01*
X91673226Y-22431102D01*
X91595205Y-22242744D01*
X91481937Y-22073226D01*
X91337774Y-21929063D01*
X91168256Y-21815795D01*
X90979898Y-21737774D01*
X90779939Y-21698000D01*
X90576061Y-21698000D01*
X90376102Y-21737774D01*
X90187744Y-21815795D01*
X90139546Y-21848000D01*
X84117465Y-21848000D01*
X84073999Y-21843719D01*
X84030533Y-21848000D01*
X84030523Y-21848000D01*
X83900510Y-21860805D01*
X83733687Y-21911411D01*
X83579941Y-21993589D01*
X83579939Y-21993590D01*
X83579940Y-21993590D01*
X83478953Y-22076468D01*
X83478951Y-22076470D01*
X83445183Y-22104183D01*
X83417470Y-22137951D01*
X82431957Y-23123465D01*
X82375102Y-23134774D01*
X82186744Y-23212795D01*
X82017226Y-23326063D01*
X81873063Y-23470226D01*
X81759795Y-23639744D01*
X81712882Y-23753000D01*
X70655466Y-23753000D01*
X70611999Y-23748719D01*
X70568533Y-23753000D01*
X70568523Y-23753000D01*
X70438510Y-23765805D01*
X70271687Y-23816411D01*
X70117941Y-23898589D01*
X70117939Y-23898590D01*
X70117940Y-23898590D01*
X70016953Y-23981468D01*
X70016951Y-23981470D01*
X69983183Y-24009183D01*
X69955470Y-24042951D01*
X61336421Y-32662001D01*
X51285064Y-32662001D01*
X51291000Y-32632160D01*
X51291000Y-32391840D01*
X51244116Y-32156139D01*
X51152150Y-31934113D01*
X51018636Y-31734295D01*
X50848705Y-31564364D01*
X50648887Y-31430850D01*
X50426861Y-31338884D01*
X50191160Y-31292000D01*
X49950840Y-31292000D01*
X49715139Y-31338884D01*
X49493113Y-31430850D01*
X49293295Y-31564364D01*
X49230659Y-31627000D01*
X48118579Y-31627000D01*
X46343419Y-29851840D01*
X48851000Y-29851840D01*
X48851000Y-30092160D01*
X48897884Y-30327861D01*
X48989850Y-30549887D01*
X49123364Y-30749705D01*
X49293295Y-30919636D01*
X49493113Y-31053150D01*
X49715139Y-31145116D01*
X49950840Y-31192000D01*
X50191160Y-31192000D01*
X50426861Y-31145116D01*
X50648887Y-31053150D01*
X50848705Y-30919636D01*
X51018636Y-30749705D01*
X51152150Y-30549887D01*
X51244116Y-30327861D01*
X51291000Y-30092160D01*
X51291000Y-29851840D01*
X51244116Y-29616139D01*
X51152150Y-29394113D01*
X51018636Y-29194295D01*
X50848705Y-29024364D01*
X50648887Y-28890850D01*
X50426861Y-28798884D01*
X50191160Y-28752000D01*
X49950840Y-28752000D01*
X49715139Y-28798884D01*
X49493113Y-28890850D01*
X49293295Y-29024364D01*
X49123364Y-29194295D01*
X48989850Y-29394113D01*
X48897884Y-29616139D01*
X48851000Y-29851840D01*
X46343419Y-29851840D01*
X45868534Y-29376956D01*
X45840817Y-29343183D01*
X45706059Y-29232589D01*
X45552313Y-29150411D01*
X45385490Y-29099805D01*
X45255477Y-29087000D01*
X45255469Y-29087000D01*
X45212000Y-29082719D01*
X45168531Y-29087000D01*
X42971341Y-29087000D01*
X42908705Y-29024364D01*
X42708887Y-28890850D01*
X42486861Y-28798884D01*
X42251160Y-28752000D01*
X42162579Y-28752000D01*
X42062579Y-28652000D01*
X42251160Y-28652000D01*
X42486861Y-28605116D01*
X42708887Y-28513150D01*
X42908705Y-28379636D01*
X43017310Y-28271031D01*
X49411574Y-28271031D01*
X49457055Y-28493089D01*
X49675860Y-28592475D01*
X49909850Y-28647264D01*
X50150033Y-28655352D01*
X50387178Y-28616427D01*
X50612173Y-28531985D01*
X50684945Y-28493089D01*
X50730426Y-28271031D01*
X50071000Y-27611605D01*
X49411574Y-28271031D01*
X43017310Y-28271031D01*
X43078636Y-28209705D01*
X43212150Y-28009887D01*
X43304116Y-27787861D01*
X43351000Y-27552160D01*
X43351000Y-27511033D01*
X48847648Y-27511033D01*
X48886573Y-27748178D01*
X48971015Y-27973173D01*
X49009911Y-28045945D01*
X49231969Y-28091426D01*
X49891395Y-27432000D01*
X50250605Y-27432000D01*
X50910031Y-28091426D01*
X51132089Y-28045945D01*
X51231475Y-27827140D01*
X51286264Y-27593150D01*
X51294352Y-27352967D01*
X51255427Y-27115822D01*
X51170985Y-26890827D01*
X51132089Y-26818055D01*
X50910031Y-26772574D01*
X50250605Y-27432000D01*
X49891395Y-27432000D01*
X49231969Y-26772574D01*
X49009911Y-26818055D01*
X48910525Y-27036860D01*
X48855736Y-27270850D01*
X48847648Y-27511033D01*
X43351000Y-27511033D01*
X43351000Y-27311840D01*
X43304116Y-27076139D01*
X43212150Y-26854113D01*
X43078636Y-26654295D01*
X43017310Y-26592969D01*
X49411574Y-26592969D01*
X50071000Y-27252395D01*
X50730426Y-26592969D01*
X50684945Y-26370911D01*
X50466140Y-26271525D01*
X50232150Y-26216736D01*
X49991967Y-26208648D01*
X49754822Y-26247573D01*
X49529827Y-26332015D01*
X49457055Y-26370911D01*
X49411574Y-26592969D01*
X43017310Y-26592969D01*
X42908705Y-26484364D01*
X42708887Y-26350850D01*
X42486861Y-26258884D01*
X42251160Y-26212000D01*
X42062578Y-26212000D01*
X42162578Y-26112000D01*
X42251160Y-26112000D01*
X42486861Y-26065116D01*
X42708887Y-25973150D01*
X42908705Y-25839636D01*
X43017310Y-25731031D01*
X49411574Y-25731031D01*
X49457055Y-25953089D01*
X49675860Y-26052475D01*
X49909850Y-26107264D01*
X50150033Y-26115352D01*
X50387178Y-26076427D01*
X50612173Y-25991985D01*
X50684945Y-25953089D01*
X50730426Y-25731031D01*
X50071000Y-25071605D01*
X49411574Y-25731031D01*
X43017310Y-25731031D01*
X43078636Y-25669705D01*
X43212150Y-25469887D01*
X43304116Y-25247861D01*
X43351000Y-25012160D01*
X43351000Y-24971033D01*
X48847648Y-24971033D01*
X48886573Y-25208178D01*
X48971015Y-25433173D01*
X49009911Y-25505945D01*
X49231969Y-25551426D01*
X49891395Y-24892000D01*
X50250605Y-24892000D01*
X50910031Y-25551426D01*
X51132089Y-25505945D01*
X51231475Y-25287140D01*
X51286264Y-25053150D01*
X51294352Y-24812967D01*
X51255427Y-24575822D01*
X51170985Y-24350827D01*
X51132089Y-24278055D01*
X50910031Y-24232574D01*
X50250605Y-24892000D01*
X49891395Y-24892000D01*
X49231969Y-24232574D01*
X49009911Y-24278055D01*
X48910525Y-24496860D01*
X48855736Y-24730850D01*
X48847648Y-24971033D01*
X43351000Y-24971033D01*
X43351000Y-24771840D01*
X43304116Y-24536139D01*
X43212150Y-24314113D01*
X43078636Y-24114295D01*
X43017310Y-24052969D01*
X49411574Y-24052969D01*
X50071000Y-24712395D01*
X50730426Y-24052969D01*
X50684945Y-23830911D01*
X50466140Y-23731525D01*
X50232150Y-23676736D01*
X49991967Y-23668648D01*
X49754822Y-23707573D01*
X49529827Y-23792015D01*
X49457055Y-23830911D01*
X49411574Y-24052969D01*
X43017310Y-24052969D01*
X42908705Y-23944364D01*
X42708887Y-23810850D01*
X42486861Y-23718884D01*
X42251160Y-23672000D01*
X42010840Y-23672000D01*
X41775139Y-23718884D01*
X41553113Y-23810850D01*
X41353295Y-23944364D01*
X41183364Y-24114295D01*
X41049850Y-24314113D01*
X40957884Y-24536139D01*
X40911000Y-24771840D01*
X40911000Y-24860422D01*
X40500955Y-25270467D01*
X40467182Y-25298184D01*
X40356588Y-25432943D01*
X40339490Y-25464931D01*
X39663956Y-26140466D01*
X39630183Y-26168183D01*
X39519589Y-26302942D01*
X39437411Y-26456688D01*
X39386805Y-26623511D01*
X39374000Y-26753524D01*
X39374000Y-26753531D01*
X39369719Y-26797000D01*
X33179378Y-26797000D01*
X36739379Y-23237000D01*
X41290659Y-23237000D01*
X41353295Y-23299636D01*
X41553113Y-23433150D01*
X41775139Y-23525116D01*
X42010840Y-23572000D01*
X42251160Y-23572000D01*
X42486861Y-23525116D01*
X42708887Y-23433150D01*
X42908705Y-23299636D01*
X43017310Y-23191031D01*
X49411574Y-23191031D01*
X49457055Y-23413089D01*
X49675860Y-23512475D01*
X49909850Y-23567264D01*
X50150033Y-23575352D01*
X50387178Y-23536427D01*
X50612173Y-23451985D01*
X50684945Y-23413089D01*
X50730426Y-23191031D01*
X50071000Y-22531605D01*
X49411574Y-23191031D01*
X43017310Y-23191031D01*
X43078636Y-23129705D01*
X43212150Y-22929887D01*
X43304116Y-22707861D01*
X43351000Y-22472160D01*
X43351000Y-22431033D01*
X48847648Y-22431033D01*
X48886573Y-22668178D01*
X48971015Y-22893173D01*
X49009911Y-22965945D01*
X49231969Y-23011426D01*
X49891395Y-22352000D01*
X50250605Y-22352000D01*
X50910031Y-23011426D01*
X51132089Y-22965945D01*
X51231475Y-22747140D01*
X51286264Y-22513150D01*
X51294352Y-22272967D01*
X51255427Y-22035822D01*
X51170985Y-21810827D01*
X51132089Y-21738055D01*
X50910031Y-21692574D01*
X50250605Y-22352000D01*
X49891395Y-22352000D01*
X49231969Y-21692574D01*
X49009911Y-21738055D01*
X48910525Y-21956860D01*
X48855736Y-22190850D01*
X48847648Y-22431033D01*
X43351000Y-22431033D01*
X43351000Y-22231840D01*
X43304116Y-21996139D01*
X43212150Y-21774113D01*
X43078636Y-21574295D01*
X43017310Y-21512969D01*
X49411574Y-21512969D01*
X50071000Y-22172395D01*
X50730426Y-21512969D01*
X50684945Y-21290911D01*
X50466140Y-21191525D01*
X50232150Y-21136736D01*
X49991967Y-21128648D01*
X49754822Y-21167573D01*
X49529827Y-21252015D01*
X49457055Y-21290911D01*
X49411574Y-21512969D01*
X43017310Y-21512969D01*
X42908705Y-21404364D01*
X42708887Y-21270850D01*
X42486861Y-21178884D01*
X42251160Y-21132000D01*
X42010840Y-21132000D01*
X41775139Y-21178884D01*
X41553113Y-21270850D01*
X41353295Y-21404364D01*
X41290659Y-21467000D01*
X36416265Y-21467000D01*
X36372799Y-21462719D01*
X36329333Y-21467000D01*
X36329323Y-21467000D01*
X36199310Y-21479805D01*
X36032487Y-21530411D01*
X35878741Y-21612589D01*
X35878739Y-21612590D01*
X35878740Y-21612590D01*
X35777753Y-21695468D01*
X35777751Y-21695470D01*
X35743983Y-21723183D01*
X35716270Y-21756951D01*
X23255422Y-34217800D01*
X19565301Y-34217800D01*
X19561412Y-34178318D01*
X19525102Y-34058620D01*
X19466137Y-33948306D01*
X19386785Y-33851615D01*
X19290094Y-33772263D01*
X19179780Y-33713298D01*
X19060082Y-33676988D01*
X18935600Y-33664728D01*
X17335600Y-33664728D01*
X17211118Y-33676988D01*
X17091420Y-33713298D01*
X16981106Y-33772263D01*
X16884415Y-33851615D01*
X16805063Y-33948306D01*
X16746098Y-34058620D01*
X16709788Y-34178318D01*
X16697528Y-34302800D01*
X13462000Y-34302800D01*
X13462000Y-28995000D01*
X13980528Y-28995000D01*
X13980528Y-30695000D01*
X13992788Y-30819482D01*
X14029098Y-30939180D01*
X14088063Y-31049494D01*
X14167415Y-31146185D01*
X14264106Y-31225537D01*
X14374420Y-31284502D01*
X14494118Y-31320812D01*
X14618600Y-31333072D01*
X16318600Y-31333072D01*
X16443082Y-31320812D01*
X16562780Y-31284502D01*
X16673094Y-31225537D01*
X16769785Y-31146185D01*
X16849137Y-31049494D01*
X16908102Y-30939180D01*
X16944412Y-30819482D01*
X16956672Y-30695000D01*
X16956672Y-28995000D01*
X16944412Y-28870518D01*
X16908102Y-28750820D01*
X16849137Y-28640506D01*
X16769785Y-28543815D01*
X16673094Y-28464463D01*
X16562780Y-28405498D01*
X16490220Y-28383487D01*
X16622075Y-28251632D01*
X16784590Y-28008411D01*
X16896532Y-27738158D01*
X16953600Y-27451260D01*
X16953600Y-27158740D01*
X16939139Y-27086039D01*
X19772179Y-24253000D01*
X27528546Y-24253000D01*
X27576744Y-24285205D01*
X27765102Y-24363226D01*
X27965061Y-24403000D01*
X28168939Y-24403000D01*
X28368898Y-24363226D01*
X28557256Y-24285205D01*
X28726774Y-24171937D01*
X28870937Y-24027774D01*
X28984205Y-23858256D01*
X29062226Y-23669898D01*
X29102000Y-23469939D01*
X29102000Y-23266061D01*
X29062226Y-23066102D01*
X28984205Y-22877744D01*
X28870937Y-22708226D01*
X28726774Y-22564063D01*
X28557256Y-22450795D01*
X28368898Y-22372774D01*
X28168939Y-22333000D01*
X27965061Y-22333000D01*
X27765102Y-22372774D01*
X27576744Y-22450795D01*
X27528546Y-22483000D01*
X19449069Y-22483000D01*
X19405600Y-22478719D01*
X19362131Y-22483000D01*
X19362123Y-22483000D01*
X19232110Y-22495805D01*
X19065287Y-22546411D01*
X18911541Y-22628589D01*
X18810553Y-22711468D01*
X18810551Y-22711470D01*
X18776783Y-22739183D01*
X18749070Y-22772951D01*
X16945252Y-24576770D01*
X16939139Y-24546039D01*
X21550179Y-19935000D01*
X27401546Y-19935000D01*
X27449744Y-19967205D01*
X27638102Y-20045226D01*
X27838061Y-20085000D01*
X28041939Y-20085000D01*
X28241898Y-20045226D01*
X28430256Y-19967205D01*
X28599774Y-19853937D01*
X28743937Y-19709774D01*
X28755920Y-19691840D01*
X40911000Y-19691840D01*
X40911000Y-19932160D01*
X40957884Y-20167861D01*
X41049850Y-20389887D01*
X41183364Y-20589705D01*
X41353295Y-20759636D01*
X41553113Y-20893150D01*
X41775139Y-20985116D01*
X42010840Y-21032000D01*
X42251160Y-21032000D01*
X42486861Y-20985116D01*
X42708887Y-20893150D01*
X42908705Y-20759636D01*
X43017310Y-20651031D01*
X49411574Y-20651031D01*
X49457055Y-20873089D01*
X49675860Y-20972475D01*
X49909850Y-21027264D01*
X50150033Y-21035352D01*
X50387178Y-20996427D01*
X50612173Y-20911985D01*
X50684945Y-20873089D01*
X50730426Y-20651031D01*
X50071000Y-19991605D01*
X49411574Y-20651031D01*
X43017310Y-20651031D01*
X43078636Y-20589705D01*
X43212150Y-20389887D01*
X43304116Y-20167861D01*
X43351000Y-19932160D01*
X43351000Y-19891033D01*
X48847648Y-19891033D01*
X48886573Y-20128178D01*
X48971015Y-20353173D01*
X49009911Y-20425945D01*
X49231969Y-20471426D01*
X49891395Y-19812000D01*
X50250605Y-19812000D01*
X50910031Y-20471426D01*
X51132089Y-20425945D01*
X51231475Y-20207140D01*
X51286264Y-19973150D01*
X51294352Y-19732967D01*
X51255427Y-19495822D01*
X51170985Y-19270827D01*
X51132089Y-19198055D01*
X50910031Y-19152574D01*
X50250605Y-19812000D01*
X49891395Y-19812000D01*
X49231969Y-19152574D01*
X49009911Y-19198055D01*
X48910525Y-19416860D01*
X48855736Y-19650850D01*
X48847648Y-19891033D01*
X43351000Y-19891033D01*
X43351000Y-19691840D01*
X43304116Y-19456139D01*
X43212150Y-19234113D01*
X43078636Y-19034295D01*
X43017310Y-18972969D01*
X49411574Y-18972969D01*
X50071000Y-19632395D01*
X50730426Y-18972969D01*
X50684945Y-18750911D01*
X50466140Y-18651525D01*
X50232150Y-18596736D01*
X49991967Y-18588648D01*
X49754822Y-18627573D01*
X49529827Y-18712015D01*
X49457055Y-18750911D01*
X49411574Y-18972969D01*
X43017310Y-18972969D01*
X42908705Y-18864364D01*
X42708887Y-18730850D01*
X42486861Y-18638884D01*
X42251160Y-18592000D01*
X42010840Y-18592000D01*
X41775139Y-18638884D01*
X41553113Y-18730850D01*
X41353295Y-18864364D01*
X41183364Y-19034295D01*
X41049850Y-19234113D01*
X40957884Y-19456139D01*
X40911000Y-19691840D01*
X28755920Y-19691840D01*
X28857205Y-19540256D01*
X28935226Y-19351898D01*
X28975000Y-19151939D01*
X28975000Y-18948061D01*
X28935226Y-18748102D01*
X28857205Y-18559744D01*
X28743937Y-18390226D01*
X28599774Y-18246063D01*
X28430256Y-18132795D01*
X28241898Y-18054774D01*
X28041939Y-18015000D01*
X27838061Y-18015000D01*
X27638102Y-18054774D01*
X27449744Y-18132795D01*
X27401546Y-18165000D01*
X21227069Y-18165000D01*
X21183600Y-18160719D01*
X21140131Y-18165000D01*
X21140123Y-18165000D01*
X21010110Y-18177805D01*
X20843286Y-18228411D01*
X20689541Y-18310589D01*
X20588553Y-18393468D01*
X20588551Y-18393470D01*
X20554783Y-18421183D01*
X20527070Y-18454951D01*
X16945252Y-22036770D01*
X16939139Y-22006039D01*
X22258178Y-16687000D01*
X40907928Y-16687000D01*
X40907928Y-17857000D01*
X40920188Y-17981482D01*
X40956498Y-18101180D01*
X41015463Y-18211494D01*
X41094815Y-18308185D01*
X41191506Y-18387537D01*
X41301820Y-18446502D01*
X41421518Y-18482812D01*
X41546000Y-18495072D01*
X42716000Y-18495072D01*
X42840482Y-18482812D01*
X42960180Y-18446502D01*
X43070494Y-18387537D01*
X43167185Y-18308185D01*
X43246537Y-18211494D01*
X43305502Y-18101180D01*
X43341812Y-17981482D01*
X43354072Y-17857000D01*
X43354072Y-17151840D01*
X48851000Y-17151840D01*
X48851000Y-17392160D01*
X48897884Y-17627861D01*
X48989850Y-17849887D01*
X49123364Y-18049705D01*
X49293295Y-18219636D01*
X49493113Y-18353150D01*
X49715139Y-18445116D01*
X49950840Y-18492000D01*
X50191160Y-18492000D01*
X50426861Y-18445116D01*
X50648887Y-18353150D01*
X50848705Y-18219636D01*
X51018636Y-18049705D01*
X51152150Y-17849887D01*
X51244116Y-17627861D01*
X51291000Y-17392160D01*
X51291000Y-17151840D01*
X51244116Y-16916139D01*
X51152150Y-16694113D01*
X51018636Y-16494295D01*
X50848705Y-16324364D01*
X50648887Y-16190850D01*
X50426861Y-16098884D01*
X50191160Y-16052000D01*
X49950840Y-16052000D01*
X49715139Y-16098884D01*
X49493113Y-16190850D01*
X49293295Y-16324364D01*
X49123364Y-16494295D01*
X48989850Y-16694113D01*
X48897884Y-16916139D01*
X48851000Y-17151840D01*
X43354072Y-17151840D01*
X43354072Y-16687000D01*
X43341812Y-16562518D01*
X43305502Y-16442820D01*
X43246537Y-16332506D01*
X43167185Y-16235815D01*
X43070494Y-16156463D01*
X42960180Y-16097498D01*
X42840482Y-16061188D01*
X42716000Y-16048928D01*
X41546000Y-16048928D01*
X41421518Y-16061188D01*
X41301820Y-16097498D01*
X41191506Y-16156463D01*
X41094815Y-16235815D01*
X41015463Y-16332506D01*
X40956498Y-16442820D01*
X40920188Y-16562518D01*
X40907928Y-16687000D01*
X22258178Y-16687000D01*
X22693179Y-16252000D01*
X27528546Y-16252000D01*
X27576744Y-16284205D01*
X27765102Y-16362226D01*
X27965061Y-16402000D01*
X28168939Y-16402000D01*
X28368898Y-16362226D01*
X28557256Y-16284205D01*
X28726774Y-16170937D01*
X28870937Y-16026774D01*
X28984205Y-15857256D01*
X29062226Y-15668898D01*
X29102000Y-15468939D01*
X29102000Y-15265061D01*
X29062226Y-15065102D01*
X28984205Y-14876744D01*
X28870937Y-14707226D01*
X28726774Y-14563063D01*
X28557256Y-14449795D01*
X28368898Y-14371774D01*
X28168939Y-14332000D01*
X27965061Y-14332000D01*
X27765102Y-14371774D01*
X27576744Y-14449795D01*
X27528546Y-14482000D01*
X22370069Y-14482000D01*
X22326600Y-14477719D01*
X22283131Y-14482000D01*
X22283123Y-14482000D01*
X22153110Y-14494805D01*
X21986286Y-14545411D01*
X21832541Y-14627589D01*
X21731553Y-14710468D01*
X21731551Y-14710470D01*
X21697783Y-14738183D01*
X21670070Y-14771951D01*
X15687561Y-20754461D01*
X15614860Y-20740000D01*
X15322340Y-20740000D01*
X15035442Y-20797068D01*
X14765189Y-20909010D01*
X14521968Y-21071525D01*
X14315125Y-21278368D01*
X14152610Y-21521589D01*
X14040668Y-21791842D01*
X13983600Y-22078740D01*
X13983600Y-22371260D01*
X14040668Y-22658158D01*
X14152610Y-22928411D01*
X14315125Y-23171632D01*
X14521968Y-23378475D01*
X14696360Y-23495000D01*
X14521968Y-23611525D01*
X14315125Y-23818368D01*
X14152610Y-24061589D01*
X14040668Y-24331842D01*
X13983600Y-24618740D01*
X13983600Y-24911260D01*
X14040668Y-25198158D01*
X14152610Y-25468411D01*
X14315125Y-25711632D01*
X14521968Y-25918475D01*
X14696360Y-26035000D01*
X14521968Y-26151525D01*
X14315125Y-26358368D01*
X14152610Y-26601589D01*
X14040668Y-26871842D01*
X13983600Y-27158740D01*
X13983600Y-27451260D01*
X14040668Y-27738158D01*
X14152610Y-28008411D01*
X14315125Y-28251632D01*
X14446980Y-28383487D01*
X14374420Y-28405498D01*
X14264106Y-28464463D01*
X14167415Y-28543815D01*
X14088063Y-28640506D01*
X14029098Y-28750820D01*
X13992788Y-28870518D01*
X13980528Y-28995000D01*
X13462000Y-28995000D01*
X13462000Y-20372606D01*
X14657606Y-19177000D01*
X16510000Y-19177000D01*
X16534776Y-19174560D01*
X16558601Y-19167333D01*
X16580557Y-19155597D01*
X16604921Y-19134374D01*
X21647031Y-13462000D01*
X100915128Y-13462000D01*
X109728000Y-21645381D01*
G37*
%TD.AperFunction*%
D27*
X33506470Y-95210049D02*
X33534183Y-95243817D01*
X33567951Y-95271530D01*
X33567953Y-95271532D01*
X33668941Y-95354411D01*
X33822686Y-95436589D01*
X33989510Y-95487195D01*
X34119523Y-95500000D01*
X34119531Y-95500000D01*
X34163000Y-95504281D01*
X34206469Y-95500000D01*
X41268922Y-95500000D01*
X41379392Y-95634608D01*
X41597899Y-95813932D01*
X41730858Y-95885000D01*
X41597899Y-95956068D01*
X41379392Y-96135392D01*
X41268922Y-96270000D01*
X32243579Y-96270000D01*
X17218539Y-81244961D01*
X17233000Y-81172260D01*
X17233000Y-80879740D01*
X17175932Y-80592842D01*
X17063990Y-80322589D01*
X16901475Y-80079368D01*
X16694632Y-79872525D01*
X16520240Y-79756000D01*
X16694632Y-79639475D01*
X16901475Y-79432632D01*
X16942656Y-79371000D01*
X17667422Y-79371000D01*
X33506470Y-95210049D01*
%TA.AperFunction,Conductor*%
D28*
G36*
X33506470Y-95210049D02*
G01*
X33534183Y-95243817D01*
X33567951Y-95271530D01*
X33567953Y-95271532D01*
X33668941Y-95354411D01*
X33822686Y-95436589D01*
X33989510Y-95487195D01*
X34119523Y-95500000D01*
X34119531Y-95500000D01*
X34163000Y-95504281D01*
X34206469Y-95500000D01*
X41268922Y-95500000D01*
X41379392Y-95634608D01*
X41597899Y-95813932D01*
X41730858Y-95885000D01*
X41597899Y-95956068D01*
X41379392Y-96135392D01*
X41268922Y-96270000D01*
X32243579Y-96270000D01*
X17218539Y-81244961D01*
X17233000Y-81172260D01*
X17233000Y-80879740D01*
X17175932Y-80592842D01*
X17063990Y-80322589D01*
X16901475Y-80079368D01*
X16694632Y-79872525D01*
X16520240Y-79756000D01*
X16694632Y-79639475D01*
X16901475Y-79432632D01*
X16942656Y-79371000D01*
X17667422Y-79371000D01*
X33506470Y-95210049D01*
G37*
%TD.AperFunction*%
%TD*%
M02*
