%TF.GenerationSoftware,KiCad,Pcbnew,(5.1.8)-1*%
%TF.CreationDate,2020-12-20T02:03:12+03:00*%
%TF.ProjectId,BLDC_SensorlessWithLM339,424c4443-5f53-4656-9e73-6f726c657373,0.3*%
%TF.SameCoordinates,Original*%
%TF.FileFunction,Soldermask,Top*%
%TF.FilePolarity,Negative*%
%FSLAX46Y46*%
G04 Gerber Fmt 4.6, Leading zero omitted, Abs format (unit mm)*
G04 Created by KiCad (PCBNEW (5.1.8)-1) date 2020-12-20 02:03:12*
%MOMM*%
%LPD*%
G01*
G04 APERTURE LIST*
%ADD10C,1.170000*%
%ADD11R,1.170000X1.170000*%
%ADD12O,2.400000X1.600000*%
%ADD13R,2.400000X1.600000*%
%ADD14O,2.000000X1.905000*%
%ADD15R,2.000000X1.905000*%
%ADD16C,3.000000*%
%ADD17R,3.000000X3.000000*%
%ADD18O,1.700000X1.700000*%
%ADD19R,1.700000X1.700000*%
%ADD20O,1.600000X1.600000*%
%ADD21R,1.600000X1.600000*%
%ADD22C,2.000000*%
%ADD23R,2.000000X2.000000*%
%ADD24C,1.600000*%
G04 APERTURE END LIST*
D10*
%TO.C,U4*%
X50071000Y-17272000D03*
X50071000Y-19812000D03*
X50071000Y-22352000D03*
X50071000Y-24892000D03*
X50071000Y-27432000D03*
X50071000Y-29972000D03*
X50071000Y-32512000D03*
X42131000Y-32512000D03*
X42131000Y-29972000D03*
X42131000Y-27432000D03*
X42131000Y-24892000D03*
X42131000Y-22352000D03*
X42131000Y-19812000D03*
D11*
X42131000Y-17272000D03*
%TD*%
D12*
%TO.C,U3*%
X50419000Y-92075000D03*
X42799000Y-99695000D03*
X50419000Y-94615000D03*
X42799000Y-97155000D03*
X50419000Y-97155000D03*
X42799000Y-94615000D03*
X50419000Y-99695000D03*
D13*
X42799000Y-92075000D03*
%TD*%
D12*
%TO.C,U2*%
X50927000Y-71247000D03*
X43307000Y-78867000D03*
X50927000Y-73787000D03*
X43307000Y-76327000D03*
X50927000Y-76327000D03*
X43307000Y-73787000D03*
X50927000Y-78867000D03*
D13*
X43307000Y-71247000D03*
%TD*%
D12*
%TO.C,U1*%
X51562000Y-51816000D03*
X43942000Y-59436000D03*
X51562000Y-54356000D03*
X43942000Y-56896000D03*
X51562000Y-56896000D03*
X43942000Y-54356000D03*
X51562000Y-59436000D03*
D13*
X43942000Y-51816000D03*
%TD*%
%TO.C,R24*%
G36*
G01*
X93834000Y-26346999D02*
X93834000Y-27247001D01*
G75*
G02*
X93584001Y-27497000I-249999J0D01*
G01*
X92883999Y-27497000D01*
G75*
G02*
X92634000Y-27247001I0J249999D01*
G01*
X92634000Y-26346999D01*
G75*
G02*
X92883999Y-26097000I249999J0D01*
G01*
X93584001Y-26097000D01*
G75*
G02*
X93834000Y-26346999I0J-249999D01*
G01*
G37*
G36*
G01*
X95834000Y-26346999D02*
X95834000Y-27247001D01*
G75*
G02*
X95584001Y-27497000I-249999J0D01*
G01*
X94883999Y-27497000D01*
G75*
G02*
X94634000Y-27247001I0J249999D01*
G01*
X94634000Y-26346999D01*
G75*
G02*
X94883999Y-26097000I249999J0D01*
G01*
X95584001Y-26097000D01*
G75*
G02*
X95834000Y-26346999I0J-249999D01*
G01*
G37*
%TD*%
%TO.C,R23*%
G36*
G01*
X93961000Y-22092499D02*
X93961000Y-22992501D01*
G75*
G02*
X93711001Y-23242500I-249999J0D01*
G01*
X93010999Y-23242500D01*
G75*
G02*
X92761000Y-22992501I0J249999D01*
G01*
X92761000Y-22092499D01*
G75*
G02*
X93010999Y-21842500I249999J0D01*
G01*
X93711001Y-21842500D01*
G75*
G02*
X93961000Y-22092499I0J-249999D01*
G01*
G37*
G36*
G01*
X95961000Y-22092499D02*
X95961000Y-22992501D01*
G75*
G02*
X95711001Y-23242500I-249999J0D01*
G01*
X95010999Y-23242500D01*
G75*
G02*
X94761000Y-22992501I0J249999D01*
G01*
X94761000Y-22092499D01*
G75*
G02*
X95010999Y-21842500I249999J0D01*
G01*
X95711001Y-21842500D01*
G75*
G02*
X95961000Y-22092499I0J-249999D01*
G01*
G37*
%TD*%
%TO.C,R22*%
G36*
G01*
X94088000Y-17837999D02*
X94088000Y-18738001D01*
G75*
G02*
X93838001Y-18988000I-249999J0D01*
G01*
X93137999Y-18988000D01*
G75*
G02*
X92888000Y-18738001I0J249999D01*
G01*
X92888000Y-17837999D01*
G75*
G02*
X93137999Y-17588000I249999J0D01*
G01*
X93838001Y-17588000D01*
G75*
G02*
X94088000Y-17837999I0J-249999D01*
G01*
G37*
G36*
G01*
X96088000Y-17837999D02*
X96088000Y-18738001D01*
G75*
G02*
X95838001Y-18988000I-249999J0D01*
G01*
X95137999Y-18988000D01*
G75*
G02*
X94888000Y-18738001I0J249999D01*
G01*
X94888000Y-17837999D01*
G75*
G02*
X95137999Y-17588000I249999J0D01*
G01*
X95838001Y-17588000D01*
G75*
G02*
X96088000Y-17837999I0J-249999D01*
G01*
G37*
%TD*%
%TO.C,R21*%
G36*
G01*
X85921001Y-30461000D02*
X85020999Y-30461000D01*
G75*
G02*
X84771000Y-30211001I0J249999D01*
G01*
X84771000Y-29510999D01*
G75*
G02*
X85020999Y-29261000I249999J0D01*
G01*
X85921001Y-29261000D01*
G75*
G02*
X86171000Y-29510999I0J-249999D01*
G01*
X86171000Y-30211001D01*
G75*
G02*
X85921001Y-30461000I-249999J0D01*
G01*
G37*
G36*
G01*
X85921001Y-32461000D02*
X85020999Y-32461000D01*
G75*
G02*
X84771000Y-32211001I0J249999D01*
G01*
X84771000Y-31510999D01*
G75*
G02*
X85020999Y-31261000I249999J0D01*
G01*
X85921001Y-31261000D01*
G75*
G02*
X86171000Y-31510999I0J-249999D01*
G01*
X86171000Y-32211001D01*
G75*
G02*
X85921001Y-32461000I-249999J0D01*
G01*
G37*
%TD*%
%TO.C,R20*%
G36*
G01*
X82238001Y-30588000D02*
X81337999Y-30588000D01*
G75*
G02*
X81088000Y-30338001I0J249999D01*
G01*
X81088000Y-29637999D01*
G75*
G02*
X81337999Y-29388000I249999J0D01*
G01*
X82238001Y-29388000D01*
G75*
G02*
X82488000Y-29637999I0J-249999D01*
G01*
X82488000Y-30338001D01*
G75*
G02*
X82238001Y-30588000I-249999J0D01*
G01*
G37*
G36*
G01*
X82238001Y-32588000D02*
X81337999Y-32588000D01*
G75*
G02*
X81088000Y-32338001I0J249999D01*
G01*
X81088000Y-31637999D01*
G75*
G02*
X81337999Y-31388000I249999J0D01*
G01*
X82238001Y-31388000D01*
G75*
G02*
X82488000Y-31637999I0J-249999D01*
G01*
X82488000Y-32338001D01*
G75*
G02*
X82238001Y-32588000I-249999J0D01*
G01*
G37*
%TD*%
%TO.C,R19*%
G36*
G01*
X77920001Y-30461000D02*
X77019999Y-30461000D01*
G75*
G02*
X76770000Y-30211001I0J249999D01*
G01*
X76770000Y-29510999D01*
G75*
G02*
X77019999Y-29261000I249999J0D01*
G01*
X77920001Y-29261000D01*
G75*
G02*
X78170000Y-29510999I0J-249999D01*
G01*
X78170000Y-30211001D01*
G75*
G02*
X77920001Y-30461000I-249999J0D01*
G01*
G37*
G36*
G01*
X77920001Y-32461000D02*
X77019999Y-32461000D01*
G75*
G02*
X76770000Y-32211001I0J249999D01*
G01*
X76770000Y-31510999D01*
G75*
G02*
X77019999Y-31261000I249999J0D01*
G01*
X77920001Y-31261000D01*
G75*
G02*
X78170000Y-31510999I0J-249999D01*
G01*
X78170000Y-32211001D01*
G75*
G02*
X77920001Y-32461000I-249999J0D01*
G01*
G37*
%TD*%
%TO.C,R18*%
G36*
G01*
X69958000Y-26727999D02*
X69958000Y-27628001D01*
G75*
G02*
X69708001Y-27878000I-249999J0D01*
G01*
X69007999Y-27878000D01*
G75*
G02*
X68758000Y-27628001I0J249999D01*
G01*
X68758000Y-26727999D01*
G75*
G02*
X69007999Y-26478000I249999J0D01*
G01*
X69708001Y-26478000D01*
G75*
G02*
X69958000Y-26727999I0J-249999D01*
G01*
G37*
G36*
G01*
X71958000Y-26727999D02*
X71958000Y-27628001D01*
G75*
G02*
X71708001Y-27878000I-249999J0D01*
G01*
X71007999Y-27878000D01*
G75*
G02*
X70758000Y-27628001I0J249999D01*
G01*
X70758000Y-26727999D01*
G75*
G02*
X71007999Y-26478000I249999J0D01*
G01*
X71708001Y-26478000D01*
G75*
G02*
X71958000Y-26727999I0J-249999D01*
G01*
G37*
%TD*%
%TO.C,R17*%
G36*
G01*
X69958000Y-22536999D02*
X69958000Y-23437001D01*
G75*
G02*
X69708001Y-23687000I-249999J0D01*
G01*
X69007999Y-23687000D01*
G75*
G02*
X68758000Y-23437001I0J249999D01*
G01*
X68758000Y-22536999D01*
G75*
G02*
X69007999Y-22287000I249999J0D01*
G01*
X69708001Y-22287000D01*
G75*
G02*
X69958000Y-22536999I0J-249999D01*
G01*
G37*
G36*
G01*
X71958000Y-22536999D02*
X71958000Y-23437001D01*
G75*
G02*
X71708001Y-23687000I-249999J0D01*
G01*
X71007999Y-23687000D01*
G75*
G02*
X70758000Y-23437001I0J249999D01*
G01*
X70758000Y-22536999D01*
G75*
G02*
X71007999Y-22287000I249999J0D01*
G01*
X71708001Y-22287000D01*
G75*
G02*
X71958000Y-22536999I0J-249999D01*
G01*
G37*
%TD*%
%TO.C,R16*%
G36*
G01*
X69958000Y-17964999D02*
X69958000Y-18865001D01*
G75*
G02*
X69708001Y-19115000I-249999J0D01*
G01*
X69007999Y-19115000D01*
G75*
G02*
X68758000Y-18865001I0J249999D01*
G01*
X68758000Y-17964999D01*
G75*
G02*
X69007999Y-17715000I249999J0D01*
G01*
X69708001Y-17715000D01*
G75*
G02*
X69958000Y-17964999I0J-249999D01*
G01*
G37*
G36*
G01*
X71958000Y-17964999D02*
X71958000Y-18865001D01*
G75*
G02*
X71708001Y-19115000I-249999J0D01*
G01*
X71007999Y-19115000D01*
G75*
G02*
X70758000Y-18865001I0J249999D01*
G01*
X70758000Y-17964999D01*
G75*
G02*
X71007999Y-17715000I249999J0D01*
G01*
X71708001Y-17715000D01*
G75*
G02*
X71958000Y-17964999I0J-249999D01*
G01*
G37*
%TD*%
%TO.C,R15*%
G36*
G01*
X72193999Y-53486000D02*
X73094001Y-53486000D01*
G75*
G02*
X73344000Y-53735999I0J-249999D01*
G01*
X73344000Y-54436001D01*
G75*
G02*
X73094001Y-54686000I-249999J0D01*
G01*
X72193999Y-54686000D01*
G75*
G02*
X71944000Y-54436001I0J249999D01*
G01*
X71944000Y-53735999D01*
G75*
G02*
X72193999Y-53486000I249999J0D01*
G01*
G37*
G36*
G01*
X72193999Y-51486000D02*
X73094001Y-51486000D01*
G75*
G02*
X73344000Y-51735999I0J-249999D01*
G01*
X73344000Y-52436001D01*
G75*
G02*
X73094001Y-52686000I-249999J0D01*
G01*
X72193999Y-52686000D01*
G75*
G02*
X71944000Y-52436001I0J249999D01*
G01*
X71944000Y-51735999D01*
G75*
G02*
X72193999Y-51486000I249999J0D01*
G01*
G37*
%TD*%
%TO.C,R14*%
G36*
G01*
X78797999Y-39262000D02*
X79698001Y-39262000D01*
G75*
G02*
X79948000Y-39511999I0J-249999D01*
G01*
X79948000Y-40212001D01*
G75*
G02*
X79698001Y-40462000I-249999J0D01*
G01*
X78797999Y-40462000D01*
G75*
G02*
X78548000Y-40212001I0J249999D01*
G01*
X78548000Y-39511999D01*
G75*
G02*
X78797999Y-39262000I249999J0D01*
G01*
G37*
G36*
G01*
X78797999Y-37262000D02*
X79698001Y-37262000D01*
G75*
G02*
X79948000Y-37511999I0J-249999D01*
G01*
X79948000Y-38212001D01*
G75*
G02*
X79698001Y-38462000I-249999J0D01*
G01*
X78797999Y-38462000D01*
G75*
G02*
X78548000Y-38212001I0J249999D01*
G01*
X78548000Y-37511999D01*
G75*
G02*
X78797999Y-37262000I249999J0D01*
G01*
G37*
%TD*%
%TO.C,R13*%
G36*
G01*
X76765999Y-106064000D02*
X77666001Y-106064000D01*
G75*
G02*
X77916000Y-106313999I0J-249999D01*
G01*
X77916000Y-107014001D01*
G75*
G02*
X77666001Y-107264000I-249999J0D01*
G01*
X76765999Y-107264000D01*
G75*
G02*
X76516000Y-107014001I0J249999D01*
G01*
X76516000Y-106313999D01*
G75*
G02*
X76765999Y-106064000I249999J0D01*
G01*
G37*
G36*
G01*
X76765999Y-104064000D02*
X77666001Y-104064000D01*
G75*
G02*
X77916000Y-104313999I0J-249999D01*
G01*
X77916000Y-105014001D01*
G75*
G02*
X77666001Y-105264000I-249999J0D01*
G01*
X76765999Y-105264000D01*
G75*
G02*
X76516000Y-105014001I0J249999D01*
G01*
X76516000Y-104313999D01*
G75*
G02*
X76765999Y-104064000I249999J0D01*
G01*
G37*
%TD*%
%TO.C,R12*%
G36*
G01*
X67247000Y-53876001D02*
X67247000Y-51025999D01*
G75*
G02*
X67496999Y-50776000I249999J0D01*
G01*
X68397001Y-50776000D01*
G75*
G02*
X68647000Y-51025999I0J-249999D01*
G01*
X68647000Y-53876001D01*
G75*
G02*
X68397001Y-54126000I-249999J0D01*
G01*
X67496999Y-54126000D01*
G75*
G02*
X67247000Y-53876001I0J249999D01*
G01*
G37*
G36*
G01*
X61147000Y-53876001D02*
X61147000Y-51025999D01*
G75*
G02*
X61396999Y-50776000I249999J0D01*
G01*
X62297001Y-50776000D01*
G75*
G02*
X62547000Y-51025999I0J-249999D01*
G01*
X62547000Y-53876001D01*
G75*
G02*
X62297001Y-54126000I-249999J0D01*
G01*
X61396999Y-54126000D01*
G75*
G02*
X61147000Y-53876001I0J249999D01*
G01*
G37*
%TD*%
%TO.C,R11*%
G36*
G01*
X68644000Y-40541001D02*
X68644000Y-37690999D01*
G75*
G02*
X68893999Y-37441000I249999J0D01*
G01*
X69794001Y-37441000D01*
G75*
G02*
X70044000Y-37690999I0J-249999D01*
G01*
X70044000Y-40541001D01*
G75*
G02*
X69794001Y-40791000I-249999J0D01*
G01*
X68893999Y-40791000D01*
G75*
G02*
X68644000Y-40541001I0J249999D01*
G01*
G37*
G36*
G01*
X62544000Y-40541001D02*
X62544000Y-37690999D01*
G75*
G02*
X62793999Y-37441000I249999J0D01*
G01*
X63694001Y-37441000D01*
G75*
G02*
X63944000Y-37690999I0J-249999D01*
G01*
X63944000Y-40541001D01*
G75*
G02*
X63694001Y-40791000I-249999J0D01*
G01*
X62793999Y-40791000D01*
G75*
G02*
X62544000Y-40541001I0J249999D01*
G01*
G37*
%TD*%
%TO.C,R10*%
G36*
G01*
X72828999Y-67583000D02*
X73729001Y-67583000D01*
G75*
G02*
X73979000Y-67832999I0J-249999D01*
G01*
X73979000Y-68533001D01*
G75*
G02*
X73729001Y-68783000I-249999J0D01*
G01*
X72828999Y-68783000D01*
G75*
G02*
X72579000Y-68533001I0J249999D01*
G01*
X72579000Y-67832999D01*
G75*
G02*
X72828999Y-67583000I249999J0D01*
G01*
G37*
G36*
G01*
X72828999Y-65583000D02*
X73729001Y-65583000D01*
G75*
G02*
X73979000Y-65832999I0J-249999D01*
G01*
X73979000Y-66533001D01*
G75*
G02*
X73729001Y-66783000I-249999J0D01*
G01*
X72828999Y-66783000D01*
G75*
G02*
X72579000Y-66533001I0J249999D01*
G01*
X72579000Y-65832999D01*
G75*
G02*
X72828999Y-65583000I249999J0D01*
G01*
G37*
%TD*%
%TO.C,R9*%
G36*
G01*
X72066999Y-97936000D02*
X72967001Y-97936000D01*
G75*
G02*
X73217000Y-98185999I0J-249999D01*
G01*
X73217000Y-98886001D01*
G75*
G02*
X72967001Y-99136000I-249999J0D01*
G01*
X72066999Y-99136000D01*
G75*
G02*
X71817000Y-98886001I0J249999D01*
G01*
X71817000Y-98185999D01*
G75*
G02*
X72066999Y-97936000I249999J0D01*
G01*
G37*
G36*
G01*
X72066999Y-95936000D02*
X72967001Y-95936000D01*
G75*
G02*
X73217000Y-96185999I0J-249999D01*
G01*
X73217000Y-96886001D01*
G75*
G02*
X72967001Y-97136000I-249999J0D01*
G01*
X72066999Y-97136000D01*
G75*
G02*
X71817000Y-96886001I0J249999D01*
G01*
X71817000Y-96185999D01*
G75*
G02*
X72066999Y-95936000I249999J0D01*
G01*
G37*
%TD*%
%TO.C,R8*%
G36*
G01*
X70669999Y-80664000D02*
X71570001Y-80664000D01*
G75*
G02*
X71820000Y-80913999I0J-249999D01*
G01*
X71820000Y-81614001D01*
G75*
G02*
X71570001Y-81864000I-249999J0D01*
G01*
X70669999Y-81864000D01*
G75*
G02*
X70420000Y-81614001I0J249999D01*
G01*
X70420000Y-80913999D01*
G75*
G02*
X70669999Y-80664000I249999J0D01*
G01*
G37*
G36*
G01*
X70669999Y-78664000D02*
X71570001Y-78664000D01*
G75*
G02*
X71820000Y-78913999I0J-249999D01*
G01*
X71820000Y-79614001D01*
G75*
G02*
X71570001Y-79864000I-249999J0D01*
G01*
X70669999Y-79864000D01*
G75*
G02*
X70420000Y-79614001I0J249999D01*
G01*
X70420000Y-78913999D01*
G75*
G02*
X70669999Y-78664000I249999J0D01*
G01*
G37*
%TD*%
%TO.C,R7*%
G36*
G01*
X67501000Y-103279001D02*
X67501000Y-100428999D01*
G75*
G02*
X67750999Y-100179000I249999J0D01*
G01*
X68651001Y-100179000D01*
G75*
G02*
X68901000Y-100428999I0J-249999D01*
G01*
X68901000Y-103279001D01*
G75*
G02*
X68651001Y-103529000I-249999J0D01*
G01*
X67750999Y-103529000D01*
G75*
G02*
X67501000Y-103279001I0J249999D01*
G01*
G37*
G36*
G01*
X61401000Y-103279001D02*
X61401000Y-100428999D01*
G75*
G02*
X61650999Y-100179000I249999J0D01*
G01*
X62551001Y-100179000D01*
G75*
G02*
X62801000Y-100428999I0J-249999D01*
G01*
X62801000Y-103279001D01*
G75*
G02*
X62551001Y-103529000I-249999J0D01*
G01*
X61650999Y-103529000D01*
G75*
G02*
X61401000Y-103279001I0J249999D01*
G01*
G37*
%TD*%
%TO.C,R6*%
G36*
G01*
X65215000Y-78768001D02*
X65215000Y-75917999D01*
G75*
G02*
X65464999Y-75668000I249999J0D01*
G01*
X66365001Y-75668000D01*
G75*
G02*
X66615000Y-75917999I0J-249999D01*
G01*
X66615000Y-78768001D01*
G75*
G02*
X66365001Y-79018000I-249999J0D01*
G01*
X65464999Y-79018000D01*
G75*
G02*
X65215000Y-78768001I0J249999D01*
G01*
G37*
G36*
G01*
X59115000Y-78768001D02*
X59115000Y-75917999D01*
G75*
G02*
X59364999Y-75668000I249999J0D01*
G01*
X60265001Y-75668000D01*
G75*
G02*
X60515000Y-75917999I0J-249999D01*
G01*
X60515000Y-78768001D01*
G75*
G02*
X60265001Y-79018000I-249999J0D01*
G01*
X59364999Y-79018000D01*
G75*
G02*
X59115000Y-78768001I0J249999D01*
G01*
G37*
%TD*%
%TO.C,R5*%
G36*
G01*
X67628000Y-64798001D02*
X67628000Y-61947999D01*
G75*
G02*
X67877999Y-61698000I249999J0D01*
G01*
X68778001Y-61698000D01*
G75*
G02*
X69028000Y-61947999I0J-249999D01*
G01*
X69028000Y-64798001D01*
G75*
G02*
X68778001Y-65048000I-249999J0D01*
G01*
X67877999Y-65048000D01*
G75*
G02*
X67628000Y-64798001I0J249999D01*
G01*
G37*
G36*
G01*
X61528000Y-64798001D02*
X61528000Y-61947999D01*
G75*
G02*
X61777999Y-61698000I249999J0D01*
G01*
X62678001Y-61698000D01*
G75*
G02*
X62928000Y-61947999I0J-249999D01*
G01*
X62928000Y-64798001D01*
G75*
G02*
X62678001Y-65048000I-249999J0D01*
G01*
X61777999Y-65048000D01*
G75*
G02*
X61528000Y-64798001I0J249999D01*
G01*
G37*
%TD*%
%TO.C,R4*%
G36*
G01*
X67755000Y-91341001D02*
X67755000Y-88490999D01*
G75*
G02*
X68004999Y-88241000I249999J0D01*
G01*
X68905001Y-88241000D01*
G75*
G02*
X69155000Y-88490999I0J-249999D01*
G01*
X69155000Y-91341001D01*
G75*
G02*
X68905001Y-91591000I-249999J0D01*
G01*
X68004999Y-91591000D01*
G75*
G02*
X67755000Y-91341001I0J249999D01*
G01*
G37*
G36*
G01*
X61655000Y-91341001D02*
X61655000Y-88490999D01*
G75*
G02*
X61904999Y-88241000I249999J0D01*
G01*
X62805001Y-88241000D01*
G75*
G02*
X63055000Y-88490999I0J-249999D01*
G01*
X63055000Y-91341001D01*
G75*
G02*
X62805001Y-91591000I-249999J0D01*
G01*
X61904999Y-91591000D01*
G75*
G02*
X61655000Y-91341001I0J249999D01*
G01*
G37*
%TD*%
%TO.C,R3*%
G36*
G01*
X25419000Y-17595001D02*
X25419000Y-16694999D01*
G75*
G02*
X25668999Y-16445000I249999J0D01*
G01*
X26369001Y-16445000D01*
G75*
G02*
X26619000Y-16694999I0J-249999D01*
G01*
X26619000Y-17595001D01*
G75*
G02*
X26369001Y-17845000I-249999J0D01*
G01*
X25668999Y-17845000D01*
G75*
G02*
X25419000Y-17595001I0J249999D01*
G01*
G37*
G36*
G01*
X23419000Y-17595001D02*
X23419000Y-16694999D01*
G75*
G02*
X23668999Y-16445000I249999J0D01*
G01*
X24369001Y-16445000D01*
G75*
G02*
X24619000Y-16694999I0J-249999D01*
G01*
X24619000Y-17595001D01*
G75*
G02*
X24369001Y-17845000I-249999J0D01*
G01*
X23668999Y-17845000D01*
G75*
G02*
X23419000Y-17595001I0J249999D01*
G01*
G37*
%TD*%
%TO.C,R2*%
G36*
G01*
X25419000Y-21278001D02*
X25419000Y-20377999D01*
G75*
G02*
X25668999Y-20128000I249999J0D01*
G01*
X26369001Y-20128000D01*
G75*
G02*
X26619000Y-20377999I0J-249999D01*
G01*
X26619000Y-21278001D01*
G75*
G02*
X26369001Y-21528000I-249999J0D01*
G01*
X25668999Y-21528000D01*
G75*
G02*
X25419000Y-21278001I0J249999D01*
G01*
G37*
G36*
G01*
X23419000Y-21278001D02*
X23419000Y-20377999D01*
G75*
G02*
X23668999Y-20128000I249999J0D01*
G01*
X24369001Y-20128000D01*
G75*
G02*
X24619000Y-20377999I0J-249999D01*
G01*
X24619000Y-21278001D01*
G75*
G02*
X24369001Y-21528000I-249999J0D01*
G01*
X23668999Y-21528000D01*
G75*
G02*
X23419000Y-21278001I0J249999D01*
G01*
G37*
%TD*%
%TO.C,R1*%
G36*
G01*
X25546000Y-25088001D02*
X25546000Y-24187999D01*
G75*
G02*
X25795999Y-23938000I249999J0D01*
G01*
X26496001Y-23938000D01*
G75*
G02*
X26746000Y-24187999I0J-249999D01*
G01*
X26746000Y-25088001D01*
G75*
G02*
X26496001Y-25338000I-249999J0D01*
G01*
X25795999Y-25338000D01*
G75*
G02*
X25546000Y-25088001I0J249999D01*
G01*
G37*
G36*
G01*
X23546000Y-25088001D02*
X23546000Y-24187999D01*
G75*
G02*
X23795999Y-23938000I249999J0D01*
G01*
X24496001Y-23938000D01*
G75*
G02*
X24746000Y-24187999I0J-249999D01*
G01*
X24746000Y-25088001D01*
G75*
G02*
X24496001Y-25338000I-249999J0D01*
G01*
X23795999Y-25338000D01*
G75*
G02*
X23546000Y-25088001I0J249999D01*
G01*
G37*
%TD*%
D14*
%TO.C,Q6*%
X92202000Y-97155000D03*
X92202000Y-94615000D03*
D15*
X92202000Y-92075000D03*
%TD*%
D14*
%TO.C,Q5*%
X77851000Y-97282000D03*
X77851000Y-94742000D03*
D15*
X77851000Y-92202000D03*
%TD*%
D14*
%TO.C,Q4*%
X78613000Y-50292000D03*
X78613000Y-47752000D03*
D15*
X78613000Y-45212000D03*
%TD*%
D14*
%TO.C,Q3*%
X92837000Y-51054000D03*
X92837000Y-48514000D03*
D15*
X92837000Y-45974000D03*
%TD*%
D14*
%TO.C,Q2*%
X78105000Y-81280000D03*
X78105000Y-78740000D03*
D15*
X78105000Y-76200000D03*
%TD*%
D14*
%TO.C,Q1*%
X78359000Y-66548000D03*
X78359000Y-64008000D03*
D15*
X78359000Y-61468000D03*
%TD*%
D16*
%TO.C,J4*%
X102870000Y-65024000D03*
X102870000Y-70104000D03*
D17*
X102870000Y-75184000D03*
%TD*%
D16*
%TO.C,J3*%
X17272000Y-49657000D03*
D17*
X17272000Y-44577000D03*
%TD*%
D18*
%TO.C,J2*%
X15468600Y-22225000D03*
X15468600Y-24765000D03*
X15468600Y-27305000D03*
D19*
X15468600Y-29845000D03*
%TD*%
D18*
%TO.C,J1*%
X15748000Y-81026000D03*
X15748000Y-78486000D03*
X15748000Y-75946000D03*
X15748000Y-73406000D03*
X15748000Y-70866000D03*
X15748000Y-68326000D03*
D19*
X15748000Y-65786000D03*
%TD*%
D20*
%TO.C,D9*%
X70358000Y-43688000D03*
D21*
X62738000Y-43688000D03*
%TD*%
D20*
%TO.C,D8*%
X68834000Y-57531000D03*
D21*
X61214000Y-57531000D03*
%TD*%
D20*
%TO.C,D7*%
X68834000Y-107442000D03*
D21*
X61214000Y-107442000D03*
%TD*%
D20*
%TO.C,D6*%
X66548000Y-82550000D03*
D21*
X58928000Y-82550000D03*
%TD*%
D20*
%TO.C,D5*%
X69596000Y-68453000D03*
D21*
X61976000Y-68453000D03*
%TD*%
D20*
%TO.C,D4*%
X69342000Y-94996000D03*
D21*
X61722000Y-94996000D03*
%TD*%
D20*
%TO.C,D3*%
X42926000Y-86487000D03*
D21*
X50546000Y-86487000D03*
%TD*%
D20*
%TO.C,D2*%
X43815000Y-47879000D03*
D21*
X51435000Y-47879000D03*
%TD*%
D20*
%TO.C,D1*%
X43434000Y-66675000D03*
D21*
X51054000Y-66675000D03*
%TD*%
D22*
%TO.C,C8*%
X28829000Y-49831000D03*
D23*
X28829000Y-44831000D03*
%TD*%
D24*
%TO.C,C7*%
X58547000Y-47585000D03*
D21*
X58547000Y-45085000D03*
%TD*%
D24*
%TO.C,C6*%
X57150000Y-69556000D03*
D21*
X57150000Y-67056000D03*
%TD*%
D24*
%TO.C,C5*%
X56007000Y-90892000D03*
D21*
X56007000Y-88392000D03*
%TD*%
D24*
%TO.C,C4*%
X35814000Y-88479000D03*
D21*
X35814000Y-85979000D03*
%TD*%
D24*
%TO.C,C3*%
X36195000Y-69048000D03*
D21*
X36195000Y-66548000D03*
%TD*%
D24*
%TO.C,C2*%
X38227000Y-51776000D03*
D21*
X38227000Y-49276000D03*
%TD*%
D24*
%TO.C,C1*%
X18135600Y-37602800D03*
D21*
X18135600Y-35102800D03*
%TD*%
M02*
