M48
; DRILL file {KiCad (5.1.8)-1} date 12/20/20 02:03:22
; FORMAT={-:-/ absolute / inch / decimal}
; #@! TF.CreationDate,2020-12-20T02:03:22+03:00
; #@! TF.GenerationSoftware,Kicad,Pcbnew,(5.1.8)-1
; #@! TF.FileFunction,Plated,1,2,PTH
FMAT,2
INCH
T1C0.0157
T2C0.0303
T3C0.0315
T4C0.0394
T5C0.0433
T6C0.0598
%
G90
G05
T1
X0.835Y-1.095
X0.9Y-2.205
X0.93Y-1.585
X1.055Y-2.745
X1.065Y-3.18
X1.1Y-0.75
X1.105Y-0.605
X1.105Y-0.92
X1.205Y-2.34
X1.22Y-3.7
X1.315Y-3.995
X1.37Y-1.19
X1.38Y-0.745
X1.495Y-3.24
X1.5Y-3.615
X1.505Y-2.455
X1.505Y-2.835
X1.57Y-1.685
X1.82Y-0.98
X1.84Y-3.875
X1.845Y-3.675
X2.08Y-3.335
X2.17Y-1.995
X2.24Y-0.72
X2.24Y-1.61
X2.255Y-4.115
X2.26Y-2.97
X2.33Y-3.87
X2.385Y-1.15
X2.605Y-2.875
X2.655Y-1.89
X2.8Y-3.55
X2.875Y-2.87
X2.93Y-1.715
X3.015Y-3.39
X3.14Y-1.07
X3.215Y-4.09
X3.22Y-1.32
X3.225Y-0.64
X3.255Y-0.95
X3.275Y-3.93
X3.36Y-3.475
X3.37Y-2.295
X3.42Y-3.12
X3.52Y-1.06
X3.55Y-4.11
X3.57Y-0.895
X3.595Y-2.53
X3.615Y-1.49
X3.635Y-3.0
X3.83Y-3.42
X3.86Y-1.145
X3.945Y-1.035
X4.005Y-3.785
X4.03Y-0.725
X4.085Y-3.525
X4.15Y-1.345
T2
X1.6587Y-0.68
X1.6587Y-0.78
X1.6587Y-0.88
X1.6587Y-0.98
X1.6587Y-1.08
X1.6587Y-1.18
X1.6587Y-1.28
X1.9713Y-0.68
X1.9713Y-0.78
X1.9713Y-0.88
X1.9713Y-0.98
X1.9713Y-1.08
X1.9713Y-1.18
X1.9713Y-1.28
T3
X2.43Y-3.74
X2.73Y-3.74
X1.73Y-2.04
X1.73Y-2.14
X1.73Y-2.24
X1.73Y-2.34
X2.03Y-2.04
X2.03Y-2.14
X2.03Y-2.24
X2.03Y-2.34
X2.47Y-1.72
X2.77Y-1.72
X1.41Y-3.385
X1.41Y-3.4834
X1.505Y-1.94
X1.505Y-2.0384
X2.41Y-2.265
X2.71Y-2.265
X1.69Y-3.405
X1.99Y-3.405
X2.25Y-2.64
X2.25Y-2.7384
X2.44Y-2.695
X2.74Y-2.695
X2.41Y-4.23
X2.71Y-4.23
X2.32Y-3.25
X2.62Y-3.25
X0.714Y-1.382
X0.714Y-1.4804
X1.71Y-2.625
X2.01Y-2.625
X2.205Y-3.48
X2.205Y-3.5784
X2.305Y-1.775
X2.305Y-1.8734
X1.705Y-2.805
X1.705Y-2.905
X1.705Y-3.005
X1.705Y-3.105
X2.005Y-2.805
X2.005Y-2.905
X2.005Y-3.005
X2.005Y-3.105
X1.685Y-3.625
X1.685Y-3.725
X1.685Y-3.825
X1.685Y-3.925
X1.985Y-3.625
X1.985Y-3.725
X1.985Y-3.825
X1.985Y-3.925
X1.425Y-2.62
X1.425Y-2.7184
X1.725Y-1.885
X2.025Y-1.885
T4
X0.609Y-0.875
X0.609Y-0.975
X0.609Y-1.075
X0.609Y-1.175
X0.62Y-2.59
X0.62Y-2.69
X0.62Y-2.79
X0.62Y-2.89
X0.62Y-2.99
X0.62Y-3.09
X0.62Y-3.19
X1.135Y-1.765
X1.135Y-1.9619
T5
X3.085Y-2.42
X3.085Y-2.52
X3.085Y-2.62
X3.075Y-3.0
X3.075Y-3.1
X3.075Y-3.2
X3.095Y-1.78
X3.095Y-1.88
X3.095Y-1.98
X3.655Y-1.81
X3.655Y-1.91
X3.655Y-2.01
X3.065Y-3.63
X3.065Y-3.73
X3.065Y-3.83
X3.63Y-3.625
X3.63Y-3.725
X3.63Y-3.825
T6
X4.05Y-2.56
X4.05Y-2.76
X4.05Y-2.96
X0.68Y-1.755
X0.68Y-1.955
T0
M30
